<svg width="471" height="52" viewBox="0 0 471 52" fill="none" xmlns="http://www.w3.org/2000/svg">
<path fill-rule="evenodd" clip-rule="evenodd" d="M212.411 13.9814C214.705 13.9814 216.804 14.5147 218.704 15.5808C220.628 16.6469 222.134 18.13 223.223 20.0302C224.336 21.9306 224.892 24.0749 224.893 26.462C224.893 28.8492 224.336 31.0055 223.223 32.9292C222.111 34.8294 220.604 36.3125 218.704 37.3786C216.804 38.4447 214.705 38.9779 212.411 38.9779C210.116 38.9779 208.007 38.4447 206.083 37.3786C204.183 36.3125 202.665 34.8293 201.53 32.9292C200.417 31.0055 199.861 28.8492 199.861 26.462C199.861 24.0749 200.417 21.9306 201.53 20.0302C202.665 18.1301 204.183 16.6469 206.083 15.5808C208.007 14.5147 210.116 13.9815 212.411 13.9814ZM212.411 19.3706C210.441 19.3706 208.864 20.0073 207.682 21.282C206.524 22.5567 205.945 24.2836 205.945 26.462C205.945 28.6175 206.524 30.3451 207.682 31.6431C208.864 32.9177 210.441 33.5545 212.411 33.5545C214.358 33.5545 215.911 32.9055 217.069 31.6076C218.251 30.3097 218.843 28.5943 218.843 26.462C218.843 24.3068 218.251 22.5922 217.069 21.3175C215.911 20.0196 214.358 19.3706 212.411 19.3706Z" fill="#F8E9D6"/>
<path fill-rule="evenodd" clip-rule="evenodd" d="M273.59 13.9814C275.885 13.9814 277.983 14.5147 279.883 15.5808C281.807 16.6469 283.313 18.13 284.403 20.0302C285.515 21.9306 286.072 24.0749 286.072 26.462C286.072 28.8492 285.515 31.0055 284.403 32.9292C283.29 34.8294 281.784 36.3125 279.883 37.3786C277.983 38.4447 275.885 38.9779 273.59 38.9779C271.296 38.9779 269.186 38.4447 267.262 37.3786C265.362 36.3125 263.844 34.8293 262.709 32.9292C261.596 31.0055 261.04 28.8492 261.04 26.462C261.04 24.0749 261.596 21.9306 262.709 20.0302C263.844 18.1301 265.362 16.6469 267.262 15.5808C269.186 14.5147 271.296 13.9815 273.59 13.9814ZM273.59 19.3706C271.62 19.3706 270.044 20.0073 268.862 21.282C267.703 22.5567 267.124 24.2836 267.124 26.462C267.124 28.6175 267.703 30.3451 268.862 31.6431C270.044 32.9177 271.62 33.5545 273.59 33.5545C275.537 33.5545 277.09 32.9055 278.249 31.6076C279.431 30.3097 280.022 28.5943 280.022 26.462C280.022 24.3068 279.43 22.5922 278.249 21.3175C277.09 20.0196 275.537 19.3706 273.59 19.3706Z" fill="#F8E9D6"/>
<path d="M421.925 28.9302C421.925 30.3903 422.284 31.5147 423.003 32.3027C423.721 33.0906 424.776 33.4847 426.166 33.4848C427.557 33.4848 428.623 33.0907 429.365 32.3027C430.106 31.5147 430.477 30.3903 430.477 28.9302V14.329H436.422V28.8959C436.422 31.0744 435.959 32.9169 435.032 34.4233C434.105 35.9298 432.853 37.0665 431.277 37.8313C429.725 38.5962 427.986 38.9779 426.062 38.9779C424.138 38.9779 422.412 38.6072 420.882 37.8656C419.376 37.1008 418.182 35.9651 417.302 34.4588C416.421 32.9291 415.98 31.0746 415.98 28.8959V14.329H421.925V28.9302Z" fill="#F8E9D6"/>
<path d="M448.872 13.9814C451.56 13.9815 453.728 14.6304 455.373 15.9283C457.019 17.203 457.899 18.9877 458.015 21.282H451.583C451.537 20.4941 451.248 19.8795 450.715 19.4392C450.181 18.9756 449.497 18.7441 448.662 18.7441C447.944 18.7442 447.365 18.9413 446.925 19.3351C446.484 19.706 446.264 20.2515 446.264 20.97C446.264 21.7576 446.635 22.3714 447.376 22.8117C448.118 23.252 449.277 23.7274 450.853 24.2373C452.429 24.7703 453.704 25.2803 454.677 25.7669C455.673 26.2536 456.532 26.9605 457.25 27.8876C457.969 28.8145 458.328 30.0082 458.328 31.4681C458.328 32.8586 457.969 34.1223 457.25 35.2579C456.555 36.3935 455.535 37.2975 454.191 37.9696C452.847 38.6418 451.258 38.9779 449.427 38.9779C447.643 38.9779 446.044 38.6884 444.63 38.1091C443.217 37.5298 442.081 36.6723 441.224 35.5369C440.389 34.4012 439.948 33.0331 439.902 31.4338H446.23C446.322 32.3378 446.635 33.0335 447.168 33.5202C447.701 33.9835 448.396 34.2152 449.253 34.2153C450.134 34.2153 450.83 34.0182 451.34 33.6243C451.85 33.2071 452.105 32.6393 452.105 31.9209C452.105 31.3183 451.896 30.8195 451.479 30.4255C451.085 30.0315 450.587 29.7076 449.984 29.4527C449.405 29.1977 448.57 28.9071 447.48 28.5826C445.905 28.096 444.618 27.6094 443.622 27.1228C442.626 26.6361 441.768 25.9178 441.05 24.9678C440.331 24.0176 439.972 22.7774 439.972 21.2478C439.972 18.9764 440.794 17.2031 442.44 15.9283C444.085 14.6304 446.229 13.9814 448.872 13.9814Z" fill="#F8E9D6"/>
<path d="M246.831 14.0512C249.728 14.0512 252.208 14.8159 254.271 16.3456C256.334 17.8753 257.713 19.9615 258.408 22.6036H251.871C251.385 21.5839 250.69 20.8068 249.786 20.2737C248.905 19.7407 247.897 19.4746 246.761 19.4746C244.93 19.4746 243.447 20.1125 242.312 21.3872C241.176 22.662 240.607 24.3651 240.607 26.4974C240.607 28.6297 241.176 30.3329 242.312 31.6076C243.447 32.8823 244.93 33.5202 246.761 33.5202C247.897 33.5202 248.905 33.253 249.786 32.72C250.69 32.1869 251.385 31.4108 251.871 30.3912H258.408C257.713 33.0334 256.334 35.1195 254.271 36.6492C252.208 38.1557 249.728 38.9094 246.831 38.9094C244.467 38.9094 242.346 38.3872 240.469 37.3443C238.615 36.2781 237.165 34.8065 236.122 32.9292C235.079 31.0519 234.559 28.9078 234.558 26.4974C234.558 24.0871 235.079 21.943 236.122 20.0657C237.165 18.1651 238.615 16.6935 240.469 15.6506C242.346 14.5845 244.467 14.0512 246.831 14.0512Z" fill="#F8E9D6"/>
<path d="M372.959 14.0512C375.856 14.0512 378.336 14.8159 380.399 16.3456C382.462 17.8753 383.841 19.9615 384.536 22.6036H377.999C377.513 21.5839 376.818 20.8068 375.914 20.2737C375.033 19.7407 374.025 19.4746 372.889 19.4746C371.058 19.4746 369.575 20.1125 368.44 21.3872C367.304 22.662 366.735 24.3651 366.735 26.4974C366.735 28.6297 367.304 30.3329 368.44 31.6076C369.575 32.8823 371.058 33.5202 372.889 33.5202C374.025 33.5202 375.033 33.253 375.914 32.72C376.818 32.1869 377.513 31.4108 377.999 30.3912H384.536C383.841 33.0334 382.462 35.1195 380.399 36.6492C378.336 38.1557 375.856 38.9094 372.959 38.9094C370.595 38.9094 368.474 38.3872 366.597 37.3443C364.743 36.2782 363.294 34.8064 362.252 32.9292C361.209 31.0518 360.686 28.9078 360.686 26.4974C360.686 24.087 361.209 21.943 362.252 20.0657C363.294 18.1653 364.743 16.6935 366.597 15.6506C368.474 14.5844 370.595 14.0512 372.959 14.0512Z" fill="#F8E9D6"/>
<path d="M28.9727 19.0916H19.029V24.2373H26.469V28.8616H19.029V38.7344H13.0842V14.329H28.9727V19.0916Z" fill="#F8E9D6"/>
<path d="M47.0469 19.0916H38.0417V24.0292H46.0031V28.6181H38.0417V33.9718H47.0469V38.7344H32.097V14.329H47.0469V19.0916Z" fill="#F8E9D6"/>
<path d="M65.8563 19.0916H56.8512V24.0292H64.8125V28.6181H56.8512V33.9718H65.8563V38.7344H50.9064V14.329H65.8563V19.0916Z" fill="#F8E9D6"/>
<path d="M75.6594 34.1456H83.447V38.7344H69.7147V14.329H75.6594V34.1456Z" fill="#F8E9D6"/>
<path d="M109.539 19.0916H99.5956V24.2373H107.036V28.8616H99.5956V38.7344H93.6508V14.329H109.539V19.0916Z" fill="#F8E9D6"/>
<path fill-rule="evenodd" clip-rule="evenodd" d="M122.642 14.329C124.565 14.329 126.2 14.6652 127.544 15.3373C128.911 16.0094 129.931 16.9368 130.603 18.1188C131.275 19.2775 131.611 20.5757 131.611 22.0126C131.611 23.6348 131.147 25.0833 130.22 26.3579C129.316 27.6325 127.972 28.5366 126.188 29.0697L131.819 38.7344H125.11L120.034 29.5212H118.608V38.7344H112.664V14.329H122.642ZM118.608 25.3153H122.294C123.383 25.3153 124.194 25.048 124.727 24.5151C125.283 23.9821 125.561 23.2293 125.561 22.2561C125.561 21.329 125.283 20.5987 124.727 20.0657C124.194 19.5327 123.383 19.2654 122.294 19.2654H118.608V25.3153Z" fill="#F8E9D6"/>
<path d="M150.292 19.0916H141.287V24.0292H149.248V28.6181H141.287V33.9718H150.292V38.7344H135.342V14.329H150.292V19.0916Z" fill="#F8E9D6"/>
<path d="M169.101 19.0916H160.096V24.0292H168.058V28.6181H160.096V33.9718H169.101V38.7344H154.151V14.329H169.101V19.0916Z" fill="#F8E9D6"/>
<path d="M197.884 19.0916H191.418V38.7344H185.472V19.0916H179.006V14.329H197.884V19.0916Z" fill="#F8E9D6"/>
<path d="M305.268 29.4527V14.329H311.212V38.7344H305.268L295.324 23.6805V38.7344H289.379V14.329H295.324L305.268 29.4527Z" fill="#F8E9D6"/>
<path d="M333.078 19.0916H326.611V38.7344H320.666V19.0916H314.2V14.329H333.078V19.0916Z" fill="#F8E9D6"/>
<path fill-rule="evenodd" clip-rule="evenodd" d="M359.007 38.7344H352.714L351.253 34.4233H342.145L340.685 38.7344H334.462L343.292 14.329H350.176L359.007 38.7344ZM343.709 29.8345H349.724L346.7 20.9002L343.709 29.8345Z" fill="#F8E9D6"/>
<path d="M405.734 19.0916H399.268V38.7344H393.322V19.0916H386.856V14.329H405.734V19.0916Z" fill="#F8E9D6"/>
<mask id="path-2-outside-1_75_450" maskUnits="userSpaceOnUse" x="0.400391" y="1.29785" width="471" height="50" fill="black">
<rect fill="white" x="0.400391" y="1.29785" width="471" height="50"/>
<path fill-rule="evenodd" clip-rule="evenodd" d="M212.411 19.3695C214.357 19.3696 215.911 20.0186 217.069 21.3164C218.251 22.5912 218.842 24.3066 218.842 26.4621L218.835 26.8569C218.766 28.8071 218.177 30.3909 217.069 31.6077C215.911 32.9056 214.357 33.5545 212.411 33.5546C210.441 33.5546 208.864 32.9167 207.682 31.642C206.524 30.3441 205.943 28.6175 205.943 26.4621C205.943 25.6451 206.025 24.8917 206.188 24.2019L206.248 23.9679C206.252 23.9556 206.256 23.9435 206.259 23.9312C206.275 23.8736 206.292 23.8165 206.309 23.7598C206.32 23.7206 206.332 23.6815 206.344 23.6428C206.415 23.4214 206.495 23.2077 206.584 23.0009C206.595 22.9763 206.603 22.9508 206.614 22.9264C206.636 22.8772 206.66 22.8294 206.683 22.781C206.706 22.7331 206.728 22.6851 206.752 22.638C206.773 22.5962 206.795 22.555 206.817 22.5139C206.845 22.4605 206.875 22.4078 206.904 22.3555C206.921 22.3274 206.937 22.2993 206.953 22.2715C206.991 22.2068 207.031 22.143 207.071 22.0801C207.253 21.7971 207.456 21.5307 207.682 21.2821C208.864 20.0074 210.441 19.3695 212.411 19.3695ZM211.021 28.6608C211.111 28.707 211.204 28.7517 211.301 28.792C211.878 29.0331 212.301 29.0532 212.411 29.0532C212.476 29.0532 212.849 29.0405 213.381 28.8251C213.942 28.5983 214.43 28.2475 214.783 27.8664L213.374 26.559L211.021 28.6608ZM210.941 24.3047C210.513 24.5344 210.151 24.8247 209.876 25.1239C209.811 25.1979 209.75 25.2732 209.693 25.3497C209.606 25.6159 209.543 25.9683 209.543 26.4621C209.543 26.9242 209.6 27.2723 209.684 27.5496C209.752 27.6449 209.826 27.7402 209.908 27.8333C210.178 28.1205 210.53 28.3972 210.941 28.6182L213.269 26.4621L210.941 24.3047ZM213.431 26.5082L214.847 27.7955C214.932 27.7023 215.008 27.6072 215.077 27.5129C215.155 27.2417 215.208 26.9042 215.208 26.4621C215.208 25.9938 215.149 25.6533 215.069 25.3923C215.018 25.3255 214.965 25.2581 214.906 25.1925L213.431 26.5082ZM212.411 23.8709C212.301 23.8709 211.878 23.8922 211.301 24.1333C211.191 24.1791 211.085 24.2288 210.983 24.2823L213.323 26.4101L214.783 25.0577C214.43 24.6766 213.942 24.3258 213.381 24.0991C212.981 23.937 212.67 23.8892 212.514 23.8756L212.411 23.8709Z"/>
<path fill-rule="evenodd" clip-rule="evenodd" d="M273.59 19.3695C275.536 19.3695 277.09 20.0188 278.248 21.3164C278.998 22.1243 279.507 23.1098 279.782 24.2716C279.828 24.4669 279.867 24.667 279.9 24.8722C279.908 24.9211 279.915 24.9704 279.922 25.0199C279.932 25.0899 279.941 25.1604 279.949 25.2315C279.954 25.2708 279.959 25.3101 279.964 25.3497C279.971 25.4193 279.977 25.4895 279.983 25.5601C279.987 25.6177 279.993 25.6756 279.997 25.7339C280.013 25.9708 280.022 26.2134 280.022 26.4621C280.022 26.7072 280.012 26.9467 279.997 27.1808C279.993 27.2307 279.99 27.2803 279.986 27.3297C279.98 27.4004 279.973 27.4705 279.966 27.5401C279.961 27.5873 279.955 27.6341 279.949 27.6808C279.944 27.7267 279.939 27.7725 279.933 27.8179C279.922 27.8958 279.911 27.973 279.899 28.0496C279.894 28.0801 279.887 28.1103 279.882 28.1406C279.645 29.5139 279.102 30.67 278.248 31.6077C277.09 32.9054 275.537 33.5546 273.59 33.5546C271.62 33.5545 270.043 32.9167 268.861 31.642C268.59 31.3378 268.351 31.0098 268.143 30.6585L268.087 30.5616C268.069 30.5303 268.052 30.4986 268.035 30.467C268.016 30.4311 267.995 30.3957 267.976 30.3594C267.961 30.3302 267.947 30.3002 267.932 30.2708C267.882 30.1696 267.833 30.0669 267.787 29.9622C267.772 29.9289 267.757 29.8955 267.743 29.8618C267.721 29.8099 267.701 29.7572 267.681 29.7045C267.673 29.6856 267.665 29.6668 267.658 29.6478C267.545 29.3503 267.449 29.0395 267.372 28.7151C267.368 28.6967 267.363 28.6781 267.359 28.6596C267.324 28.5094 267.293 28.3567 267.266 28.2009C267.259 28.1622 267.254 28.123 267.248 28.0839C267.227 27.9538 267.208 27.8219 267.192 27.6879C267.187 27.6424 267.183 27.5967 267.178 27.5508C267.163 27.3953 267.15 27.2374 267.142 27.0768C267.14 27.0449 267.138 27.013 267.137 26.981C267.135 26.9413 267.132 26.9016 267.131 26.8616L267.124 26.4621C267.124 26.2812 267.129 26.1036 267.137 25.9289C267.139 25.8806 267.142 25.8326 267.145 25.7847C267.166 25.4367 267.202 25.1015 267.255 24.7788C267.26 24.7483 267.265 24.718 267.27 24.6877C267.327 24.3657 267.398 24.0563 267.487 23.7598C267.496 23.7284 267.506 23.6975 267.516 23.6664C267.559 23.5294 267.604 23.3948 267.655 23.2633C267.692 23.1653 267.731 23.0687 267.773 22.9737C267.795 22.9234 267.818 22.8742 267.841 22.8248C267.867 22.7706 267.893 22.7171 267.919 22.664C267.931 22.64 267.943 22.6157 267.955 22.5919C267.997 22.5095 268.041 22.4283 268.087 22.3484C268.308 21.9635 268.565 21.6079 268.861 21.2821C270.043 20.0075 271.62 19.3696 273.59 19.3695ZM272.201 28.6596C272.292 28.7059 272.385 28.7517 272.481 28.792C273.057 29.0328 273.48 29.0532 273.59 29.0532C273.654 29.0532 274.028 29.0409 274.561 28.8251C275.122 28.5983 275.609 28.2474 275.962 27.8664L274.553 26.559L272.201 28.6596ZM272.122 24.3047C271.692 24.5355 271.328 24.8279 271.053 25.1287C270.989 25.2014 270.928 25.2746 270.872 25.3497C270.785 25.6159 270.723 25.9684 270.723 26.4621C270.723 26.9255 270.78 27.2742 270.864 27.552C270.928 27.6416 270.999 27.7302 271.076 27.8179C271.348 28.1103 271.703 28.3935 272.122 28.6182L274.448 26.4621L272.122 24.3047ZM274.611 26.5082L276.027 27.7955C276.112 27.7021 276.188 27.6063 276.258 27.5118C276.335 27.2407 276.388 26.9035 276.388 26.4621C276.388 25.993 276.329 25.6523 276.248 25.3911C276.198 25.3247 276.143 25.2578 276.085 25.1925L274.611 26.5082ZM273.59 23.8709C273.48 23.871 273.057 23.8924 272.481 24.1333C272.372 24.1791 272.265 24.2288 272.163 24.2823L274.502 26.4101L275.962 25.0577C275.609 24.6768 275.122 24.3258 274.561 24.0991C274.161 23.9372 273.851 23.8893 273.694 23.8756L273.59 23.8709Z"/>
<path d="M122.293 19.2655C123.382 19.2655 124.194 19.5327 124.727 20.0658C125.283 20.5987 125.561 21.3282 125.561 22.255C125.561 23.2284 125.283 23.9821 124.727 24.5152C124.194 25.0482 123.382 25.3154 122.293 25.3154H118.608V19.2655H122.293Z"/>
<path d="M349.725 29.8346H343.71L346.7 20.8991L349.725 29.8346Z"/>
<path fill-rule="evenodd" clip-rule="evenodd" d="M448.87 4.29785C453.087 4.29785 457.529 5.32727 461.301 8.27322C461.316 8.28438 461.331 8.29631 461.345 8.30751C461.353 8.31359 461.361 8.31914 461.369 8.32524C465.45 11.5186 467.445 16.034 467.686 20.7939C467.764 22.3532 467.461 23.8898 466.829 25.2835C467.684 27.355 468.011 29.487 468.011 31.4682C468.011 34.5781 467.189 37.603 465.507 40.3126L465.508 40.3138C465.498 40.3305 465.487 40.3469 465.476 40.3635C465.462 40.3871 465.448 40.4119 465.433 40.4356L465.43 40.4344C463.676 43.2445 461.233 45.2749 458.521 46.6309C455.57 48.1064 452.438 48.6617 449.427 48.6617C446.592 48.6617 443.715 48.1996 440.957 47.0695C439.801 46.5956 438.697 46.0089 437.659 45.3105C436.989 45.7521 436.289 46.1572 435.554 46.5162L435.555 46.5174C435.546 46.5218 435.537 46.5249 435.528 46.5292C435.52 46.5332 435.512 46.5383 435.504 46.5422L435.503 46.5411C432.492 48.0137 429.284 48.6617 426.062 48.6617C422.868 48.6617 419.667 48.0384 416.657 46.5789C416.604 46.5531 416.55 46.5265 416.498 46.4997C413.277 44.8646 410.727 42.4013 408.94 39.3457C408.937 39.3394 408.933 39.333 408.93 39.3268C408.624 44.3991 404.415 48.4182 399.266 48.4182H393.321C390.242 48.4182 387.501 46.9795 385.728 44.7396C381.878 47.4229 377.472 48.5919 372.959 48.592C369.952 48.592 366.991 48.061 364.188 46.9099C362.658 47.879 360.868 48.4182 359.007 48.4182H352.714C350.475 48.4182 348.371 47.6473 346.699 46.3212C345.026 47.6466 342.924 48.4182 340.685 48.4182H334.462C333.09 48.4182 331.755 48.1269 330.536 47.586C329.336 48.1189 328.009 48.4182 326.611 48.4182H320.667C318.949 48.4182 317.337 47.9685 315.938 47.1841C314.54 47.9682 312.928 48.4182 311.211 48.4182H305.266C303.489 48.4182 301.778 47.9275 300.298 47.0423C298.844 47.9148 297.143 48.4182 295.324 48.4182H289.379C287.161 48.4182 285.118 47.6705 283.485 46.4158C280.375 47.9322 277.03 48.6617 273.59 48.6617C269.727 48.6617 265.992 47.7455 262.569 45.8484C262.555 45.8404 262.54 45.8328 262.525 45.8247C261.707 45.3657 260.928 44.8597 260.187 44.3116C260.137 44.3494 260.089 44.3889 260.038 44.4263C260.019 44.4403 260.001 44.455 259.982 44.4689C256.043 47.3455 251.493 48.592 246.83 48.592C242.99 48.5919 239.222 47.73 235.765 45.8094C235.724 45.7863 235.682 45.7621 235.641 45.7384C233.304 44.3946 231.292 42.6685 229.647 40.607C227.937 42.7105 225.858 44.4689 223.441 45.8247C220.016 47.746 216.273 48.6617 212.411 48.6617C208.548 48.6617 204.812 47.7457 201.389 45.8484C201.374 45.8403 201.36 45.8328 201.345 45.8247C200.605 45.4095 199.898 44.9547 199.221 44.4665C197.458 46.8622 194.62 48.4182 191.418 48.4182H185.473C182.027 48.4182 179.003 46.6164 177.287 43.905C175.571 46.6163 172.547 48.418 169.101 48.4182H154.151C153.49 48.4182 152.845 48.3517 152.221 48.2255C151.597 48.3516 150.952 48.4182 150.292 48.4182H135.342C134.74 48.4182 134.152 48.3602 133.581 48.2551C133.005 48.3615 132.416 48.4182 131.819 48.4182H125.11C123.984 48.4182 122.887 48.2228 121.86 47.8567C120.844 48.2192 119.749 48.4182 118.608 48.4182H112.663C110.145 48.4182 107.851 47.4562 106.129 45.8803C104.407 47.4559 102.114 48.4182 99.5954 48.4182H93.6507C91.778 48.4182 90.0305 47.8848 88.5488 46.9643C87.0672 47.8845 85.3204 48.4181 83.4481 48.4182H69.7145C69.0546 48.4182 68.4106 48.3502 67.7877 48.2244C67.1631 48.3509 66.5169 48.4182 65.855 48.4182H50.9063C50.2452 48.4182 49.5997 48.3517 48.9759 48.2255C48.3525 48.3516 47.7074 48.4182 47.0467 48.4182H32.0968C29.5786 48.4181 27.2858 47.4559 25.5634 45.8803C23.8411 47.4559 21.5482 48.4181 19.03 48.4182H13.0841C7.73617 48.4179 3.40039 44.0825 3.40039 38.7345V14.3291C3.40039 8.9811 7.73617 4.64567 13.0841 4.64539H28.9726C29.5042 4.64539 30.0257 4.68944 30.5341 4.77187C31.0429 4.6893 31.5648 4.64541 32.0968 4.64539H47.0467C47.7073 4.6454 48.3525 4.71086 48.9759 4.83689C49.5997 4.71072 50.2453 4.64539 50.9063 4.64539H65.855C66.5168 4.64539 67.1632 4.71158 67.7877 4.83807C68.4105 4.71229 69.0547 4.64542 69.7145 4.64539H75.6605C79.7409 4.64558 83.2293 7.17069 84.655 10.7426C86.0805 7.17036 89.5699 4.64539 93.6507 4.64539H109.538C110.07 4.64539 110.592 4.68932 111.101 4.77187C111.609 4.68932 112.131 4.64539 112.663 4.64539H122.641C125.165 4.64544 127.815 5.01444 130.376 6.01425C131.828 5.14513 133.527 4.64549 135.342 4.64539H150.292C150.952 4.64539 151.598 4.71087 152.221 4.83689C152.845 4.71072 153.49 4.64539 154.151 4.64539H169.101C170.911 4.64548 172.604 5.14304 174.053 6.00716C175.502 5.14272 177.196 4.64549 179.006 4.64539H197.884C199.838 4.64539 201.656 5.22569 203.177 6.22111C206.098 4.92683 209.21 4.29785 212.411 4.29785C216.256 4.29791 219.983 5.2058 223.396 7.11005C223.41 7.11812 223.426 7.12676 223.441 7.13487C225.862 8.48388 227.952 10.2381 229.663 12.3514C231.316 10.2793 233.347 8.54461 235.72 7.20934C239.182 5.2519 242.966 4.36768 246.83 4.36759C251.526 4.36759 256.096 5.64426 260.038 8.56757C260.081 8.59891 260.122 8.63172 260.164 8.66331C260.911 8.10881 261.699 7.59862 262.525 7.13487L262.569 7.11005C265.992 5.21306 269.727 4.29791 273.59 4.29785C277.06 4.29785 280.433 5.03917 283.567 6.58283C285.185 5.36624 287.198 4.64539 289.379 4.64539H295.324L295.629 4.65011C297.296 4.70256 298.896 5.18621 300.291 6.02016C301.745 5.14747 303.447 4.64543 305.266 4.64539H311.211C311.719 4.64539 312.218 4.68346 312.705 4.75887C313.192 4.68344 313.691 4.6454 314.199 4.64539H333.077C334.952 4.64539 336.701 5.17948 338.184 6.10172C339.684 5.17001 341.444 4.64539 343.293 4.64539H350.176L350.557 4.65248C353.909 4.78355 356.92 6.63947 358.564 9.49433C359.572 8.63934 360.667 7.87402 361.848 7.20934C365.31 5.25171 369.095 4.36759 372.959 4.36759C376 4.36763 378.988 4.90405 381.788 6.07572C383.262 5.16864 384.998 4.64539 386.855 4.64539H405.733C407.615 4.64548 409.37 5.1837 410.857 6.11236C412.343 5.18372 414.098 4.64539 415.98 4.64539H421.925C423.46 4.64539 424.911 5.00377 426.2 5.63953C427.49 5.00345 428.942 4.6454 430.477 4.64539H436.422C438.043 4.64539 439.57 5.04523 440.912 5.74946C443.499 4.7155 446.221 4.29791 448.87 4.29785ZM212.411 13.9815C210.116 13.9815 208.007 14.5148 206.083 15.5809C204.183 16.6471 202.664 18.1298 201.528 20.0303C200.416 21.9308 199.859 24.0748 199.859 26.4621C199.859 27.4135 199.95 28.3278 200.126 29.2057C200.184 29.4925 200.251 29.7755 200.327 30.0544C200.429 30.4255 200.548 30.7895 200.683 31.1467C200.802 31.4607 200.934 31.769 201.079 32.0723C201.218 32.3622 201.366 32.648 201.528 32.9281C202.664 34.8286 204.182 36.3125 206.083 37.3787C208.007 38.4448 210.116 38.978 212.411 38.978C214.705 38.978 216.803 38.4448 218.703 37.3787C220.603 36.3125 222.11 34.8286 223.222 32.9281C224.253 31.1448 224.805 29.1626 224.881 26.981C224.887 26.8093 224.891 26.6363 224.891 26.4621C224.891 26.2934 224.887 26.1259 224.882 25.9597C224.809 23.7731 224.256 21.7965 223.222 20.0303C222.133 18.13 220.626 16.647 218.703 15.5809C216.803 14.5148 214.705 13.9816 212.411 13.9815ZM273.59 13.9815C271.295 13.9816 269.187 14.5149 267.263 15.5809C266.716 15.8881 266.2 16.2305 265.716 16.607C265.439 16.8222 265.173 17.0488 264.917 17.2867C264.066 18.0765 263.33 18.9906 262.709 20.0303C261.596 21.9308 261.04 24.0748 261.04 26.4621C261.04 28.8492 261.596 31.0045 262.709 32.9281C262.954 33.3387 263.218 33.729 263.499 34.1007C263.738 34.4162 263.989 34.7177 264.254 35.005C264.445 35.2135 264.644 35.4142 264.849 35.6079C265.128 35.8703 265.418 36.1197 265.721 36.355C266.204 36.7303 266.717 37.0723 267.263 37.3787C269.187 38.4446 271.296 38.978 273.59 38.978C275.809 38.978 277.844 38.4779 279.695 37.4803C279.758 37.4467 279.821 37.4134 279.883 37.3787C281.784 36.3125 283.29 34.8285 284.402 32.9281C284.483 32.7895 284.56 32.6495 284.634 32.5085C284.719 32.3467 284.8 32.1828 284.878 32.0179C284.904 31.9624 284.93 31.9071 284.956 31.8512C285.042 31.6611 285.122 31.4686 285.198 31.2744C285.515 30.4655 285.745 29.6209 285.889 28.74C285.987 28.1452 286.046 27.5342 286.064 26.9065C286.069 26.7593 286.072 26.6111 286.072 26.4621C286.072 24.0748 285.515 21.9308 284.402 20.0303C283.313 18.13 281.807 16.647 279.883 15.5809C277.983 14.5148 275.884 13.9815 273.59 13.9815ZM415.98 28.896C415.98 31.0746 416.419 32.9293 417.3 34.4589C418.181 35.9653 419.375 37.1009 420.882 37.8657C422.412 38.6073 424.138 38.978 426.062 38.978C427.986 38.978 429.724 38.5951 431.277 37.8302C431.336 37.8015 431.394 37.7701 431.452 37.7404C432.661 37.1229 433.673 36.2812 434.488 35.2143C434.584 35.0882 434.677 34.9589 434.768 34.8265C434.858 34.695 434.947 34.5612 435.032 34.4234C435.959 32.917 436.422 31.0745 436.422 28.896V14.3291H430.477V28.9303C430.477 30.3904 430.106 31.5148 429.365 32.3028C428.623 33.0908 427.557 33.4849 426.166 33.4849C424.775 33.4848 423.721 33.0907 423.003 32.3028C422.284 31.5147 421.925 30.3904 421.925 28.9303V14.3291H415.98V28.896ZM448.87 13.9815C446.228 13.9816 444.085 14.6307 442.44 15.9284C440.794 17.2032 439.97 18.9765 439.97 21.2479C439.97 22.7771 440.33 24.0166 441.048 24.9667C441.767 25.917 442.625 26.6361 443.622 27.1229C443.976 27.2957 444.366 27.4678 444.793 27.6406C445.198 27.804 445.635 27.9674 446.105 28.1312C446.536 28.2813 446.994 28.4327 447.48 28.5827C448.57 28.9072 449.404 29.1966 449.984 29.4516C450.586 29.7065 451.084 30.0317 451.478 30.4256C451.895 30.8196 452.105 31.3184 452.105 31.921C452.104 32.6392 451.849 33.2073 451.34 33.6244C450.83 34.0184 450.134 34.2154 449.253 34.2154C448.396 34.2154 447.7 33.9827 447.167 33.5191C446.634 33.0325 446.321 32.3375 446.228 31.4339H439.902C439.948 33.0329 440.388 34.4002 441.222 35.5358C441.415 35.7917 441.624 36.0327 441.845 36.2604C442.159 36.5829 442.501 36.8776 442.871 37.1434C443.4 37.5228 443.985 37.8453 444.629 38.1092C446.043 38.6886 447.642 38.978 449.427 38.978C451.258 38.978 452.846 38.6418 454.19 37.9697C455.534 37.2976 456.554 36.3936 457.249 35.258C457.967 34.1223 458.327 32.8589 458.327 31.4682C458.327 30.0082 457.967 28.8147 457.249 27.8877C456.531 26.9607 455.673 26.2537 454.677 25.767C453.703 25.2803 452.429 24.7704 450.853 24.2374C449.277 23.7275 448.118 23.2521 447.376 22.8118C446.634 22.3714 446.264 21.7569 446.264 20.9689C446.264 20.2505 446.484 19.706 446.925 19.3352C447.365 18.9414 447.944 18.7442 448.662 18.7442C449.497 18.7442 450.18 18.9759 450.713 19.4393C451.246 19.8796 451.537 20.4941 451.583 21.2821H458.014C457.898 18.9876 457.017 17.2032 455.372 15.9284C453.726 14.6305 451.559 13.9815 448.87 13.9815ZM246.83 14.0513C244.466 14.0514 242.345 14.5834 240.468 15.6495C238.613 16.6924 237.165 18.1653 236.122 20.0658C235.158 21.8024 234.64 23.767 234.568 25.9597C234.562 26.1371 234.558 26.3159 234.558 26.4963C234.558 26.6637 234.562 26.8303 234.567 26.9952C234.634 29.2036 235.152 31.1812 236.122 32.9281C237.165 34.8054 238.613 36.2782 240.468 37.3444C242.345 38.3873 244.466 38.9082 246.83 38.9083C249.539 38.9083 251.883 38.2484 253.863 36.9307C254 36.8394 254.136 36.7457 254.27 36.6481C256.332 35.1184 257.712 33.0324 258.407 30.3902H251.871C251.385 31.41 250.689 32.187 249.785 32.7201C248.904 33.2529 247.896 33.5191 246.761 33.5191C244.93 33.5191 243.446 32.8824 242.311 31.6077C241.175 30.333 240.607 28.6287 240.607 26.4963C240.607 24.3643 241.175 22.6608 242.311 21.3862C243.446 20.1114 244.93 19.4747 246.761 19.4747C247.896 19.4748 248.904 19.7409 249.785 20.2738C250.689 20.8069 251.385 21.5839 251.871 22.6037H258.407C257.712 19.9615 256.332 17.8754 254.27 16.3457C254.134 16.2454 253.997 16.1487 253.858 16.0549C251.88 14.7193 249.537 14.0513 246.83 14.0513ZM372.959 14.0513C370.595 14.0513 368.474 14.5835 366.597 15.6495C364.743 16.6925 363.293 18.1652 362.25 20.0658C361.208 21.9428 360.686 24.0864 360.686 26.4963C360.686 26.8537 360.699 27.2051 360.722 27.5508C360.737 27.7859 360.757 28.0185 360.783 28.2482C360.798 28.3771 360.815 28.5052 360.833 28.6324C361.015 29.9174 361.368 31.1152 361.891 32.2259C362.003 32.4639 362.122 32.6981 362.25 32.9281C363.293 34.8055 364.743 36.2782 366.597 37.3444C366.777 37.4443 366.96 37.5377 367.144 37.6281C367.639 37.8702 368.15 38.0787 368.677 38.2522C370.003 38.6885 371.43 38.9083 372.959 38.9083C375.856 38.9082 378.336 38.1546 380.399 36.6481C381.796 35.612 382.878 34.3198 383.647 32.7732C384.014 32.0367 384.311 31.2425 384.535 30.3902H377.999C377.513 31.4098 376.818 32.187 375.914 32.7201C375.033 33.2531 374.025 33.5191 372.889 33.5191C371.058 33.5191 369.574 32.8825 368.438 31.6077C367.303 30.333 366.735 28.6286 366.735 26.4963C366.735 24.3644 367.303 22.6608 368.438 21.3862C369.574 20.1114 371.058 19.4747 372.889 19.4747C374.025 19.4747 375.033 19.7408 375.914 20.2738C376.667 20.7177 377.271 21.3328 377.734 22.1143C377.756 22.1504 377.78 22.1852 377.801 22.2219C377.87 22.3452 377.937 22.4724 377.999 22.6037H384.535C383.84 19.9617 382.461 17.8754 380.399 16.3457C379.426 15.6239 378.358 15.0744 377.199 14.6932C375.902 14.2666 374.489 14.0513 372.959 14.0513ZM13.0841 38.7345H19.03V28.8605H26.4689V24.2374H19.03V19.0917H28.9726V14.3291H13.0841V38.7345ZM32.0968 38.7345H47.0467V33.9719H38.0428V28.6182H46.0041V24.0281H38.0428V19.0917H47.0467V14.3291H32.0968V38.7345ZM50.9063 38.7345H65.855V33.9719H56.851V28.6182H64.8124V24.0281H56.851V19.0917H65.855V14.3291H50.9063V38.7345ZM69.7145 38.7345H83.4481V34.1457H75.6605V14.3291H69.7145V38.7345ZM93.6507 38.7345H99.5954V28.8605H107.036V24.2374H99.5954V19.0917H109.538V14.3291H93.6507V38.7345ZM112.663 38.7345H118.608V29.5213H120.034L125.11 38.7345H131.819L126.187 29.0698C127.971 28.5367 129.316 27.6327 130.22 26.358C131.147 25.0834 131.61 23.6349 131.61 22.0127C131.61 20.5759 131.275 19.2776 130.603 18.1189C129.931 16.9368 128.91 16.0095 127.542 15.3374C126.982 15.0572 126.371 14.8353 125.71 14.6719C124.786 14.4434 123.763 14.3291 122.641 14.3291H112.663V38.7345ZM135.342 38.7345H150.292V33.9719H141.288V28.6182H149.249V24.0281H141.288V19.0917H150.292V14.3291H135.342V38.7345ZM154.151 38.7345H169.101V33.9719H160.096V28.6182H168.057V24.0281H160.096V19.0917H169.101V14.3291H154.151V38.7345ZM179.006 19.0917H185.473V38.7345H191.418V19.0917H197.884V14.3291H179.006V19.0917ZM289.379 38.7345H295.324V23.6806L305.266 38.7345H311.211V14.3291H305.266V29.4516L295.324 14.3291H289.379V38.7345ZM314.199 19.0917H320.667V38.7345H326.611V19.0917H333.077V14.3291H314.199V19.0917ZM334.462 38.7345H340.685L342.145 34.4234H351.254L352.714 38.7345H359.007L350.176 14.3291H343.293L334.462 38.7345ZM386.855 19.0917H393.321V38.7345H399.266V19.0917H405.733V14.3291H386.855V19.0917Z"/>
</mask>
<path fill-rule="evenodd" clip-rule="evenodd" d="M212.411 19.3695C214.357 19.3696 215.911 20.0186 217.069 21.3164C218.251 22.5912 218.842 24.3066 218.842 26.4621L218.835 26.8569C218.766 28.8071 218.177 30.3909 217.069 31.6077C215.911 32.9056 214.357 33.5545 212.411 33.5546C210.441 33.5546 208.864 32.9167 207.682 31.642C206.524 30.3441 205.943 28.6175 205.943 26.4621C205.943 25.6451 206.025 24.8917 206.188 24.2019L206.248 23.9679C206.252 23.9556 206.256 23.9435 206.259 23.9312C206.275 23.8736 206.292 23.8165 206.309 23.7598C206.32 23.7206 206.332 23.6815 206.344 23.6428C206.415 23.4214 206.495 23.2077 206.584 23.0009C206.595 22.9763 206.603 22.9508 206.614 22.9264C206.636 22.8772 206.66 22.8294 206.683 22.781C206.706 22.7331 206.728 22.6851 206.752 22.638C206.773 22.5962 206.795 22.555 206.817 22.5139C206.845 22.4605 206.875 22.4078 206.904 22.3555C206.921 22.3274 206.937 22.2993 206.953 22.2715C206.991 22.2068 207.031 22.143 207.071 22.0801C207.253 21.7971 207.456 21.5307 207.682 21.2821C208.864 20.0074 210.441 19.3695 212.411 19.3695ZM211.021 28.6608C211.111 28.707 211.204 28.7517 211.301 28.792C211.878 29.0331 212.301 29.0532 212.411 29.0532C212.476 29.0532 212.849 29.0405 213.381 28.8251C213.942 28.5983 214.43 28.2475 214.783 27.8664L213.374 26.559L211.021 28.6608ZM210.941 24.3047C210.513 24.5344 210.151 24.8247 209.876 25.1239C209.811 25.1979 209.75 25.2732 209.693 25.3497C209.606 25.6159 209.543 25.9683 209.543 26.4621C209.543 26.9242 209.6 27.2723 209.684 27.5496C209.752 27.6449 209.826 27.7402 209.908 27.8333C210.178 28.1205 210.53 28.3972 210.941 28.6182L213.269 26.4621L210.941 24.3047ZM213.431 26.5082L214.847 27.7955C214.932 27.7023 215.008 27.6072 215.077 27.5129C215.155 27.2417 215.208 26.9042 215.208 26.4621C215.208 25.9938 215.149 25.6533 215.069 25.3923C215.018 25.3255 214.965 25.2581 214.906 25.1925L213.431 26.5082ZM212.411 23.8709C212.301 23.8709 211.878 23.8922 211.301 24.1333C211.191 24.1791 211.085 24.2288 210.983 24.2823L213.323 26.4101L214.783 25.0577C214.43 24.6766 213.942 24.3258 213.381 24.0991C212.981 23.937 212.67 23.8892 212.514 23.8756L212.411 23.8709Z" fill="#75B7C2"/>
<path fill-rule="evenodd" clip-rule="evenodd" d="M273.59 19.3695C275.536 19.3695 277.09 20.0188 278.248 21.3164C278.998 22.1243 279.507 23.1098 279.782 24.2716C279.828 24.4669 279.867 24.667 279.9 24.8722C279.908 24.9211 279.915 24.9704 279.922 25.0199C279.932 25.0899 279.941 25.1604 279.949 25.2315C279.954 25.2708 279.959 25.3101 279.964 25.3497C279.971 25.4193 279.977 25.4895 279.983 25.5601C279.987 25.6177 279.993 25.6756 279.997 25.7339C280.013 25.9708 280.022 26.2134 280.022 26.4621C280.022 26.7072 280.012 26.9467 279.997 27.1808C279.993 27.2307 279.99 27.2803 279.986 27.3297C279.98 27.4004 279.973 27.4705 279.966 27.5401C279.961 27.5873 279.955 27.6341 279.949 27.6808C279.944 27.7267 279.939 27.7725 279.933 27.8179C279.922 27.8958 279.911 27.973 279.899 28.0496C279.894 28.0801 279.887 28.1103 279.882 28.1406C279.645 29.5139 279.102 30.67 278.248 31.6077C277.09 32.9054 275.537 33.5546 273.59 33.5546C271.62 33.5545 270.043 32.9167 268.861 31.642C268.59 31.3378 268.351 31.0098 268.143 30.6585L268.087 30.5616C268.069 30.5303 268.052 30.4986 268.035 30.467C268.016 30.4311 267.995 30.3957 267.976 30.3594C267.961 30.3302 267.947 30.3002 267.932 30.2708C267.882 30.1696 267.833 30.0669 267.787 29.9622C267.772 29.9289 267.757 29.8955 267.743 29.8618C267.721 29.8099 267.701 29.7572 267.681 29.7045C267.673 29.6856 267.665 29.6668 267.658 29.6478C267.545 29.3503 267.449 29.0395 267.372 28.7151C267.368 28.6967 267.363 28.6781 267.359 28.6596C267.324 28.5094 267.293 28.3567 267.266 28.2009C267.259 28.1622 267.254 28.123 267.248 28.0839C267.227 27.9538 267.208 27.8219 267.192 27.6879C267.187 27.6424 267.183 27.5967 267.178 27.5508C267.163 27.3953 267.15 27.2374 267.142 27.0768C267.14 27.0449 267.138 27.013 267.137 26.981C267.135 26.9413 267.132 26.9016 267.131 26.8616L267.124 26.4621C267.124 26.2812 267.129 26.1036 267.137 25.9289C267.139 25.8806 267.142 25.8326 267.145 25.7847C267.166 25.4367 267.202 25.1015 267.255 24.7788C267.26 24.7483 267.265 24.718 267.27 24.6877C267.327 24.3657 267.398 24.0563 267.487 23.7598C267.496 23.7284 267.506 23.6975 267.516 23.6664C267.559 23.5294 267.604 23.3948 267.655 23.2633C267.692 23.1653 267.731 23.0687 267.773 22.9737C267.795 22.9234 267.818 22.8742 267.841 22.8248C267.867 22.7706 267.893 22.7171 267.919 22.664C267.931 22.64 267.943 22.6157 267.955 22.5919C267.997 22.5095 268.041 22.4283 268.087 22.3484C268.308 21.9635 268.565 21.6079 268.861 21.2821C270.043 20.0075 271.62 19.3696 273.59 19.3695ZM272.201 28.6596C272.292 28.7059 272.385 28.7517 272.481 28.792C273.057 29.0328 273.48 29.0532 273.59 29.0532C273.654 29.0532 274.028 29.0409 274.561 28.8251C275.122 28.5983 275.609 28.2474 275.962 27.8664L274.553 26.559L272.201 28.6596ZM272.122 24.3047C271.692 24.5355 271.328 24.8279 271.053 25.1287C270.989 25.2014 270.928 25.2746 270.872 25.3497C270.785 25.6159 270.723 25.9684 270.723 26.4621C270.723 26.9255 270.78 27.2742 270.864 27.552C270.928 27.6416 270.999 27.7302 271.076 27.8179C271.348 28.1103 271.703 28.3935 272.122 28.6182L274.448 26.4621L272.122 24.3047ZM274.611 26.5082L276.027 27.7955C276.112 27.7021 276.188 27.6063 276.258 27.5118C276.335 27.2407 276.388 26.9035 276.388 26.4621C276.388 25.993 276.329 25.6523 276.248 25.3911C276.198 25.3247 276.143 25.2578 276.085 25.1925L274.611 26.5082ZM273.59 23.8709C273.48 23.871 273.057 23.8924 272.481 24.1333C272.372 24.1791 272.265 24.2288 272.163 24.2823L274.502 26.4101L275.962 25.0577C275.609 24.6768 275.122 24.3258 274.561 24.0991C274.161 23.9372 273.851 23.8893 273.694 23.8756L273.59 23.8709Z" fill="#75B7C2"/>
<path d="M122.293 19.2655C123.382 19.2655 124.194 19.5327 124.727 20.0658C125.283 20.5987 125.561 21.3282 125.561 22.255C125.561 23.2284 125.283 23.9821 124.727 24.5152C124.194 25.0482 123.382 25.3154 122.293 25.3154H118.608V19.2655H122.293Z" fill="#75B7C2"/>
<path d="M349.725 29.8346H343.71L346.7 20.8991L349.725 29.8346Z" fill="#75B7C2"/>
<path fill-rule="evenodd" clip-rule="evenodd" d="M448.87 4.29785C453.087 4.29785 457.529 5.32727 461.301 8.27322C461.316 8.28438 461.331 8.29631 461.345 8.30751C461.353 8.31359 461.361 8.31914 461.369 8.32524C465.45 11.5186 467.445 16.034 467.686 20.7939C467.764 22.3532 467.461 23.8898 466.829 25.2835C467.684 27.355 468.011 29.487 468.011 31.4682C468.011 34.5781 467.189 37.603 465.507 40.3126L465.508 40.3138C465.498 40.3305 465.487 40.3469 465.476 40.3635C465.462 40.3871 465.448 40.4119 465.433 40.4356L465.43 40.4344C463.676 43.2445 461.233 45.2749 458.521 46.6309C455.57 48.1064 452.438 48.6617 449.427 48.6617C446.592 48.6617 443.715 48.1996 440.957 47.0695C439.801 46.5956 438.697 46.0089 437.659 45.3105C436.989 45.7521 436.289 46.1572 435.554 46.5162L435.555 46.5174C435.546 46.5218 435.537 46.5249 435.528 46.5292C435.52 46.5332 435.512 46.5383 435.504 46.5422L435.503 46.5411C432.492 48.0137 429.284 48.6617 426.062 48.6617C422.868 48.6617 419.667 48.0384 416.657 46.5789C416.604 46.5531 416.55 46.5265 416.498 46.4997C413.277 44.8646 410.727 42.4013 408.94 39.3457C408.937 39.3394 408.933 39.333 408.93 39.3268C408.624 44.3991 404.415 48.4182 399.266 48.4182H393.321C390.242 48.4182 387.501 46.9795 385.728 44.7396C381.878 47.4229 377.472 48.5919 372.959 48.592C369.952 48.592 366.991 48.061 364.188 46.9099C362.658 47.879 360.868 48.4182 359.007 48.4182H352.714C350.475 48.4182 348.371 47.6473 346.699 46.3212C345.026 47.6466 342.924 48.4182 340.685 48.4182H334.462C333.09 48.4182 331.755 48.1269 330.536 47.586C329.336 48.1189 328.009 48.4182 326.611 48.4182H320.667C318.949 48.4182 317.337 47.9685 315.938 47.1841C314.54 47.9682 312.928 48.4182 311.211 48.4182H305.266C303.489 48.4182 301.778 47.9275 300.298 47.0423C298.844 47.9148 297.143 48.4182 295.324 48.4182H289.379C287.161 48.4182 285.118 47.6705 283.485 46.4158C280.375 47.9322 277.03 48.6617 273.59 48.6617C269.727 48.6617 265.992 47.7455 262.569 45.8484C262.555 45.8404 262.54 45.8328 262.525 45.8247C261.707 45.3657 260.928 44.8597 260.187 44.3116C260.137 44.3494 260.089 44.3889 260.038 44.4263C260.019 44.4403 260.001 44.455 259.982 44.4689C256.043 47.3455 251.493 48.592 246.83 48.592C242.99 48.5919 239.222 47.73 235.765 45.8094C235.724 45.7863 235.682 45.7621 235.641 45.7384C233.304 44.3946 231.292 42.6685 229.647 40.607C227.937 42.7105 225.858 44.4689 223.441 45.8247C220.016 47.746 216.273 48.6617 212.411 48.6617C208.548 48.6617 204.812 47.7457 201.389 45.8484C201.374 45.8403 201.36 45.8328 201.345 45.8247C200.605 45.4095 199.898 44.9547 199.221 44.4665C197.458 46.8622 194.62 48.4182 191.418 48.4182H185.473C182.027 48.4182 179.003 46.6164 177.287 43.905C175.571 46.6163 172.547 48.418 169.101 48.4182H154.151C153.49 48.4182 152.845 48.3517 152.221 48.2255C151.597 48.3516 150.952 48.4182 150.292 48.4182H135.342C134.74 48.4182 134.152 48.3602 133.581 48.2551C133.005 48.3615 132.416 48.4182 131.819 48.4182H125.11C123.984 48.4182 122.887 48.2228 121.86 47.8567C120.844 48.2192 119.749 48.4182 118.608 48.4182H112.663C110.145 48.4182 107.851 47.4562 106.129 45.8803C104.407 47.4559 102.114 48.4182 99.5954 48.4182H93.6507C91.778 48.4182 90.0305 47.8848 88.5488 46.9643C87.0672 47.8845 85.3204 48.4181 83.4481 48.4182H69.7145C69.0546 48.4182 68.4106 48.3502 67.7877 48.2244C67.1631 48.3509 66.5169 48.4182 65.855 48.4182H50.9063C50.2452 48.4182 49.5997 48.3517 48.9759 48.2255C48.3525 48.3516 47.7074 48.4182 47.0467 48.4182H32.0968C29.5786 48.4181 27.2858 47.4559 25.5634 45.8803C23.8411 47.4559 21.5482 48.4181 19.03 48.4182H13.0841C7.73617 48.4179 3.40039 44.0825 3.40039 38.7345V14.3291C3.40039 8.9811 7.73617 4.64567 13.0841 4.64539H28.9726C29.5042 4.64539 30.0257 4.68944 30.5341 4.77187C31.0429 4.6893 31.5648 4.64541 32.0968 4.64539H47.0467C47.7073 4.6454 48.3525 4.71086 48.9759 4.83689C49.5997 4.71072 50.2453 4.64539 50.9063 4.64539H65.855C66.5168 4.64539 67.1632 4.71158 67.7877 4.83807C68.4105 4.71229 69.0547 4.64542 69.7145 4.64539H75.6605C79.7409 4.64558 83.2293 7.17069 84.655 10.7426C86.0805 7.17036 89.5699 4.64539 93.6507 4.64539H109.538C110.07 4.64539 110.592 4.68932 111.101 4.77187C111.609 4.68932 112.131 4.64539 112.663 4.64539H122.641C125.165 4.64544 127.815 5.01444 130.376 6.01425C131.828 5.14513 133.527 4.64549 135.342 4.64539H150.292C150.952 4.64539 151.598 4.71087 152.221 4.83689C152.845 4.71072 153.49 4.64539 154.151 4.64539H169.101C170.911 4.64548 172.604 5.14304 174.053 6.00716C175.502 5.14272 177.196 4.64549 179.006 4.64539H197.884C199.838 4.64539 201.656 5.22569 203.177 6.22111C206.098 4.92683 209.21 4.29785 212.411 4.29785C216.256 4.29791 219.983 5.2058 223.396 7.11005C223.41 7.11812 223.426 7.12676 223.441 7.13487C225.862 8.48388 227.952 10.2381 229.663 12.3514C231.316 10.2793 233.347 8.54461 235.72 7.20934C239.182 5.2519 242.966 4.36768 246.83 4.36759C251.526 4.36759 256.096 5.64426 260.038 8.56757C260.081 8.59891 260.122 8.63172 260.164 8.66331C260.911 8.10881 261.699 7.59862 262.525 7.13487L262.569 7.11005C265.992 5.21306 269.727 4.29791 273.59 4.29785C277.06 4.29785 280.433 5.03917 283.567 6.58283C285.185 5.36624 287.198 4.64539 289.379 4.64539H295.324L295.629 4.65011C297.296 4.70256 298.896 5.18621 300.291 6.02016C301.745 5.14747 303.447 4.64543 305.266 4.64539H311.211C311.719 4.64539 312.218 4.68346 312.705 4.75887C313.192 4.68344 313.691 4.6454 314.199 4.64539H333.077C334.952 4.64539 336.701 5.17948 338.184 6.10172C339.684 5.17001 341.444 4.64539 343.293 4.64539H350.176L350.557 4.65248C353.909 4.78355 356.92 6.63947 358.564 9.49433C359.572 8.63934 360.667 7.87402 361.848 7.20934C365.31 5.25171 369.095 4.36759 372.959 4.36759C376 4.36763 378.988 4.90405 381.788 6.07572C383.262 5.16864 384.998 4.64539 386.855 4.64539H405.733C407.615 4.64548 409.37 5.1837 410.857 6.11236C412.343 5.18372 414.098 4.64539 415.98 4.64539H421.925C423.46 4.64539 424.911 5.00377 426.2 5.63953C427.49 5.00345 428.942 4.6454 430.477 4.64539H436.422C438.043 4.64539 439.57 5.04523 440.912 5.74946C443.499 4.7155 446.221 4.29791 448.87 4.29785ZM212.411 13.9815C210.116 13.9815 208.007 14.5148 206.083 15.5809C204.183 16.6471 202.664 18.1298 201.528 20.0303C200.416 21.9308 199.859 24.0748 199.859 26.4621C199.859 27.4135 199.95 28.3278 200.126 29.2057C200.184 29.4925 200.251 29.7755 200.327 30.0544C200.429 30.4255 200.548 30.7895 200.683 31.1467C200.802 31.4607 200.934 31.769 201.079 32.0723C201.218 32.3622 201.366 32.648 201.528 32.9281C202.664 34.8286 204.182 36.3125 206.083 37.3787C208.007 38.4448 210.116 38.978 212.411 38.978C214.705 38.978 216.803 38.4448 218.703 37.3787C220.603 36.3125 222.11 34.8286 223.222 32.9281C224.253 31.1448 224.805 29.1626 224.881 26.981C224.887 26.8093 224.891 26.6363 224.891 26.4621C224.891 26.2934 224.887 26.1259 224.882 25.9597C224.809 23.7731 224.256 21.7965 223.222 20.0303C222.133 18.13 220.626 16.647 218.703 15.5809C216.803 14.5148 214.705 13.9816 212.411 13.9815ZM273.59 13.9815C271.295 13.9816 269.187 14.5149 267.263 15.5809C266.716 15.8881 266.2 16.2305 265.716 16.607C265.439 16.8222 265.173 17.0488 264.917 17.2867C264.066 18.0765 263.33 18.9906 262.709 20.0303C261.596 21.9308 261.04 24.0748 261.04 26.4621C261.04 28.8492 261.596 31.0045 262.709 32.9281C262.954 33.3387 263.218 33.729 263.499 34.1007C263.738 34.4162 263.989 34.7177 264.254 35.005C264.445 35.2135 264.644 35.4142 264.849 35.6079C265.128 35.8703 265.418 36.1197 265.721 36.355C266.204 36.7303 266.717 37.0723 267.263 37.3787C269.187 38.4446 271.296 38.978 273.59 38.978C275.809 38.978 277.844 38.4779 279.695 37.4803C279.758 37.4467 279.821 37.4134 279.883 37.3787C281.784 36.3125 283.29 34.8285 284.402 32.9281C284.483 32.7895 284.56 32.6495 284.634 32.5085C284.719 32.3467 284.8 32.1828 284.878 32.0179C284.904 31.9624 284.93 31.9071 284.956 31.8512C285.042 31.6611 285.122 31.4686 285.198 31.2744C285.515 30.4655 285.745 29.6209 285.889 28.74C285.987 28.1452 286.046 27.5342 286.064 26.9065C286.069 26.7593 286.072 26.6111 286.072 26.4621C286.072 24.0748 285.515 21.9308 284.402 20.0303C283.313 18.13 281.807 16.647 279.883 15.5809C277.983 14.5148 275.884 13.9815 273.59 13.9815ZM415.98 28.896C415.98 31.0746 416.419 32.9293 417.3 34.4589C418.181 35.9653 419.375 37.1009 420.882 37.8657C422.412 38.6073 424.138 38.978 426.062 38.978C427.986 38.978 429.724 38.5951 431.277 37.8302C431.336 37.8015 431.394 37.7701 431.452 37.7404C432.661 37.1229 433.673 36.2812 434.488 35.2143C434.584 35.0882 434.677 34.9589 434.768 34.8265C434.858 34.695 434.947 34.5612 435.032 34.4234C435.959 32.917 436.422 31.0745 436.422 28.896V14.3291H430.477V28.9303C430.477 30.3904 430.106 31.5148 429.365 32.3028C428.623 33.0908 427.557 33.4849 426.166 33.4849C424.775 33.4848 423.721 33.0907 423.003 32.3028C422.284 31.5147 421.925 30.3904 421.925 28.9303V14.3291H415.98V28.896ZM448.87 13.9815C446.228 13.9816 444.085 14.6307 442.44 15.9284C440.794 17.2032 439.97 18.9765 439.97 21.2479C439.97 22.7771 440.33 24.0166 441.048 24.9667C441.767 25.917 442.625 26.6361 443.622 27.1229C443.976 27.2957 444.366 27.4678 444.793 27.6406C445.198 27.804 445.635 27.9674 446.105 28.1312C446.536 28.2813 446.994 28.4327 447.48 28.5827C448.57 28.9072 449.404 29.1966 449.984 29.4516C450.586 29.7065 451.084 30.0317 451.478 30.4256C451.895 30.8196 452.105 31.3184 452.105 31.921C452.104 32.6392 451.849 33.2073 451.34 33.6244C450.83 34.0184 450.134 34.2154 449.253 34.2154C448.396 34.2154 447.7 33.9827 447.167 33.5191C446.634 33.0325 446.321 32.3375 446.228 31.4339H439.902C439.948 33.0329 440.388 34.4002 441.222 35.5358C441.415 35.7917 441.624 36.0327 441.845 36.2604C442.159 36.5829 442.501 36.8776 442.871 37.1434C443.4 37.5228 443.985 37.8453 444.629 38.1092C446.043 38.6886 447.642 38.978 449.427 38.978C451.258 38.978 452.846 38.6418 454.19 37.9697C455.534 37.2976 456.554 36.3936 457.249 35.258C457.967 34.1223 458.327 32.8589 458.327 31.4682C458.327 30.0082 457.967 28.8147 457.249 27.8877C456.531 26.9607 455.673 26.2537 454.677 25.767C453.703 25.2803 452.429 24.7704 450.853 24.2374C449.277 23.7275 448.118 23.2521 447.376 22.8118C446.634 22.3714 446.264 21.7569 446.264 20.9689C446.264 20.2505 446.484 19.706 446.925 19.3352C447.365 18.9414 447.944 18.7442 448.662 18.7442C449.497 18.7442 450.18 18.9759 450.713 19.4393C451.246 19.8796 451.537 20.4941 451.583 21.2821H458.014C457.898 18.9876 457.017 17.2032 455.372 15.9284C453.726 14.6305 451.559 13.9815 448.87 13.9815ZM246.83 14.0513C244.466 14.0514 242.345 14.5834 240.468 15.6495C238.613 16.6924 237.165 18.1653 236.122 20.0658C235.158 21.8024 234.64 23.767 234.568 25.9597C234.562 26.1371 234.558 26.3159 234.558 26.4963C234.558 26.6637 234.562 26.8303 234.567 26.9952C234.634 29.2036 235.152 31.1812 236.122 32.9281C237.165 34.8054 238.613 36.2782 240.468 37.3444C242.345 38.3873 244.466 38.9082 246.83 38.9083C249.539 38.9083 251.883 38.2484 253.863 36.9307C254 36.8394 254.136 36.7457 254.27 36.6481C256.332 35.1184 257.712 33.0324 258.407 30.3902H251.871C251.385 31.41 250.689 32.187 249.785 32.7201C248.904 33.2529 247.896 33.5191 246.761 33.5191C244.93 33.5191 243.446 32.8824 242.311 31.6077C241.175 30.333 240.607 28.6287 240.607 26.4963C240.607 24.3643 241.175 22.6608 242.311 21.3862C243.446 20.1114 244.93 19.4747 246.761 19.4747C247.896 19.4748 248.904 19.7409 249.785 20.2738C250.689 20.8069 251.385 21.5839 251.871 22.6037H258.407C257.712 19.9615 256.332 17.8754 254.27 16.3457C254.134 16.2454 253.997 16.1487 253.858 16.0549C251.88 14.7193 249.537 14.0513 246.83 14.0513ZM372.959 14.0513C370.595 14.0513 368.474 14.5835 366.597 15.6495C364.743 16.6925 363.293 18.1652 362.25 20.0658C361.208 21.9428 360.686 24.0864 360.686 26.4963C360.686 26.8537 360.699 27.2051 360.722 27.5508C360.737 27.7859 360.757 28.0185 360.783 28.2482C360.798 28.3771 360.815 28.5052 360.833 28.6324C361.015 29.9174 361.368 31.1152 361.891 32.2259C362.003 32.4639 362.122 32.6981 362.25 32.9281C363.293 34.8055 364.743 36.2782 366.597 37.3444C366.777 37.4443 366.96 37.5377 367.144 37.6281C367.639 37.8702 368.15 38.0787 368.677 38.2522C370.003 38.6885 371.43 38.9083 372.959 38.9083C375.856 38.9082 378.336 38.1546 380.399 36.6481C381.796 35.612 382.878 34.3198 383.647 32.7732C384.014 32.0367 384.311 31.2425 384.535 30.3902H377.999C377.513 31.4098 376.818 32.187 375.914 32.7201C375.033 33.2531 374.025 33.5191 372.889 33.5191C371.058 33.5191 369.574 32.8825 368.438 31.6077C367.303 30.333 366.735 28.6286 366.735 26.4963C366.735 24.3644 367.303 22.6608 368.438 21.3862C369.574 20.1114 371.058 19.4747 372.889 19.4747C374.025 19.4747 375.033 19.7408 375.914 20.2738C376.667 20.7177 377.271 21.3328 377.734 22.1143C377.756 22.1504 377.78 22.1852 377.801 22.2219C377.87 22.3452 377.937 22.4724 377.999 22.6037H384.535C383.84 19.9617 382.461 17.8754 380.399 16.3457C379.426 15.6239 378.358 15.0744 377.199 14.6932C375.902 14.2666 374.489 14.0513 372.959 14.0513ZM13.0841 38.7345H19.03V28.8605H26.4689V24.2374H19.03V19.0917H28.9726V14.3291H13.0841V38.7345ZM32.0968 38.7345H47.0467V33.9719H38.0428V28.6182H46.0041V24.0281H38.0428V19.0917H47.0467V14.3291H32.0968V38.7345ZM50.9063 38.7345H65.855V33.9719H56.851V28.6182H64.8124V24.0281H56.851V19.0917H65.855V14.3291H50.9063V38.7345ZM69.7145 38.7345H83.4481V34.1457H75.6605V14.3291H69.7145V38.7345ZM93.6507 38.7345H99.5954V28.8605H107.036V24.2374H99.5954V19.0917H109.538V14.3291H93.6507V38.7345ZM112.663 38.7345H118.608V29.5213H120.034L125.11 38.7345H131.819L126.187 29.0698C127.971 28.5367 129.316 27.6327 130.22 26.358C131.147 25.0834 131.61 23.6349 131.61 22.0127C131.61 20.5759 131.275 19.2776 130.603 18.1189C129.931 16.9368 128.91 16.0095 127.542 15.3374C126.982 15.0572 126.371 14.8353 125.71 14.6719C124.786 14.4434 123.763 14.3291 122.641 14.3291H112.663V38.7345ZM135.342 38.7345H150.292V33.9719H141.288V28.6182H149.249V24.0281H141.288V19.0917H150.292V14.3291H135.342V38.7345ZM154.151 38.7345H169.101V33.9719H160.096V28.6182H168.057V24.0281H160.096V19.0917H169.101V14.3291H154.151V38.7345ZM179.006 19.0917H185.473V38.7345H191.418V19.0917H197.884V14.3291H179.006V19.0917ZM289.379 38.7345H295.324V23.6806L305.266 38.7345H311.211V14.3291H305.266V29.4516L295.324 14.3291H289.379V38.7345ZM314.199 19.0917H320.667V38.7345H326.611V19.0917H333.077V14.3291H314.199V19.0917ZM334.462 38.7345H340.685L342.145 34.4234H351.254L352.714 38.7345H359.007L350.176 14.3291H343.293L334.462 38.7345ZM386.855 19.0917H393.321V38.7345H399.266V19.0917H405.733V14.3291H386.855V19.0917Z" fill="#75B7C2"/>
<path fill-rule="evenodd" clip-rule="evenodd" d="M212.411 19.3695C214.357 19.3696 215.911 20.0186 217.069 21.3164C218.251 22.5912 218.842 24.3066 218.842 26.4621L218.835 26.8569C218.766 28.8071 218.177 30.3909 217.069 31.6077C215.911 32.9056 214.357 33.5545 212.411 33.5546C210.441 33.5546 208.864 32.9167 207.682 31.642C206.524 30.3441 205.943 28.6175 205.943 26.4621C205.943 25.6451 206.025 24.8917 206.188 24.2019L206.248 23.9679C206.252 23.9556 206.256 23.9435 206.259 23.9312C206.275 23.8736 206.292 23.8165 206.309 23.7598C206.32 23.7206 206.332 23.6815 206.344 23.6428C206.415 23.4214 206.495 23.2077 206.584 23.0009C206.595 22.9763 206.603 22.9508 206.614 22.9264C206.636 22.8772 206.66 22.8294 206.683 22.781C206.706 22.7331 206.728 22.6851 206.752 22.638C206.773 22.5962 206.795 22.555 206.817 22.5139C206.845 22.4605 206.875 22.4078 206.904 22.3555C206.921 22.3274 206.937 22.2993 206.953 22.2715C206.991 22.2068 207.031 22.143 207.071 22.0801C207.253 21.7971 207.456 21.5307 207.682 21.2821C208.864 20.0074 210.441 19.3695 212.411 19.3695ZM211.021 28.6608C211.111 28.707 211.204 28.7517 211.301 28.792C211.878 29.0331 212.301 29.0532 212.411 29.0532C212.476 29.0532 212.849 29.0405 213.381 28.8251C213.942 28.5983 214.43 28.2475 214.783 27.8664L213.374 26.559L211.021 28.6608ZM210.941 24.3047C210.513 24.5344 210.151 24.8247 209.876 25.1239C209.811 25.1979 209.75 25.2732 209.693 25.3497C209.606 25.6159 209.543 25.9683 209.543 26.4621C209.543 26.9242 209.6 27.2723 209.684 27.5496C209.752 27.6449 209.826 27.7402 209.908 27.8333C210.178 28.1205 210.53 28.3972 210.941 28.6182L213.269 26.4621L210.941 24.3047ZM213.431 26.5082L214.847 27.7955C214.932 27.7023 215.008 27.6072 215.077 27.5129C215.155 27.2417 215.208 26.9042 215.208 26.4621C215.208 25.9938 215.149 25.6533 215.069 25.3923C215.018 25.3255 214.965 25.2581 214.906 25.1925L213.431 26.5082ZM212.411 23.8709C212.301 23.8709 211.878 23.8922 211.301 24.1333C211.191 24.1791 211.085 24.2288 210.983 24.2823L213.323 26.4101L214.783 25.0577C214.43 24.6766 213.942 24.3258 213.381 24.0991C212.981 23.937 212.67 23.8892 212.514 23.8756L212.411 23.8709Z" stroke="#D46060" stroke-width="4.84185" stroke-linejoin="round" mask="url(#path-2-outside-1_75_450)"/>
<path fill-rule="evenodd" clip-rule="evenodd" d="M273.59 19.3695C275.536 19.3695 277.09 20.0188 278.248 21.3164C278.998 22.1243 279.507 23.1098 279.782 24.2716C279.828 24.4669 279.867 24.667 279.9 24.8722C279.908 24.9211 279.915 24.9704 279.922 25.0199C279.932 25.0899 279.941 25.1604 279.949 25.2315C279.954 25.2708 279.959 25.3101 279.964 25.3497C279.971 25.4193 279.977 25.4895 279.983 25.5601C279.987 25.6177 279.993 25.6756 279.997 25.7339C280.013 25.9708 280.022 26.2134 280.022 26.4621C280.022 26.7072 280.012 26.9467 279.997 27.1808C279.993 27.2307 279.99 27.2803 279.986 27.3297C279.98 27.4004 279.973 27.4705 279.966 27.5401C279.961 27.5873 279.955 27.6341 279.949 27.6808C279.944 27.7267 279.939 27.7725 279.933 27.8179C279.922 27.8958 279.911 27.973 279.899 28.0496C279.894 28.0801 279.887 28.1103 279.882 28.1406C279.645 29.5139 279.102 30.67 278.248 31.6077C277.09 32.9054 275.537 33.5546 273.59 33.5546C271.62 33.5545 270.043 32.9167 268.861 31.642C268.59 31.3378 268.351 31.0098 268.143 30.6585L268.087 30.5616C268.069 30.5303 268.052 30.4986 268.035 30.467C268.016 30.4311 267.995 30.3957 267.976 30.3594C267.961 30.3302 267.947 30.3002 267.932 30.2708C267.882 30.1696 267.833 30.0669 267.787 29.9622C267.772 29.9289 267.757 29.8955 267.743 29.8618C267.721 29.8099 267.701 29.7572 267.681 29.7045C267.673 29.6856 267.665 29.6668 267.658 29.6478C267.545 29.3503 267.449 29.0395 267.372 28.7151C267.368 28.6967 267.363 28.6781 267.359 28.6596C267.324 28.5094 267.293 28.3567 267.266 28.2009C267.259 28.1622 267.254 28.123 267.248 28.0839C267.227 27.9538 267.208 27.8219 267.192 27.6879C267.187 27.6424 267.183 27.5967 267.178 27.5508C267.163 27.3953 267.15 27.2374 267.142 27.0768C267.14 27.0449 267.138 27.013 267.137 26.981C267.135 26.9413 267.132 26.9016 267.131 26.8616L267.124 26.4621C267.124 26.2812 267.129 26.1036 267.137 25.9289C267.139 25.8806 267.142 25.8326 267.145 25.7847C267.166 25.4367 267.202 25.1015 267.255 24.7788C267.26 24.7483 267.265 24.718 267.27 24.6877C267.327 24.3657 267.398 24.0563 267.487 23.7598C267.496 23.7284 267.506 23.6975 267.516 23.6664C267.559 23.5294 267.604 23.3948 267.655 23.2633C267.692 23.1653 267.731 23.0687 267.773 22.9737C267.795 22.9234 267.818 22.8742 267.841 22.8248C267.867 22.7706 267.893 22.7171 267.919 22.664C267.931 22.64 267.943 22.6157 267.955 22.5919C267.997 22.5095 268.041 22.4283 268.087 22.3484C268.308 21.9635 268.565 21.6079 268.861 21.2821C270.043 20.0075 271.62 19.3696 273.59 19.3695ZM272.201 28.6596C272.292 28.7059 272.385 28.7517 272.481 28.792C273.057 29.0328 273.48 29.0532 273.59 29.0532C273.654 29.0532 274.028 29.0409 274.561 28.8251C275.122 28.5983 275.609 28.2474 275.962 27.8664L274.553 26.559L272.201 28.6596ZM272.122 24.3047C271.692 24.5355 271.328 24.8279 271.053 25.1287C270.989 25.2014 270.928 25.2746 270.872 25.3497C270.785 25.6159 270.723 25.9684 270.723 26.4621C270.723 26.9255 270.78 27.2742 270.864 27.552C270.928 27.6416 270.999 27.7302 271.076 27.8179C271.348 28.1103 271.703 28.3935 272.122 28.6182L274.448 26.4621L272.122 24.3047ZM274.611 26.5082L276.027 27.7955C276.112 27.7021 276.188 27.6063 276.258 27.5118C276.335 27.2407 276.388 26.9035 276.388 26.4621C276.388 25.993 276.329 25.6523 276.248 25.3911C276.198 25.3247 276.143 25.2578 276.085 25.1925L274.611 26.5082ZM273.59 23.8709C273.48 23.871 273.057 23.8924 272.481 24.1333C272.372 24.1791 272.265 24.2288 272.163 24.2823L274.502 26.4101L275.962 25.0577C275.609 24.6768 275.122 24.3258 274.561 24.0991C274.161 23.9372 273.851 23.8893 273.694 23.8756L273.59 23.8709Z" stroke="#D46060" stroke-width="4.84185" stroke-linejoin="round" mask="url(#path-2-outside-1_75_450)"/>
<path d="M122.293 19.2655C123.382 19.2655 124.194 19.5327 124.727 20.0658C125.283 20.5987 125.561 21.3282 125.561 22.255C125.561 23.2284 125.283 23.9821 124.727 24.5152C124.194 25.0482 123.382 25.3154 122.293 25.3154H118.608V19.2655H122.293Z" stroke="#D46060" stroke-width="4.84185" stroke-linejoin="round" mask="url(#path-2-outside-1_75_450)"/>
<path d="M349.725 29.8346H343.71L346.7 20.8991L349.725 29.8346Z" stroke="#D46060" stroke-width="4.84185" stroke-linejoin="round" mask="url(#path-2-outside-1_75_450)"/>
<path fill-rule="evenodd" clip-rule="evenodd" d="M448.87 4.29785C453.087 4.29785 457.529 5.32727 461.301 8.27322C461.316 8.28438 461.331 8.29631 461.345 8.30751C461.353 8.31359 461.361 8.31914 461.369 8.32524C465.45 11.5186 467.445 16.034 467.686 20.7939C467.764 22.3532 467.461 23.8898 466.829 25.2835C467.684 27.355 468.011 29.487 468.011 31.4682C468.011 34.5781 467.189 37.603 465.507 40.3126L465.508 40.3138C465.498 40.3305 465.487 40.3469 465.476 40.3635C465.462 40.3871 465.448 40.4119 465.433 40.4356L465.43 40.4344C463.676 43.2445 461.233 45.2749 458.521 46.6309C455.57 48.1064 452.438 48.6617 449.427 48.6617C446.592 48.6617 443.715 48.1996 440.957 47.0695C439.801 46.5956 438.697 46.0089 437.659 45.3105C436.989 45.7521 436.289 46.1572 435.554 46.5162L435.555 46.5174C435.546 46.5218 435.537 46.5249 435.528 46.5292C435.52 46.5332 435.512 46.5383 435.504 46.5422L435.503 46.5411C432.492 48.0137 429.284 48.6617 426.062 48.6617C422.868 48.6617 419.667 48.0384 416.657 46.5789C416.604 46.5531 416.55 46.5265 416.498 46.4997C413.277 44.8646 410.727 42.4013 408.94 39.3457C408.937 39.3394 408.933 39.333 408.93 39.3268C408.624 44.3991 404.415 48.4182 399.266 48.4182H393.321C390.242 48.4182 387.501 46.9795 385.728 44.7396C381.878 47.4229 377.472 48.5919 372.959 48.592C369.952 48.592 366.991 48.061 364.188 46.9099C362.658 47.879 360.868 48.4182 359.007 48.4182H352.714C350.475 48.4182 348.371 47.6473 346.699 46.3212C345.026 47.6466 342.924 48.4182 340.685 48.4182H334.462C333.09 48.4182 331.755 48.1269 330.536 47.586C329.336 48.1189 328.009 48.4182 326.611 48.4182H320.667C318.949 48.4182 317.337 47.9685 315.938 47.1841C314.54 47.9682 312.928 48.4182 311.211 48.4182H305.266C303.489 48.4182 301.778 47.9275 300.298 47.0423C298.844 47.9148 297.143 48.4182 295.324 48.4182H289.379C287.161 48.4182 285.118 47.6705 283.485 46.4158C280.375 47.9322 277.03 48.6617 273.59 48.6617C269.727 48.6617 265.992 47.7455 262.569 45.8484C262.555 45.8404 262.54 45.8328 262.525 45.8247C261.707 45.3657 260.928 44.8597 260.187 44.3116C260.137 44.3494 260.089 44.3889 260.038 44.4263C260.019 44.4403 260.001 44.455 259.982 44.4689C256.043 47.3455 251.493 48.592 246.83 48.592C242.99 48.5919 239.222 47.73 235.765 45.8094C235.724 45.7863 235.682 45.7621 235.641 45.7384C233.304 44.3946 231.292 42.6685 229.647 40.607C227.937 42.7105 225.858 44.4689 223.441 45.8247C220.016 47.746 216.273 48.6617 212.411 48.6617C208.548 48.6617 204.812 47.7457 201.389 45.8484C201.374 45.8403 201.36 45.8328 201.345 45.8247C200.605 45.4095 199.898 44.9547 199.221 44.4665C197.458 46.8622 194.62 48.4182 191.418 48.4182H185.473C182.027 48.4182 179.003 46.6164 177.287 43.905C175.571 46.6163 172.547 48.418 169.101 48.4182H154.151C153.49 48.4182 152.845 48.3517 152.221 48.2255C151.597 48.3516 150.952 48.4182 150.292 48.4182H135.342C134.74 48.4182 134.152 48.3602 133.581 48.2551C133.005 48.3615 132.416 48.4182 131.819 48.4182H125.11C123.984 48.4182 122.887 48.2228 121.86 47.8567C120.844 48.2192 119.749 48.4182 118.608 48.4182H112.663C110.145 48.4182 107.851 47.4562 106.129 45.8803C104.407 47.4559 102.114 48.4182 99.5954 48.4182H93.6507C91.778 48.4182 90.0305 47.8848 88.5488 46.9643C87.0672 47.8845 85.3204 48.4181 83.4481 48.4182H69.7145C69.0546 48.4182 68.4106 48.3502 67.7877 48.2244C67.1631 48.3509 66.5169 48.4182 65.855 48.4182H50.9063C50.2452 48.4182 49.5997 48.3517 48.9759 48.2255C48.3525 48.3516 47.7074 48.4182 47.0467 48.4182H32.0968C29.5786 48.4181 27.2858 47.4559 25.5634 45.8803C23.8411 47.4559 21.5482 48.4181 19.03 48.4182H13.0841C7.73617 48.4179 3.40039 44.0825 3.40039 38.7345V14.3291C3.40039 8.9811 7.73617 4.64567 13.0841 4.64539H28.9726C29.5042 4.64539 30.0257 4.68944 30.5341 4.77187C31.0429 4.6893 31.5648 4.64541 32.0968 4.64539H47.0467C47.7073 4.6454 48.3525 4.71086 48.9759 4.83689C49.5997 4.71072 50.2453 4.64539 50.9063 4.64539H65.855C66.5168 4.64539 67.1632 4.71158 67.7877 4.83807C68.4105 4.71229 69.0547 4.64542 69.7145 4.64539H75.6605C79.7409 4.64558 83.2293 7.17069 84.655 10.7426C86.0805 7.17036 89.5699 4.64539 93.6507 4.64539H109.538C110.07 4.64539 110.592 4.68932 111.101 4.77187C111.609 4.68932 112.131 4.64539 112.663 4.64539H122.641C125.165 4.64544 127.815 5.01444 130.376 6.01425C131.828 5.14513 133.527 4.64549 135.342 4.64539H150.292C150.952 4.64539 151.598 4.71087 152.221 4.83689C152.845 4.71072 153.49 4.64539 154.151 4.64539H169.101C170.911 4.64548 172.604 5.14304 174.053 6.00716C175.502 5.14272 177.196 4.64549 179.006 4.64539H197.884C199.838 4.64539 201.656 5.22569 203.177 6.22111C206.098 4.92683 209.21 4.29785 212.411 4.29785C216.256 4.29791 219.983 5.2058 223.396 7.11005C223.41 7.11812 223.426 7.12676 223.441 7.13487C225.862 8.48388 227.952 10.2381 229.663 12.3514C231.316 10.2793 233.347 8.54461 235.72 7.20934C239.182 5.2519 242.966 4.36768 246.83 4.36759C251.526 4.36759 256.096 5.64426 260.038 8.56757C260.081 8.59891 260.122 8.63172 260.164 8.66331C260.911 8.10881 261.699 7.59862 262.525 7.13487L262.569 7.11005C265.992 5.21306 269.727 4.29791 273.59 4.29785C277.06 4.29785 280.433 5.03917 283.567 6.58283C285.185 5.36624 287.198 4.64539 289.379 4.64539H295.324L295.629 4.65011C297.296 4.70256 298.896 5.18621 300.291 6.02016C301.745 5.14747 303.447 4.64543 305.266 4.64539H311.211C311.719 4.64539 312.218 4.68346 312.705 4.75887C313.192 4.68344 313.691 4.6454 314.199 4.64539H333.077C334.952 4.64539 336.701 5.17948 338.184 6.10172C339.684 5.17001 341.444 4.64539 343.293 4.64539H350.176L350.557 4.65248C353.909 4.78355 356.92 6.63947 358.564 9.49433C359.572 8.63934 360.667 7.87402 361.848 7.20934C365.31 5.25171 369.095 4.36759 372.959 4.36759C376 4.36763 378.988 4.90405 381.788 6.07572C383.262 5.16864 384.998 4.64539 386.855 4.64539H405.733C407.615 4.64548 409.37 5.1837 410.857 6.11236C412.343 5.18372 414.098 4.64539 415.98 4.64539H421.925C423.46 4.64539 424.911 5.00377 426.2 5.63953C427.49 5.00345 428.942 4.6454 430.477 4.64539H436.422C438.043 4.64539 439.57 5.04523 440.912 5.74946C443.499 4.7155 446.221 4.29791 448.87 4.29785ZM212.411 13.9815C210.116 13.9815 208.007 14.5148 206.083 15.5809C204.183 16.6471 202.664 18.1298 201.528 20.0303C200.416 21.9308 199.859 24.0748 199.859 26.4621C199.859 27.4135 199.95 28.3278 200.126 29.2057C200.184 29.4925 200.251 29.7755 200.327 30.0544C200.429 30.4255 200.548 30.7895 200.683 31.1467C200.802 31.4607 200.934 31.769 201.079 32.0723C201.218 32.3622 201.366 32.648 201.528 32.9281C202.664 34.8286 204.182 36.3125 206.083 37.3787C208.007 38.4448 210.116 38.978 212.411 38.978C214.705 38.978 216.803 38.4448 218.703 37.3787C220.603 36.3125 222.11 34.8286 223.222 32.9281C224.253 31.1448 224.805 29.1626 224.881 26.981C224.887 26.8093 224.891 26.6363 224.891 26.4621C224.891 26.2934 224.887 26.1259 224.882 25.9597C224.809 23.7731 224.256 21.7965 223.222 20.0303C222.133 18.13 220.626 16.647 218.703 15.5809C216.803 14.5148 214.705 13.9816 212.411 13.9815ZM273.59 13.9815C271.295 13.9816 269.187 14.5149 267.263 15.5809C266.716 15.8881 266.2 16.2305 265.716 16.607C265.439 16.8222 265.173 17.0488 264.917 17.2867C264.066 18.0765 263.33 18.9906 262.709 20.0303C261.596 21.9308 261.04 24.0748 261.04 26.4621C261.04 28.8492 261.596 31.0045 262.709 32.9281C262.954 33.3387 263.218 33.729 263.499 34.1007C263.738 34.4162 263.989 34.7177 264.254 35.005C264.445 35.2135 264.644 35.4142 264.849 35.6079C265.128 35.8703 265.418 36.1197 265.721 36.355C266.204 36.7303 266.717 37.0723 267.263 37.3787C269.187 38.4446 271.296 38.978 273.59 38.978C275.809 38.978 277.844 38.4779 279.695 37.4803C279.758 37.4467 279.821 37.4134 279.883 37.3787C281.784 36.3125 283.29 34.8285 284.402 32.9281C284.483 32.7895 284.56 32.6495 284.634 32.5085C284.719 32.3467 284.8 32.1828 284.878 32.0179C284.904 31.9624 284.93 31.9071 284.956 31.8512C285.042 31.6611 285.122 31.4686 285.198 31.2744C285.515 30.4655 285.745 29.6209 285.889 28.74C285.987 28.1452 286.046 27.5342 286.064 26.9065C286.069 26.7593 286.072 26.6111 286.072 26.4621C286.072 24.0748 285.515 21.9308 284.402 20.0303C283.313 18.13 281.807 16.647 279.883 15.5809C277.983 14.5148 275.884 13.9815 273.59 13.9815ZM415.98 28.896C415.98 31.0746 416.419 32.9293 417.3 34.4589C418.181 35.9653 419.375 37.1009 420.882 37.8657C422.412 38.6073 424.138 38.978 426.062 38.978C427.986 38.978 429.724 38.5951 431.277 37.8302C431.336 37.8015 431.394 37.7701 431.452 37.7404C432.661 37.1229 433.673 36.2812 434.488 35.2143C434.584 35.0882 434.677 34.9589 434.768 34.8265C434.858 34.695 434.947 34.5612 435.032 34.4234C435.959 32.917 436.422 31.0745 436.422 28.896V14.3291H430.477V28.9303C430.477 30.3904 430.106 31.5148 429.365 32.3028C428.623 33.0908 427.557 33.4849 426.166 33.4849C424.775 33.4848 423.721 33.0907 423.003 32.3028C422.284 31.5147 421.925 30.3904 421.925 28.9303V14.3291H415.98V28.896ZM448.87 13.9815C446.228 13.9816 444.085 14.6307 442.44 15.9284C440.794 17.2032 439.97 18.9765 439.97 21.2479C439.97 22.7771 440.33 24.0166 441.048 24.9667C441.767 25.917 442.625 26.6361 443.622 27.1229C443.976 27.2957 444.366 27.4678 444.793 27.6406C445.198 27.804 445.635 27.9674 446.105 28.1312C446.536 28.2813 446.994 28.4327 447.48 28.5827C448.57 28.9072 449.404 29.1966 449.984 29.4516C450.586 29.7065 451.084 30.0317 451.478 30.4256C451.895 30.8196 452.105 31.3184 452.105 31.921C452.104 32.6392 451.849 33.2073 451.34 33.6244C450.83 34.0184 450.134 34.2154 449.253 34.2154C448.396 34.2154 447.7 33.9827 447.167 33.5191C446.634 33.0325 446.321 32.3375 446.228 31.4339H439.902C439.948 33.0329 440.388 34.4002 441.222 35.5358C441.415 35.7917 441.624 36.0327 441.845 36.2604C442.159 36.5829 442.501 36.8776 442.871 37.1434C443.4 37.5228 443.985 37.8453 444.629 38.1092C446.043 38.6886 447.642 38.978 449.427 38.978C451.258 38.978 452.846 38.6418 454.19 37.9697C455.534 37.2976 456.554 36.3936 457.249 35.258C457.967 34.1223 458.327 32.8589 458.327 31.4682C458.327 30.0082 457.967 28.8147 457.249 27.8877C456.531 26.9607 455.673 26.2537 454.677 25.767C453.703 25.2803 452.429 24.7704 450.853 24.2374C449.277 23.7275 448.118 23.2521 447.376 22.8118C446.634 22.3714 446.264 21.7569 446.264 20.9689C446.264 20.2505 446.484 19.706 446.925 19.3352C447.365 18.9414 447.944 18.7442 448.662 18.7442C449.497 18.7442 450.18 18.9759 450.713 19.4393C451.246 19.8796 451.537 20.4941 451.583 21.2821H458.014C457.898 18.9876 457.017 17.2032 455.372 15.9284C453.726 14.6305 451.559 13.9815 448.87 13.9815ZM246.83 14.0513C244.466 14.0514 242.345 14.5834 240.468 15.6495C238.613 16.6924 237.165 18.1653 236.122 20.0658C235.158 21.8024 234.64 23.767 234.568 25.9597C234.562 26.1371 234.558 26.3159 234.558 26.4963C234.558 26.6637 234.562 26.8303 234.567 26.9952C234.634 29.2036 235.152 31.1812 236.122 32.9281C237.165 34.8054 238.613 36.2782 240.468 37.3444C242.345 38.3873 244.466 38.9082 246.83 38.9083C249.539 38.9083 251.883 38.2484 253.863 36.9307C254 36.8394 254.136 36.7457 254.27 36.6481C256.332 35.1184 257.712 33.0324 258.407 30.3902H251.871C251.385 31.41 250.689 32.187 249.785 32.7201C248.904 33.2529 247.896 33.5191 246.761 33.5191C244.93 33.5191 243.446 32.8824 242.311 31.6077C241.175 30.333 240.607 28.6287 240.607 26.4963C240.607 24.3643 241.175 22.6608 242.311 21.3862C243.446 20.1114 244.93 19.4747 246.761 19.4747C247.896 19.4748 248.904 19.7409 249.785 20.2738C250.689 20.8069 251.385 21.5839 251.871 22.6037H258.407C257.712 19.9615 256.332 17.8754 254.27 16.3457C254.134 16.2454 253.997 16.1487 253.858 16.0549C251.88 14.7193 249.537 14.0513 246.83 14.0513ZM372.959 14.0513C370.595 14.0513 368.474 14.5835 366.597 15.6495C364.743 16.6925 363.293 18.1652 362.25 20.0658C361.208 21.9428 360.686 24.0864 360.686 26.4963C360.686 26.8537 360.699 27.2051 360.722 27.5508C360.737 27.7859 360.757 28.0185 360.783 28.2482C360.798 28.3771 360.815 28.5052 360.833 28.6324C361.015 29.9174 361.368 31.1152 361.891 32.2259C362.003 32.4639 362.122 32.6981 362.25 32.9281C363.293 34.8055 364.743 36.2782 366.597 37.3444C366.777 37.4443 366.96 37.5377 367.144 37.6281C367.639 37.8702 368.15 38.0787 368.677 38.2522C370.003 38.6885 371.43 38.9083 372.959 38.9083C375.856 38.9082 378.336 38.1546 380.399 36.6481C381.796 35.612 382.878 34.3198 383.647 32.7732C384.014 32.0367 384.311 31.2425 384.535 30.3902H377.999C377.513 31.4098 376.818 32.187 375.914 32.7201C375.033 33.2531 374.025 33.5191 372.889 33.5191C371.058 33.5191 369.574 32.8825 368.438 31.6077C367.303 30.333 366.735 28.6286 366.735 26.4963C366.735 24.3644 367.303 22.6608 368.438 21.3862C369.574 20.1114 371.058 19.4747 372.889 19.4747C374.025 19.4747 375.033 19.7408 375.914 20.2738C376.667 20.7177 377.271 21.3328 377.734 22.1143C377.756 22.1504 377.78 22.1852 377.801 22.2219C377.87 22.3452 377.937 22.4724 377.999 22.6037H384.535C383.84 19.9617 382.461 17.8754 380.399 16.3457C379.426 15.6239 378.358 15.0744 377.199 14.6932C375.902 14.2666 374.489 14.0513 372.959 14.0513ZM13.0841 38.7345H19.03V28.8605H26.4689V24.2374H19.03V19.0917H28.9726V14.3291H13.0841V38.7345ZM32.0968 38.7345H47.0467V33.9719H38.0428V28.6182H46.0041V24.0281H38.0428V19.0917H47.0467V14.3291H32.0968V38.7345ZM50.9063 38.7345H65.855V33.9719H56.851V28.6182H64.8124V24.0281H56.851V19.0917H65.855V14.3291H50.9063V38.7345ZM69.7145 38.7345H83.4481V34.1457H75.6605V14.3291H69.7145V38.7345ZM93.6507 38.7345H99.5954V28.8605H107.036V24.2374H99.5954V19.0917H109.538V14.3291H93.6507V38.7345ZM112.663 38.7345H118.608V29.5213H120.034L125.11 38.7345H131.819L126.187 29.0698C127.971 28.5367 129.316 27.6327 130.22 26.358C131.147 25.0834 131.61 23.6349 131.61 22.0127C131.61 20.5759 131.275 19.2776 130.603 18.1189C129.931 16.9368 128.91 16.0095 127.542 15.3374C126.982 15.0572 126.371 14.8353 125.71 14.6719C124.786 14.4434 123.763 14.3291 122.641 14.3291H112.663V38.7345ZM135.342 38.7345H150.292V33.9719H141.288V28.6182H149.249V24.0281H141.288V19.0917H150.292V14.3291H135.342V38.7345ZM154.151 38.7345H169.101V33.9719H160.096V28.6182H168.057V24.0281H160.096V19.0917H169.101V14.3291H154.151V38.7345ZM179.006 19.0917H185.473V38.7345H191.418V19.0917H197.884V14.3291H179.006V19.0917ZM289.379 38.7345H295.324V23.6806L305.266 38.7345H311.211V14.3291H305.266V29.4516L295.324 14.3291H289.379V38.7345ZM314.199 19.0917H320.667V38.7345H326.611V19.0917H333.077V14.3291H314.199V19.0917ZM334.462 38.7345H340.685L342.145 34.4234H351.254L352.714 38.7345H359.007L350.176 14.3291H343.293L334.462 38.7345ZM386.855 19.0917H393.321V38.7345H399.266V19.0917H405.733V14.3291H386.855V19.0917Z" stroke="#D46060" stroke-width="4.84185" stroke-linejoin="round" mask="url(#path-2-outside-1_75_450)"/>
<path d="M28.9726 13.5943V18.3573H19.0295V23.5026H26.4694V28.1265H19.0295V38H13.0846V13.5943H28.9726ZM38.0421 18.3573V23.294H46.0035V27.8831H38.0421V33.2371H47.0465V38H32.0972V13.5943H47.0465V18.3573H38.0421ZM56.851 18.3573V23.294H64.8124V27.8831H56.851V33.2371H65.8554V38H50.9061V13.5943H65.8554V18.3573H56.851ZM75.6599 33.4109H83.4475V38H69.715V13.5943H75.6599V33.4109ZM109.539 13.5943V18.3573H99.5955V23.5026H107.035V28.1265H99.5955V38H93.6505V13.5943H109.539ZM125.109 38L120.033 28.787H118.608V38H112.663V13.5943H122.641C124.565 13.5943 126.199 13.9304 127.543 14.6025C128.91 15.2747 129.93 16.2018 130.602 17.3838C131.274 18.5427 131.611 19.8406 131.611 21.2776C131.611 22.9 131.147 24.3486 130.22 25.6233C129.316 26.8981 127.972 27.802 126.187 28.3351L131.819 38H125.109ZM118.608 24.5804H122.293C123.383 24.5804 124.194 24.3138 124.727 23.7807C125.283 23.2477 125.561 22.4944 125.561 21.521C125.561 20.5939 125.283 19.8638 124.727 19.3307C124.194 18.7976 123.383 18.5311 122.293 18.5311H118.608V24.5804ZM141.287 18.3573V23.294H149.249V27.8831H141.287V33.2371H150.292V38H135.342V13.5943H150.292V18.3573H141.287ZM160.096 18.3573V23.294H168.058V27.8831H160.096V33.2371H169.101V38H154.151V13.5943H169.101V18.3573H160.096ZM197.884 13.5943V18.3573H191.418V38H185.473V18.3573H179.006V13.5943H197.884ZM212.41 38.2434C210.116 38.2434 208.007 37.7103 206.083 36.6441C204.182 35.578 202.664 34.0946 201.529 32.1941C200.416 30.2704 199.86 28.1149 199.86 25.7276C199.86 23.3404 200.416 21.1965 201.529 19.2959C202.664 17.3954 204.182 15.9121 206.083 14.8459C208.007 13.7798 210.116 13.2467 212.41 13.2467C214.705 13.2467 216.802 13.7798 218.703 14.8459C220.627 15.9121 222.133 17.3954 223.222 19.2959C224.335 21.1965 224.891 23.3404 224.891 25.7276C224.891 28.1149 224.335 30.2704 223.222 32.1941C222.11 34.0946 220.603 35.578 218.703 36.6441C216.802 37.7103 214.705 38.2434 212.41 38.2434ZM212.41 32.8199C214.357 32.8199 215.91 32.1709 217.069 30.873C218.251 29.5751 218.842 27.8599 218.842 25.7276C218.842 23.5721 218.251 21.857 217.069 20.5823C215.91 19.2844 214.357 18.6354 212.41 18.6354C210.44 18.6354 208.864 19.2728 207.682 20.5475C206.523 21.8223 205.944 23.549 205.944 25.7276C205.944 27.8831 206.523 29.6098 207.682 30.9078C208.864 32.1825 210.44 32.8199 212.41 32.8199ZM234.558 25.7624C234.558 23.352 235.079 21.2081 236.122 19.3307C237.165 17.4302 238.614 15.9584 240.468 14.9154C242.345 13.8493 244.466 13.3162 246.83 13.3162C249.727 13.3162 252.207 14.0811 254.27 15.6108C256.333 17.1405 257.712 19.2264 258.407 21.8686H251.871C251.384 20.8488 250.689 20.0724 249.785 19.5393C248.905 19.0062 247.896 18.7397 246.761 18.7397C244.93 18.7397 243.446 19.3771 242.311 20.6518C241.175 21.9266 240.607 23.6301 240.607 25.7624C240.607 27.8947 241.175 29.5982 242.311 30.873C243.446 32.1477 244.93 32.7851 246.761 32.7851C247.896 32.7851 248.905 32.5186 249.785 31.9855C250.689 31.4524 251.384 30.676 251.871 29.6562H258.407C257.712 32.2984 256.333 34.3843 254.27 35.914C252.207 37.4206 249.727 38.1738 246.83 38.1738C244.466 38.1738 242.345 37.6523 240.468 36.6094C238.614 35.5432 237.165 34.0715 236.122 32.1941C235.079 30.3167 234.558 28.1728 234.558 25.7624ZM273.59 38.2434C271.296 38.2434 269.186 37.7103 267.263 36.6441C265.362 35.578 263.844 34.0946 262.708 32.1941C261.596 30.2704 261.04 28.1149 261.04 25.7276C261.04 23.3404 261.596 21.1965 262.708 19.2959C263.844 17.3954 265.362 15.9121 267.263 14.8459C269.186 13.7798 271.296 13.2467 273.59 13.2467C275.885 13.2467 277.982 13.7798 279.883 14.8459C281.806 15.9121 283.313 17.3954 284.402 19.2959C285.515 21.1965 286.071 23.3404 286.071 25.7276C286.071 28.1149 285.515 30.2704 284.402 32.1941C283.29 34.0946 281.783 35.578 279.883 36.6441C277.982 37.7103 275.885 38.2434 273.59 38.2434ZM273.59 32.8199C275.537 32.8199 277.09 32.1709 278.249 30.873C279.431 29.5751 280.022 27.8599 280.022 25.7276C280.022 23.5721 279.431 21.857 278.249 20.5823C277.09 19.2844 275.537 18.6354 273.59 18.6354C271.62 18.6354 270.044 19.2728 268.862 20.5475C267.703 21.8223 267.124 23.549 267.124 25.7276C267.124 27.8831 267.703 29.6098 268.862 30.9078C270.044 32.1825 271.62 32.8199 273.59 32.8199ZM311.211 38H305.266L295.323 22.9464V38H289.378V13.5943H295.323L305.266 28.7175V13.5943H311.211V38ZM333.078 13.5943V18.3573H326.611V38H320.666V18.3573H314.2V13.5943H333.078ZM351.254 33.689H342.145L340.685 38H334.462L343.292 13.5943H350.176L359.007 38H352.714L351.254 33.689ZM349.724 29.0999L346.7 20.1651L343.71 29.0999H349.724ZM360.686 25.7624C360.686 23.352 361.208 21.2081 362.251 19.3307C363.294 17.4302 364.742 15.9584 366.596 14.9154C368.474 13.8493 370.594 13.3162 372.958 13.3162C375.856 13.3162 378.336 14.0811 380.398 15.6108C382.461 17.1405 383.84 19.2264 384.535 21.8686H377.999C377.513 20.8488 376.817 20.0724 375.914 19.5393C375.033 19.0062 374.025 18.7397 372.889 18.7397C371.058 18.7397 369.575 19.3771 368.439 20.6518C367.303 21.9266 366.735 23.6301 366.735 25.7624C366.735 27.8947 367.303 29.5982 368.439 30.873C369.575 32.1477 371.058 32.7851 372.889 32.7851C374.025 32.7851 375.033 32.5186 375.914 31.9855C376.817 31.4524 377.513 30.676 377.999 29.6562H384.535C383.84 32.2984 382.461 34.3843 380.398 35.914C378.336 37.4206 375.856 38.1738 372.958 38.1738C370.594 38.1738 368.474 37.6523 366.596 36.6094C364.742 35.5432 363.294 34.0715 362.251 32.1941C361.208 30.3167 360.686 28.1728 360.686 25.7624ZM405.733 13.5943V18.3573H399.266V38H393.321V18.3573H386.855V13.5943H405.733ZM421.925 13.5943V28.196C421.925 29.6562 422.284 30.7803 423.002 31.5683C423.721 32.3563 424.775 32.7503 426.166 32.7503C427.557 32.7503 428.623 32.3563 429.364 31.5683C430.106 30.7803 430.477 29.6562 430.477 28.196V13.5943H436.422V28.1612C436.422 30.3399 435.958 32.1825 435.031 33.689C434.104 35.1955 432.853 36.3312 431.277 37.0961C429.724 37.8609 427.985 38.2434 426.062 38.2434C424.138 38.2434 422.411 37.8725 420.882 37.1309C419.375 36.366 418.181 35.2303 417.301 33.7238C416.42 32.1941 415.98 30.3399 415.98 28.1612V13.5943H421.925ZM449.427 38.2434C447.642 38.2434 446.043 37.9536 444.629 37.3742C443.216 36.7948 442.08 35.9372 441.222 34.8015C440.388 33.6659 439.948 32.2984 439.901 30.6992H446.229C446.321 31.6031 446.634 32.2984 447.167 32.7851C447.7 33.2487 448.396 33.4804 449.253 33.4804C450.134 33.4804 450.829 33.2834 451.339 32.8894C451.849 32.4722 452.104 31.9044 452.104 31.1859C452.104 30.5833 451.896 30.085 451.478 29.6909C451.084 29.2969 450.586 28.9725 449.983 28.7175C449.404 28.4626 448.57 28.1728 447.48 27.8484C445.904 27.3616 444.618 26.8749 443.621 26.3882C442.625 25.9015 441.767 25.183 441.049 24.2327C440.33 23.2824 439.971 22.0424 439.971 20.5127C439.971 18.2414 440.794 16.4683 442.439 15.1936C444.085 13.8956 446.229 13.2467 448.871 13.2467C451.559 13.2467 453.727 13.8956 455.372 15.1936C457.018 16.4683 457.898 18.253 458.014 20.5475H451.583C451.536 19.7595 451.247 19.1453 450.713 18.7049C450.18 18.2414 449.497 18.0096 448.662 18.0096C447.944 18.0096 447.364 18.2066 446.924 18.6006C446.484 18.9715 446.263 19.5161 446.263 20.2346C446.263 21.0226 446.634 21.6368 447.376 22.0772C448.118 22.5176 449.276 22.9927 450.853 23.5026C452.429 24.0357 453.703 24.5456 454.677 25.0323C455.673 25.519 456.531 26.2259 457.249 27.153C457.968 28.0801 458.327 29.2738 458.327 30.7339C458.327 32.1246 457.968 33.3877 457.249 34.5234C456.554 35.6591 455.534 36.563 454.19 37.2351C452.846 37.9073 451.258 38.2434 449.427 38.2434Z" fill="#F8E9D6"/>
<circle cx="213.076" cy="26.6304" r="3.63138" fill="#75B7C2"/>
<circle cx="273.599" cy="26.6304" r="3.63138" fill="#75B7C2"/>
</svg>
