<svg width="127" height="52" viewBox="0 0 127 52" fill="none" xmlns="http://www.w3.org/2000/svg">
<path d="M51.626 1.75586C54.7688 1.83894 57.843 2.49671 60.749 3.77051C62.491 2.70803 64.5388 2.09473 66.7275 2.09473H73.7773L74.1582 2.10156L74.1729 2.10254H74.1875C76.5347 2.19145 78.7434 2.99612 80.5635 4.33594C82.4971 2.91276 84.8696 2.09473 87.3789 2.09473H94.3662C95.0972 2.09473 95.8116 2.16532 96.5039 2.2959C97.1962 2.16532 97.9106 2.09473 98.6416 2.09473H113.591C119.942 2.09473 125.091 7.24345 125.091 13.5947V18.3574C125.091 20.0664 124.714 21.6887 124.044 23.1475C124.045 23.1958 124.048 23.2447 124.048 23.2939V27.8838L124.035 28.375C124.034 28.3907 124.032 28.4063 124.031 28.4219C124.709 29.887 125.091 31.5179 125.091 33.2373V38C125.091 44.3513 119.942 49.5 113.591 49.5H98.6416C97.9096 49.5 97.1953 49.4285 96.5039 49.2979C95.8125 49.4285 95.0982 49.5 94.3662 49.5H88.4219C87.4809 49.5 86.5673 49.3833 85.6934 49.1699C84.8128 49.3853 83.8975 49.5 82.9629 49.5H78.165C77.2249 49.5 76.3043 49.3839 75.4189 49.166C74.6668 49.351 73.8853 49.4645 73.082 49.4932L72.6729 49.5H66.7275C64.4984 49.5 62.4155 48.863 60.6523 47.7637C57.7726 49.0103 54.7296 49.654 51.6201 49.7354L50.9395 49.7441C47.5751 49.7441 44.2878 49.0936 41.1904 47.7568C39.5516 48.7811 37.6358 49.4062 35.582 49.4902L35.1055 49.5H29.1602C27.516 49.4999 25.9518 49.1515 24.5361 48.5283C23.2241 49.1058 21.7845 49.4474 20.2715 49.4941L19.9131 49.5H13.9678C7.6165 49.5 2.46777 44.3513 2.46777 38V13.5947C2.46777 7.24345 7.6165 2.09473 13.9678 2.09473H19.9131C21.5576 2.09478 23.1213 2.44438 24.5361 3.06738C25.9514 2.44416 27.5155 2.09478 29.1602 2.09473H35.1055C37.2973 2.09473 39.3466 2.71131 41.0898 3.77637C44.2164 2.41032 47.5388 1.74707 50.9395 1.74707L51.626 1.75586Z" fill="#75B7C2" stroke="#D46060" stroke-width="3"/>
<path d="M35.1052 13.5943V38H29.1602V27.9527H19.9125V38H13.9675V13.5943H19.9125V23.155H29.1602V13.5943H35.1052ZM50.9392 38.2434C48.6446 38.2434 46.5355 37.7103 44.6118 36.6441C42.7112 35.578 41.1931 34.0946 40.0574 32.1941C38.9449 30.2704 38.3887 28.1149 38.3887 25.7276C38.3887 23.3404 38.9449 21.1965 40.0574 19.2959C41.1931 17.3954 42.7112 15.9121 44.6118 14.8459C46.5355 13.7798 48.6446 13.2467 50.9392 13.2467C53.2337 13.2467 55.3312 13.7798 57.2318 14.8459C59.1555 15.9121 60.662 17.3954 61.7514 19.2959C62.8639 21.1965 63.4201 23.3404 63.4201 25.7276C63.4201 28.1149 62.8639 30.2704 61.7514 32.1941C60.6388 34.0946 59.1323 35.578 57.2318 36.6441C55.3312 37.7103 53.2337 38.2434 50.9392 38.2434ZM50.9392 32.8199C52.886 32.8199 54.4389 32.1709 55.5978 30.873C56.7798 29.5751 57.3708 27.8599 57.3708 25.7276C57.3708 23.5721 56.7798 21.857 55.5978 20.5823C54.4389 19.2844 52.886 18.6354 50.9392 18.6354C48.9691 18.6354 47.393 19.2728 46.211 20.5475C45.0521 21.8223 44.4727 23.549 44.4727 25.7276C44.4727 27.8831 45.0521 29.6098 46.211 30.9078C47.393 32.1825 48.9691 32.8199 50.9392 32.8199ZM94.3664 13.5943V38H88.4214V23.3636L82.9632 38H78.1655L72.6725 23.3288V38H66.7275V13.5943H73.7502L80.5991 30.4906L87.3784 13.5943H94.3664ZM104.586 18.3573V23.294H112.548V27.8831H104.586V33.2371H113.591V38H98.6415V13.5943H113.591V18.3573H104.586Z" fill="#F8E9D6"/>
</svg>
