<svg width="232" height="52" viewBox="0 0 232 52" fill="none" xmlns="http://www.w3.org/2000/svg">
<mask id="path-1-outside-1_75_1484" maskUnits="userSpaceOnUse" x="44.0005" y="3.24707" width="141" height="45" fill="black">
<rect fill="white" x="44.0005" y="3.24707" width="141" height="45"/>
<path fill-rule="evenodd" clip-rule="evenodd" d="M85.3081 5.25684C88.6462 5.35599 91.8601 6.20072 94.8149 7.85156C94.8237 7.8564 94.8316 7.86136 94.8403 7.86621C96.2811 6.46167 98.2537 5.59501 100.427 5.59473H106.373C108.413 5.59492 110.271 6.36007 111.682 7.61426C113.094 6.35906 114.955 5.59494 116.996 5.59473H122.941C125.086 5.59501 127.032 6.44135 128.466 7.8125C131.589 6.1015 135 5.31651 138.513 5.31641L139.163 5.3252C141.938 5.40052 144.638 5.96468 147.156 7.09766C148.494 6.13728 150.117 5.59496 151.818 5.59473H158.598L158.817 5.59863L158.853 5.59961C160.475 5.65847 162.006 6.20823 163.272 7.13086C164.614 6.1527 166.255 5.59496 167.984 5.59473H174.659C177.45 5.59473 180.04 7.05013 181.492 9.43457C182.943 11.819 183.047 14.7876 181.765 17.2676L174.21 31.8799V38C174.21 42.4183 170.629 46 166.21 46H160.266C156.773 45.9995 153.802 43.7591 152.712 40.6367C152.096 41.2415 151.431 41.8102 150.718 42.3389L150.716 42.3418C150.71 42.3465 150.692 42.3594 150.672 42.374L150.671 42.375C147.284 44.8485 143.389 46.0229 139.328 46.1602L138.513 46.1738C135.023 46.1737 131.63 45.409 128.515 43.7354C127.136 45.0759 125.274 45.9263 123.211 45.9951L122.941 46H116.996C116.511 45.9999 116.036 45.955 115.576 45.8721C115.272 45.9268 114.961 45.966 114.645 45.9854L114.16 46H100.427C98.2182 45.9997 96.2195 45.1034 94.7739 43.6592C91.8312 45.2946 88.633 46.1343 85.311 46.2334L84.6392 46.2432C81.0493 46.243 77.5955 45.3932 74.4331 43.6406L74.3979 43.6211C71.2933 41.8793 68.7866 39.4303 66.9517 36.3975C66.4197 36.5611 65.8843 36.6987 65.3472 36.8105V38C65.3472 42.2801 61.9856 45.7745 57.7593 45.9893L57.3472 46H50.4019C47.4913 45.9996 46.0005 42.9277 46.0005 40.0171V11.5776C46.0005 8.66703 47.4913 5.59512 50.4019 5.59473H61.0317C63.8656 5.59478 66.8129 6.0807 69.5464 7.44727C70.5258 7.93698 71.4556 8.52363 72.3179 9.20801C72.966 8.73298 73.6459 8.29359 74.3569 7.89258L74.3833 7.87695L74.4331 7.84863C77.5958 6.09588 81.0497 5.24719 84.6392 5.24707L85.3081 5.25684ZM143.05 37.4414C143.036 37.4472 143.021 37.4538 143.006 37.459C142.979 37.4684 142.952 37.476 142.924 37.4844C142.914 37.4877 142.905 37.4918 142.895 37.4951C142.932 37.4827 142.97 37.4718 143.006 37.459C143.025 37.4524 143.044 37.4442 143.063 37.4375C143.059 37.439 143.054 37.4399 143.05 37.4414ZM90.9312 36.6445C90.6396 36.8081 90.3423 36.9572 90.0415 37.0957L90.4907 36.8799C90.6388 36.805 90.7856 36.7262 90.9312 36.6445ZM82.5103 32.5283C82.5429 32.5381 82.576 32.5464 82.6089 32.5557C82.5502 32.5391 82.4918 32.522 82.4341 32.5039L82.5103 32.5283ZM95.7153 31.71C95.7418 31.6592 95.7688 31.6087 95.7944 31.5576C95.8003 31.5459 95.8062 31.5342 95.812 31.5225C95.818 31.5105 95.8237 31.4983 95.8296 31.4863C95.7925 31.5613 95.754 31.6356 95.7153 31.71ZM96.0542 31.001C96.0618 30.9838 96.0711 30.9674 96.0786 30.9502L96.1899 30.6826C96.1465 30.7895 96.1008 30.8954 96.0542 31.001ZM149.619 31.0996C149.636 31.0562 149.656 31.0136 149.672 30.9697L149.708 30.8711C149.679 30.948 149.648 31.0238 149.619 31.0996ZM96.1899 30.6826C96.1983 30.662 96.208 30.6418 96.2163 30.6211C96.2445 30.5505 96.2714 30.4794 96.2983 30.4082C96.3103 30.3766 96.3228 30.3452 96.3345 30.3135C96.2887 30.4375 96.2397 30.5602 96.1899 30.6826ZM96.5913 29.5371C96.5548 29.6613 96.5164 29.7847 96.4761 29.9072C96.5166 29.7843 96.5556 29.6607 96.5923 29.5361C96.6314 29.4033 96.6679 29.2694 96.7026 29.1348L96.5913 29.5371ZM62.2749 29.1875C62.2235 29.192 62.1716 29.1974 62.1196 29.2012C62.1762 29.1971 62.2326 29.1913 62.2886 29.1865C62.284 29.1869 62.2795 29.1871 62.2749 29.1875ZM62.5103 29.165C62.4826 29.1679 62.455 29.1722 62.4272 29.1748C62.5551 29.1627 62.6814 29.1494 62.8062 29.1338C62.7086 29.146 62.6098 29.1552 62.5103 29.165ZM63.0493 29.0986C63.0418 29.0997 63.0344 29.1015 63.0269 29.1025C63.0639 29.0973 63.1014 29.0935 63.1382 29.0879C63.1088 29.0924 63.079 29.0948 63.0493 29.0986ZM97.1187 25.7275C97.1186 25.2306 97.0945 24.7444 97.0464 24.2686C97.0475 24.2793 97.0473 24.2901 97.0483 24.3008C97.0944 24.7664 97.1186 25.2418 97.1187 25.7275ZM78.1792 26.1328C78.1794 26.1387 78.18 26.1445 78.1802 26.1504C78.1751 26.0113 78.1724 25.8704 78.1724 25.7275C78.1724 25.8644 78.1745 25.9995 78.1792 26.1328ZM96.6987 22.3193C96.698 22.3164 96.6975 22.3134 96.6968 22.3105C96.6827 22.2566 96.6675 22.2031 96.6528 22.1494C96.6442 22.1181 96.6353 22.0869 96.6265 22.0557C96.6514 22.1432 96.6757 22.231 96.6987 22.3193ZM96.5806 21.8984C96.5759 21.8829 96.5726 21.867 96.5679 21.8516C96.5564 21.8139 96.5435 21.7768 96.5317 21.7393C96.5267 21.7232 96.5212 21.7074 96.5161 21.6914C96.5381 21.7602 96.5598 21.8291 96.5806 21.8984ZM79.2583 21.4092C79.2457 21.4293 79.2345 21.4504 79.2222 21.4707C79.2404 21.4407 79.2582 21.4105 79.2769 21.3809L79.2583 21.4092ZM96.4429 21.4658C96.4419 21.4629 96.4409 21.46 96.4399 21.457C96.4184 21.3939 96.3961 21.3312 96.3735 21.2686C96.3666 21.2493 96.3591 21.2302 96.3521 21.2109C96.3831 21.2956 96.4137 21.3804 96.4429 21.4658ZM96.2827 21.0264C96.2985 21.0672 96.3162 21.1074 96.3315 21.1484C96.3118 21.0954 96.2905 21.043 96.27 20.9902C96.2746 21.0021 96.2781 21.0145 96.2827 21.0264ZM96.2261 20.8818C96.2291 20.8894 96.2328 20.8967 96.2358 20.9043L96.1616 20.7217C96.1838 20.7748 96.2047 20.8284 96.2261 20.8818ZM96.1128 20.6094C96.1084 20.599 96.1046 20.5884 96.1001 20.5781C96.1035 20.586 96.1074 20.5937 96.1108 20.6016C96.1021 20.5813 96.0933 20.5612 96.0845 20.541C96.0898 20.5533 96.0948 20.5658 96.1001 20.5781C96.088 20.5503 96.0753 20.5228 96.063 20.4951C96.0798 20.5331 96.0964 20.5712 96.1128 20.6094ZM96.0552 20.4766C96.058 20.4828 96.0602 20.4889 96.063 20.4951L95.9751 20.2998C96.0023 20.3585 96.0289 20.4174 96.0552 20.4766ZM95.9282 20.2021C95.9182 20.1811 95.9091 20.1597 95.8989 20.1387C95.901 20.143 95.9037 20.147 95.9058 20.1514C95.8963 20.1317 95.8861 20.1124 95.8765 20.0928C95.8942 20.129 95.9109 20.1657 95.9282 20.2021ZM95.6616 19.6729C95.6666 19.6821 95.6723 19.6909 95.6772 19.7002C95.6693 19.6853 95.6618 19.6701 95.6538 19.6553L95.5181 19.415C95.5669 19.5006 95.6151 19.5863 95.6616 19.6729ZM94.7612 18.2285L94.6567 18.0869L94.6938 18.1348L94.6313 18.0527C94.675 18.1109 94.7186 18.1694 94.7612 18.2285ZM90.9038 14.832C90.8423 14.7977 90.7802 14.7647 90.7183 14.7314C90.6667 14.7038 90.6158 14.6753 90.564 14.6484C90.5478 14.64 90.5313 14.6323 90.5151 14.624C90.6456 14.691 90.7751 14.7603 90.9038 14.832ZM90.4272 14.5801C90.4083 14.5705 90.3896 14.5603 90.3706 14.5508C90.2809 14.5063 90.1907 14.4631 90.1001 14.4209C90.0857 14.4142 90.0715 14.4071 90.0571 14.4004C90.1814 14.4579 90.3045 14.5183 90.4272 14.5801ZM90.0083 14.3779C90.0037 14.3758 89.9993 14.3732 89.9946 14.3711C89.8533 14.3068 89.7113 14.2443 89.5679 14.1855C89.7159 14.2463 89.8624 14.3112 90.0083 14.3779ZM143.374 14.1797C143.305 14.1526 143.235 14.1274 143.166 14.1016L143.162 14.1006C143.232 14.1268 143.303 14.1521 143.374 14.1797ZM142.167 13.7803C142.387 13.8405 142.604 13.9076 142.819 13.9795C142.8 13.973 142.781 13.9654 142.761 13.959C142.566 13.8945 142.367 13.835 142.167 13.7803ZM141.758 13.6768C141.74 13.6725 141.723 13.6682 141.705 13.6641C141.652 13.6518 141.599 13.6395 141.546 13.6279C141.534 13.6253 141.522 13.6237 141.509 13.6211C141.593 13.639 141.676 13.6573 141.758 13.6768ZM95.8882 31.3633C95.9024 31.3336 95.9171 31.3042 95.9312 31.2744C95.9696 31.1926 96.0057 31.1098 96.0425 31.0273C95.9925 31.1399 95.9416 31.2521 95.8882 31.3633Z"/>
</mask>
<path fill-rule="evenodd" clip-rule="evenodd" d="M85.3081 5.25684C88.6462 5.35599 91.8601 6.20072 94.8149 7.85156C94.8237 7.8564 94.8316 7.86136 94.8403 7.86621C96.2811 6.46167 98.2537 5.59501 100.427 5.59473H106.373C108.413 5.59492 110.271 6.36007 111.682 7.61426C113.094 6.35906 114.955 5.59494 116.996 5.59473H122.941C125.086 5.59501 127.032 6.44135 128.466 7.8125C131.589 6.1015 135 5.31651 138.513 5.31641L139.163 5.3252C141.938 5.40052 144.638 5.96468 147.156 7.09766C148.494 6.13728 150.117 5.59496 151.818 5.59473H158.598L158.817 5.59863L158.853 5.59961C160.475 5.65847 162.006 6.20823 163.272 7.13086C164.614 6.1527 166.255 5.59496 167.984 5.59473H174.659C177.45 5.59473 180.04 7.05013 181.492 9.43457C182.943 11.819 183.047 14.7876 181.765 17.2676L174.21 31.8799V38C174.21 42.4183 170.629 46 166.21 46H160.266C156.773 45.9995 153.802 43.7591 152.712 40.6367C152.096 41.2415 151.431 41.8102 150.718 42.3389L150.716 42.3418C150.71 42.3465 150.692 42.3594 150.672 42.374L150.671 42.375C147.284 44.8485 143.389 46.0229 139.328 46.1602L138.513 46.1738C135.023 46.1737 131.63 45.409 128.515 43.7354C127.136 45.0759 125.274 45.9263 123.211 45.9951L122.941 46H116.996C116.511 45.9999 116.036 45.955 115.576 45.8721C115.272 45.9268 114.961 45.966 114.645 45.9854L114.16 46H100.427C98.2182 45.9997 96.2195 45.1034 94.7739 43.6592C91.8312 45.2946 88.633 46.1343 85.311 46.2334L84.6392 46.2432C81.0493 46.243 77.5955 45.3932 74.4331 43.6406L74.3979 43.6211C71.2933 41.8793 68.7866 39.4303 66.9517 36.3975C66.4197 36.5611 65.8843 36.6987 65.3472 36.8105V38C65.3472 42.2801 61.9856 45.7745 57.7593 45.9893L57.3472 46H50.4019C47.4913 45.9996 46.0005 42.9277 46.0005 40.0171V11.5776C46.0005 8.66703 47.4913 5.59512 50.4019 5.59473H61.0317C63.8656 5.59478 66.8129 6.0807 69.5464 7.44727C70.5258 7.93698 71.4556 8.52363 72.3179 9.20801C72.966 8.73298 73.6459 8.29359 74.3569 7.89258L74.3833 7.87695L74.4331 7.84863C77.5958 6.09588 81.0497 5.24719 84.6392 5.24707L85.3081 5.25684ZM143.05 37.4414C143.036 37.4472 143.021 37.4538 143.006 37.459C142.979 37.4684 142.952 37.476 142.924 37.4844C142.914 37.4877 142.905 37.4918 142.895 37.4951C142.932 37.4827 142.97 37.4718 143.006 37.459C143.025 37.4524 143.044 37.4442 143.063 37.4375C143.059 37.439 143.054 37.4399 143.05 37.4414ZM90.9312 36.6445C90.6396 36.8081 90.3423 36.9572 90.0415 37.0957L90.4907 36.8799C90.6388 36.805 90.7856 36.7262 90.9312 36.6445ZM82.5103 32.5283C82.5429 32.5381 82.576 32.5464 82.6089 32.5557C82.5502 32.5391 82.4918 32.522 82.4341 32.5039L82.5103 32.5283ZM95.7153 31.71C95.7418 31.6592 95.7688 31.6087 95.7944 31.5576C95.8003 31.5459 95.8062 31.5342 95.812 31.5225C95.818 31.5105 95.8237 31.4983 95.8296 31.4863C95.7925 31.5613 95.754 31.6356 95.7153 31.71ZM96.0542 31.001C96.0618 30.9838 96.0711 30.9674 96.0786 30.9502L96.1899 30.6826C96.1465 30.7895 96.1008 30.8954 96.0542 31.001ZM149.619 31.0996C149.636 31.0562 149.656 31.0136 149.672 30.9697L149.708 30.8711C149.679 30.948 149.648 31.0238 149.619 31.0996ZM96.1899 30.6826C96.1983 30.662 96.208 30.6418 96.2163 30.6211C96.2445 30.5505 96.2714 30.4794 96.2983 30.4082C96.3103 30.3766 96.3228 30.3452 96.3345 30.3135C96.2887 30.4375 96.2397 30.5602 96.1899 30.6826ZM96.5913 29.5371C96.5548 29.6613 96.5164 29.7847 96.4761 29.9072C96.5166 29.7843 96.5556 29.6607 96.5923 29.5361C96.6314 29.4033 96.6679 29.2694 96.7026 29.1348L96.5913 29.5371ZM62.2749 29.1875C62.2235 29.192 62.1716 29.1974 62.1196 29.2012C62.1762 29.1971 62.2326 29.1913 62.2886 29.1865C62.284 29.1869 62.2795 29.1871 62.2749 29.1875ZM62.5103 29.165C62.4826 29.1679 62.455 29.1722 62.4272 29.1748C62.5551 29.1627 62.6814 29.1494 62.8062 29.1338C62.7086 29.146 62.6098 29.1552 62.5103 29.165ZM63.0493 29.0986C63.0418 29.0997 63.0344 29.1015 63.0269 29.1025C63.0639 29.0973 63.1014 29.0935 63.1382 29.0879C63.1088 29.0924 63.079 29.0948 63.0493 29.0986ZM97.1187 25.7275C97.1186 25.2306 97.0945 24.7444 97.0464 24.2686C97.0475 24.2793 97.0473 24.2901 97.0483 24.3008C97.0944 24.7664 97.1186 25.2418 97.1187 25.7275ZM78.1792 26.1328C78.1794 26.1387 78.18 26.1445 78.1802 26.1504C78.1751 26.0113 78.1724 25.8704 78.1724 25.7275C78.1724 25.8644 78.1745 25.9995 78.1792 26.1328ZM96.6987 22.3193C96.698 22.3164 96.6975 22.3134 96.6968 22.3105C96.6827 22.2566 96.6675 22.2031 96.6528 22.1494C96.6442 22.1181 96.6353 22.0869 96.6265 22.0557C96.6514 22.1432 96.6757 22.231 96.6987 22.3193ZM96.5806 21.8984C96.5759 21.8829 96.5726 21.867 96.5679 21.8516C96.5564 21.8139 96.5435 21.7768 96.5317 21.7393C96.5267 21.7232 96.5212 21.7074 96.5161 21.6914C96.5381 21.7602 96.5598 21.8291 96.5806 21.8984ZM79.2583 21.4092C79.2457 21.4293 79.2345 21.4504 79.2222 21.4707C79.2404 21.4407 79.2582 21.4105 79.2769 21.3809L79.2583 21.4092ZM96.4429 21.4658C96.4419 21.4629 96.4409 21.46 96.4399 21.457C96.4184 21.3939 96.3961 21.3312 96.3735 21.2686C96.3666 21.2493 96.3591 21.2302 96.3521 21.2109C96.3831 21.2956 96.4137 21.3804 96.4429 21.4658ZM96.2827 21.0264C96.2985 21.0672 96.3162 21.1074 96.3315 21.1484C96.3118 21.0954 96.2905 21.043 96.27 20.9902C96.2746 21.0021 96.2781 21.0145 96.2827 21.0264ZM96.2261 20.8818C96.2291 20.8894 96.2328 20.8967 96.2358 20.9043L96.1616 20.7217C96.1838 20.7748 96.2047 20.8284 96.2261 20.8818ZM96.1128 20.6094C96.1084 20.599 96.1046 20.5884 96.1001 20.5781C96.1035 20.586 96.1074 20.5937 96.1108 20.6016C96.1021 20.5813 96.0933 20.5612 96.0845 20.541C96.0898 20.5533 96.0948 20.5658 96.1001 20.5781C96.088 20.5503 96.0753 20.5228 96.063 20.4951C96.0798 20.5331 96.0964 20.5712 96.1128 20.6094ZM96.0552 20.4766C96.058 20.4828 96.0602 20.4889 96.063 20.4951L95.9751 20.2998C96.0023 20.3585 96.0289 20.4174 96.0552 20.4766ZM95.9282 20.2021C95.9182 20.1811 95.9091 20.1597 95.8989 20.1387C95.901 20.143 95.9037 20.147 95.9058 20.1514C95.8963 20.1317 95.8861 20.1124 95.8765 20.0928C95.8942 20.129 95.9109 20.1657 95.9282 20.2021ZM95.6616 19.6729C95.6666 19.6821 95.6723 19.6909 95.6772 19.7002C95.6693 19.6853 95.6618 19.6701 95.6538 19.6553L95.5181 19.415C95.5669 19.5006 95.6151 19.5863 95.6616 19.6729ZM94.7612 18.2285L94.6567 18.0869L94.6938 18.1348L94.6313 18.0527C94.675 18.1109 94.7186 18.1694 94.7612 18.2285ZM90.9038 14.832C90.8423 14.7977 90.7802 14.7647 90.7183 14.7314C90.6667 14.7038 90.6158 14.6753 90.564 14.6484C90.5478 14.64 90.5313 14.6323 90.5151 14.624C90.6456 14.691 90.7751 14.7603 90.9038 14.832ZM90.4272 14.5801C90.4083 14.5705 90.3896 14.5603 90.3706 14.5508C90.2809 14.5063 90.1907 14.4631 90.1001 14.4209C90.0857 14.4142 90.0715 14.4071 90.0571 14.4004C90.1814 14.4579 90.3045 14.5183 90.4272 14.5801ZM90.0083 14.3779C90.0037 14.3758 89.9993 14.3732 89.9946 14.3711C89.8533 14.3068 89.7113 14.2443 89.5679 14.1855C89.7159 14.2463 89.8624 14.3112 90.0083 14.3779ZM143.374 14.1797C143.305 14.1526 143.235 14.1274 143.166 14.1016L143.162 14.1006C143.232 14.1268 143.303 14.1521 143.374 14.1797ZM142.167 13.7803C142.387 13.8405 142.604 13.9076 142.819 13.9795C142.8 13.973 142.781 13.9654 142.761 13.959C142.566 13.8945 142.367 13.835 142.167 13.7803ZM141.758 13.6768C141.74 13.6725 141.723 13.6682 141.705 13.6641C141.652 13.6518 141.599 13.6395 141.546 13.6279C141.534 13.6253 141.522 13.6237 141.509 13.6211C141.593 13.639 141.676 13.6573 141.758 13.6768ZM95.8882 31.3633C95.9024 31.3336 95.9171 31.3042 95.9312 31.2744C95.9696 31.1926 96.0057 31.1098 96.0425 31.0273C95.9925 31.1399 95.9416 31.2521 95.8882 31.3633Z" fill="#75B7C2"/>
<path d="M90.9312 36.6445L91.4204 37.5167C91.4492 37.5005 91.4749 37.4848 91.4847 37.4788C91.4915 37.4747 91.494 37.4732 91.4962 37.4718C91.4981 37.4707 91.4967 37.4716 91.4935 37.4734L90.9985 36.6045L90.5035 35.7356C90.4892 35.7438 90.4767 35.7512 90.4673 35.7568C90.4583 35.7622 90.4495 35.7676 90.4451 35.7703C90.4394 35.7737 90.4374 35.7749 90.4363 35.7756C90.4354 35.7761 90.4376 35.7748 90.4419 35.7724L90.9312 36.6445ZM82.0903 19.0713L81.7339 18.137C81.7308 18.1382 81.7282 18.1391 81.7183 18.1428C81.7104 18.1458 81.6972 18.1507 81.6826 18.1564L82.0464 19.0879L82.4102 20.0194C82.4102 20.0194 82.4117 20.0188 82.4184 20.0163C82.4231 20.0145 82.4353 20.01 82.4468 20.0056L82.0903 19.0713ZM85.3081 5.25684L85.3675 3.25772C85.3574 3.25742 85.3474 3.2572 85.3373 3.25705L85.3081 5.25684ZM94.8149 7.85156L93.8395 9.59755L93.8449 9.60056L94.8149 7.85156ZM94.8403 7.86621L93.8677 9.61378C94.6402 10.0437 95.6034 9.91546 96.2364 9.29831L94.8403 7.86621ZM100.427 5.59473V3.59473H100.427L100.427 5.59473ZM106.373 5.59473L106.373 3.59473H106.373V5.59473ZM111.682 7.61426L110.353 9.10903C111.111 9.78271 112.253 9.78266 113.011 9.10893L111.682 7.61426ZM116.996 5.59473V3.59473H116.995L116.996 5.59473ZM122.941 5.59473L122.941 3.59473H122.941V5.59473ZM128.466 7.8125L127.084 9.25803C127.714 9.86072 128.663 9.98552 129.427 9.56645L128.466 7.8125ZM138.513 5.31641L138.54 3.31659C138.531 3.31647 138.522 3.31641 138.513 3.31641L138.513 5.31641ZM139.163 5.3252L139.217 3.32593C139.208 3.32569 139.199 3.3255 139.19 3.32538L139.163 5.3252ZM147.156 7.09766L146.335 8.92154C146.986 9.21421 147.743 9.13831 148.322 8.72235L147.156 7.09766ZM151.818 5.59473V3.59473H151.818L151.818 5.59473ZM158.598 5.59473L158.634 3.59505C158.622 3.59483 158.61 3.59473 158.598 3.59473V5.59473ZM158.817 5.59863L158.871 3.59936C158.865 3.5992 158.859 3.59906 158.853 3.59895L158.817 5.59863ZM158.853 5.59961L158.926 3.60093C158.919 3.6007 158.913 3.60051 158.907 3.60034L158.853 5.59961ZM163.272 7.13086L162.094 8.74712C162.796 9.25871 163.748 9.25878 164.45 8.7473L163.272 7.13086ZM167.984 5.59473V3.59473H167.984L167.984 5.59473ZM181.492 9.43457L183.2 8.39464L183.2 8.39448L181.492 9.43457ZM181.765 17.2676L183.542 18.1861L183.542 18.1859L181.765 17.2676ZM174.21 31.8799L172.434 30.9614C172.287 31.2453 172.21 31.5603 172.21 31.8799H174.21ZM160.266 46L160.266 48H160.266V46ZM152.712 40.6367L154.601 39.9776C154.375 39.3312 153.834 38.8451 153.168 38.6892C152.501 38.5334 151.801 38.7294 151.312 39.2087L152.712 40.6367ZM150.718 42.3389L149.527 40.7325C149.342 40.8697 149.182 41.0378 149.054 41.2295L150.718 42.3389ZM150.716 42.3418L151.922 43.9379C152.101 43.8025 152.256 43.638 152.38 43.4512L150.716 42.3418ZM150.672 42.374L149.492 40.7597C149.409 40.8203 149.331 40.8872 149.258 40.9598L150.672 42.374ZM150.671 42.375L151.851 43.9902C151.934 43.9293 152.013 43.8621 152.086 43.7892L150.671 42.375ZM139.328 46.1602L139.361 48.1599C139.373 48.1597 139.384 48.1594 139.395 48.159L139.328 46.1602ZM138.513 46.1738L138.513 48.1738C138.524 48.1738 138.536 48.1737 138.547 48.1735L138.513 46.1738ZM128.515 43.7354L129.462 41.9735C128.693 41.5608 127.746 41.6934 127.121 42.3013L128.515 43.7354ZM123.211 45.9951L123.248 47.9948C123.258 47.9946 123.268 47.9943 123.278 47.994L123.211 45.9951ZM122.941 46V48C122.953 48 122.965 47.9999 122.977 47.9997L122.941 46ZM116.996 46L116.995 48H116.996V46ZM115.576 45.8721L115.93 43.9037C115.696 43.8615 115.456 43.8615 115.221 43.9037L115.576 45.8721ZM114.645 45.9854L114.705 47.9844C114.726 47.9838 114.747 47.9829 114.767 47.9816L114.645 45.9854ZM114.16 46V48C114.18 48 114.2 47.9997 114.22 47.9991L114.16 46ZM100.427 46L100.427 48H100.427V46ZM94.7739 43.6592L96.1875 42.2443C95.5559 41.6133 94.5827 41.4773 93.8024 41.911L94.7739 43.6592ZM85.311 46.2334L85.3401 48.2332C85.3503 48.233 85.3605 48.2328 85.3707 48.2325L85.311 46.2334ZM84.6392 46.2432L84.6391 48.2432C84.6488 48.2432 84.6585 48.2431 84.6682 48.243L84.6392 46.2432ZM74.4331 43.6406L73.4618 45.3889L73.4636 45.3899L74.4331 43.6406ZM74.3979 43.6211L73.4194 45.3654L73.4267 45.3694L74.3979 43.6211ZM66.9517 36.3975L68.6628 35.3622C68.188 34.5774 67.2402 34.2161 66.3635 34.4859L66.9517 36.3975ZM65.3472 36.8105L64.9395 34.8525C64.0119 35.0457 63.3472 35.8631 63.3472 36.8105H65.3472ZM57.7593 45.9893L57.8114 47.9886C57.8279 47.9881 57.8443 47.9875 57.8608 47.9867L57.7593 45.9893ZM57.3472 46V48C57.3645 48 57.3819 47.9998 57.3993 47.9993L57.3472 46ZM50.4019 44C49.2973 44 48.4019 44.8954 48.4019 46C48.4019 47.1046 49.2973 48 50.4019 48V46V44ZM61.0317 5.59473L61.0318 3.59473H61.0317V5.59473ZM69.5464 7.44727L70.4409 5.65843L70.4407 5.65836L69.5464 7.44727ZM72.3179 9.20801L71.0745 10.7746C71.7803 11.3347 72.7734 11.3538 73.5001 10.8212L72.3179 9.20801ZM74.3569 7.89258L75.3395 9.6346C75.3519 9.62758 75.3643 9.62044 75.3765 9.61316L74.3569 7.89258ZM74.3833 7.87695L73.3947 6.13837C73.3843 6.14428 73.374 6.15028 73.3637 6.15637L74.3833 7.87695ZM74.4331 7.84863L73.4636 6.09931C73.4572 6.10285 73.4509 6.10644 73.4445 6.11005L74.4331 7.84863ZM84.6392 5.24707L84.6684 3.24728C84.6586 3.24714 84.6488 3.24707 84.6391 3.24707L84.6392 5.24707ZM143.05 37.4414L142.385 35.5554C142.362 35.5634 142.34 35.5718 142.317 35.5805L143.05 37.4414ZM142.924 37.4844L142.337 35.5725C142.318 35.5783 142.299 35.5845 142.28 35.5909L142.924 37.4844ZM142.895 37.4951L142.256 35.5999C141.21 35.9527 140.647 37.0869 141 38.1334C141.352 39.18 142.486 39.7428 143.533 39.3908L142.895 37.4951ZM143.063 37.4375L143.732 39.3222C144.773 38.9527 145.317 37.8098 144.948 36.769C144.579 35.7282 143.436 35.1836 142.395 35.5523L143.063 37.4375ZM91.9096 38.3889C92.8729 37.8485 93.2159 36.6295 92.6755 35.6661C92.1351 34.7027 90.9161 34.3598 89.9527 34.9002L90.9312 36.6445L91.9096 38.3889ZM90.0415 37.0957L89.1754 35.293C88.1856 35.7685 87.7643 36.9532 88.2317 37.9469C88.6991 38.9406 89.8803 39.3716 90.8778 38.9125L90.0415 37.0957ZM90.4907 36.8799L91.3568 38.6826C91.3691 38.6767 91.3813 38.6707 91.3935 38.6645L90.4907 36.8799ZM82.5103 32.5283L81.8998 34.4329C81.912 34.4368 81.9241 34.4405 81.9363 34.4442L82.5103 32.5283ZM82.6089 32.5557L82.0662 34.4806C83.1293 34.7803 84.234 34.1615 84.5338 33.0985C84.8336 32.0355 84.2149 30.9307 83.152 30.6308L82.6089 32.5557ZM82.4341 32.5039L83.0331 30.5957C81.9814 30.2656 80.861 30.8486 80.5277 31.8992C80.1944 32.9498 80.774 34.0721 81.8236 34.4085L82.4341 32.5039ZM95.7153 31.71L93.9408 30.7874C93.4313 31.7673 93.8126 32.9747 94.7925 33.4844C95.7724 33.994 96.9799 33.6128 97.4896 32.6329L95.7153 31.71ZM95.7944 31.5576L97.5815 32.4556L97.5818 32.455L95.7944 31.5576ZM95.812 31.5225L94.0221 30.6302L94.0218 30.6308L95.812 31.5225ZM95.8296 31.4863L97.6227 32.3722C98.1119 31.382 97.7058 30.1827 96.7157 29.6933C95.7255 29.204 94.5262 29.6099 94.0367 30.6L95.8296 31.4863ZM96.0542 31.001L94.2242 30.194C93.7788 31.2041 94.236 32.384 95.2457 32.8303C96.2554 33.2765 97.4357 32.8203 97.8828 31.811L96.0542 31.001ZM96.0786 30.9502L97.9109 31.7518C97.9158 31.7407 97.9205 31.7296 97.9252 31.7185L96.0786 30.9502ZM96.1899 30.6826L98.0427 31.4358L96.1899 30.6826ZM149.619 31.0996L147.757 30.368C147.354 31.3946 147.858 32.5541 148.883 32.9596C149.909 33.3651 151.07 32.8634 151.477 31.8384L149.619 31.0996ZM149.672 30.9697L151.542 31.6796C151.547 31.6668 151.552 31.654 151.556 31.6412L149.672 30.9697ZM149.708 30.8711L151.591 31.5426C151.961 30.5065 151.424 29.3667 150.39 28.9912C149.356 28.6158 148.213 29.1456 147.832 30.1772L149.708 30.8711ZM96.2163 30.6211L98.0733 31.3639L98.0733 31.3637L96.2163 30.6211ZM96.2983 30.4082L94.4277 29.7006L94.4276 29.7008L96.2983 30.4082ZM96.3345 30.3135L98.211 31.0054C98.5931 29.9691 98.0628 28.8192 97.0265 28.437C95.9902 28.0548 94.8403 28.5851 94.458 29.6214L96.3345 30.3135ZM96.5913 29.5371L98.5099 30.1019C98.513 30.0915 98.516 30.081 98.5189 30.0705L96.5913 29.5371ZM96.4761 29.9072L94.5763 29.282C94.231 30.3311 94.8015 31.4615 95.8507 31.8069C96.8998 32.1523 98.0302 31.5819 98.3757 30.5328L96.4761 29.9072ZM96.5923 29.5361L98.5109 30.1008L98.511 30.1004L96.5923 29.5361ZM96.7026 29.1348L98.6393 29.6342C98.9134 28.5712 98.2795 27.486 97.219 27.2026C96.1586 26.9192 95.0678 27.5434 94.7751 28.6014L96.7026 29.1348ZM62.2749 29.1875L62.1083 27.1944L62.1011 27.1951L62.2749 29.1875ZM61.9758 27.2063C60.8741 27.2858 60.0454 28.2433 60.1248 29.345C60.2042 30.4467 61.1617 31.2754 62.2634 31.196L62.1196 29.2012L61.9758 27.2063ZM62.2886 29.1865L62.4572 31.1794C63.5578 31.0863 64.3745 30.1186 64.2815 29.018C64.1884 27.9174 63.2208 27.1006 62.1201 27.1936L62.2886 29.1865ZM62.5103 29.165L62.3129 27.1748L62.308 27.1753L62.5103 29.165ZM62.4272 29.1748L62.2377 27.1838C61.1382 27.2885 60.3316 28.2646 60.4362 29.3642C60.5408 30.4637 61.5169 31.2703 62.6165 31.1658L62.4272 29.1748ZM62.8062 29.1338L63.0552 31.1182C64.1511 30.9807 64.9281 29.9807 64.7906 28.8848C64.6531 27.7888 63.6531 27.0118 62.5571 27.1494L62.8062 29.1338ZM63.0493 29.0986L62.7937 27.115C62.7824 27.1165 62.7711 27.1181 62.7598 27.1197L63.0493 29.0986ZM63.0269 29.1025L62.7411 27.1231C61.6486 27.2808 60.8904 28.2938 61.0471 29.3865C61.2038 30.4792 62.2162 31.2383 63.309 31.0825L63.0269 29.1025ZM63.4418 31.0647C64.5336 30.897 65.2827 29.876 65.115 28.7842C64.9473 27.6925 63.9263 26.9434 62.8345 27.1111L63.1382 29.0879L63.4418 31.0647ZM97.1187 25.7275L95.1187 25.7277C95.1187 26.8322 96.0142 27.7276 97.1187 27.7275C98.2233 27.7275 99.1187 26.8321 99.1187 25.7275L97.1187 25.7275ZM97.0464 24.2686L99.0362 24.0672C98.925 22.9685 97.9444 22.1678 96.8456 22.2787C95.7469 22.3895 94.9459 23.3699 95.0564 24.4686L97.0464 24.2686ZM97.0483 24.3008L95.0579 24.4962L95.0581 24.4978L97.0483 24.3008ZM78.1792 26.1328L80.178 26.0629L80.178 26.0626L78.1792 26.1328ZM78.1802 26.1504L76.1815 26.2238C76.2221 27.3276 77.1497 28.1895 78.2534 28.149C79.3572 28.1086 80.2192 27.1811 80.1788 26.0773L78.1802 26.1504ZM80.1724 25.7275C80.1724 24.623 79.2769 23.7275 78.1724 23.7275C77.0678 23.7275 76.1724 24.623 76.1724 25.7275H78.1724H80.1724ZM96.6987 22.3193L94.7633 22.8234C95.0417 23.8923 96.1339 24.5331 97.2028 24.2548C98.2717 23.9764 98.9125 22.8842 98.6342 21.8153L96.6987 22.3193ZM96.6968 22.3105L94.7615 22.815L94.7617 22.816L96.6968 22.3105ZM96.6528 22.1494L98.5818 21.6212L98.5808 21.6175L96.6528 22.1494ZM96.6265 22.0557L98.5501 21.5084C98.2479 20.446 97.1416 19.8298 96.0792 20.132C95.0168 20.4342 94.4006 21.5405 94.7028 22.6029L96.6265 22.0557ZM96.5806 21.8984L94.6645 22.4717C94.9811 23.5299 96.0956 24.1311 97.1538 23.8145C98.212 23.498 98.8132 22.3835 98.4967 21.3253L96.5806 21.8984ZM96.5679 21.8516L94.6541 22.4324L94.6541 22.4325L96.5679 21.8516ZM96.5317 21.7393L98.4398 21.1398L98.4397 21.1396L96.5317 21.7393ZM96.5161 21.6914L98.4216 21.0837C98.086 20.0314 96.9608 19.4504 95.9085 19.7859C94.8562 20.1215 94.2751 21.2466 94.6106 22.2989L96.5161 21.6914ZM79.2583 21.4092L77.5854 20.3131C77.5774 20.3254 77.5695 20.3377 77.5618 20.3501L79.2583 21.4092ZM79.2222 21.4707L77.5134 20.4315C76.9394 21.3752 77.2392 22.6055 78.1829 23.1795C79.1266 23.7534 80.357 23.4537 80.9309 22.51L79.2222 21.4707ZM79.2769 21.3809L80.968 22.4485C81.5542 21.5201 81.2822 20.2927 80.3588 19.6988C79.4353 19.1048 78.2057 19.3664 77.6039 20.2848L79.2769 21.3809ZM96.4429 21.4658L94.5498 22.1111C94.9062 23.1566 96.0426 23.7152 97.0881 23.3589C98.1336 23.0025 98.6923 21.8662 98.336 20.8207L96.4429 21.4658ZM96.4399 21.457L94.5473 22.1035L94.5474 22.1038L96.4399 21.457ZM96.3735 21.2686L98.255 20.5904L98.255 20.5902L96.3735 21.2686ZM96.3521 21.2109L98.2299 20.5228C97.8499 19.4857 96.7011 18.953 95.664 19.333C94.6269 19.713 94.0942 20.8618 94.4741 21.8989L96.3521 21.2109ZM96.2827 21.0264L98.149 20.3074L98.1489 20.3071L96.2827 21.0264ZM94.4573 21.8466C94.8429 22.8817 95.9946 23.4082 97.0297 23.0226C98.0648 22.6371 98.5913 21.4854 98.2057 20.4503L96.3315 21.1484L94.4573 21.8466ZM96.27 20.9902L98.1339 20.265C97.7334 19.2357 96.5743 18.7259 95.545 19.1263C94.5156 19.5267 94.0057 20.6857 94.406 21.7151L96.27 20.9902ZM96.2261 20.8818L94.3694 21.6253L94.3695 21.6255L96.2261 20.8818ZM96.2358 20.9043L94.383 21.6573C94.7978 22.678 95.9601 23.171 96.9822 22.7598C98.0044 22.3486 98.5015 21.1882 98.094 20.1645L96.2358 20.9043ZM96.1616 20.7217L98.0073 19.9512C97.5831 18.9353 96.4178 18.4531 95.3999 18.8724C94.382 19.2917 93.8943 20.4548 94.3088 21.4747L96.1616 20.7217ZM96.1128 20.6094L94.2753 21.3991C94.7114 22.4139 95.8876 22.883 96.9024 22.4469C97.9172 22.0108 98.3864 20.8346 97.9503 19.8198L96.1128 20.6094ZM96.1108 20.6016L94.2739 21.3925C94.7107 22.407 95.8871 22.8753 96.9016 22.4386C97.9161 22.0019 98.3846 20.8255 97.9479 19.8109L96.1108 20.6016ZM96.0845 20.541L97.917 19.7398C97.4745 18.7278 96.2955 18.2661 95.2834 18.7084C94.2714 19.1508 93.8095 20.3298 94.2518 21.3419L96.0845 20.541ZM96.0552 20.4766L94.2274 21.2886L94.2275 21.2887L96.0552 20.4766ZM95.9751 20.2998L97.7893 19.4579C97.3262 18.4601 96.1443 18.0235 95.1438 18.4808C94.1433 18.938 93.6998 20.1174 94.1513 21.1205L95.9751 20.2998ZM95.9282 20.2021L94.1219 21.0607C94.5961 22.0583 95.7892 22.4826 96.7868 22.0085C97.7844 21.5344 98.2087 20.3413 97.7346 19.3437L95.9282 20.2021ZM95.8989 20.1387L97.7001 19.2693C97.2199 18.2745 96.0243 17.8574 95.0296 18.3375C94.0349 18.8176 93.6176 20.0132 94.0977 21.0079L95.8989 20.1387ZM95.9058 20.1514L94.1036 21.0186C94.5825 22.0138 95.7775 22.4325 96.7728 21.9537C97.7681 21.4748 98.1869 20.2799 97.7081 19.2845L95.9058 20.1514ZM95.8765 20.0928L97.672 19.2119C97.1859 18.221 95.989 17.8112 94.9976 18.2962C94.0061 18.7813 93.595 19.9777 94.079 20.9697L95.8765 20.0928ZM95.6616 19.6729L93.9003 20.6204L93.9004 20.6205L95.6616 19.6729ZM95.6772 19.7002L93.9135 20.6431C94.4343 21.6172 95.6461 21.9847 96.6202 21.464C97.5942 20.9432 97.9618 19.7314 97.4411 18.7573L95.6772 19.7002ZM95.6538 19.6553L97.4136 18.7049C97.4075 18.6937 97.4013 18.6825 97.3951 18.6714L95.6538 19.6553ZM95.5181 19.415L97.2555 18.4244C96.7091 17.4662 95.4901 17.1312 94.5308 17.6757C93.5715 18.2202 93.2342 19.4386 93.7768 20.3989L95.5181 19.415ZM94.7612 18.2285L93.152 19.416C93.8053 20.3014 95.0511 20.4927 95.94 19.8442C96.8289 19.1957 97.027 17.9509 96.3833 17.0585L94.7612 18.2285ZM94.6567 18.0869L96.2372 16.8613C95.566 15.9958 94.3235 15.8311 93.4501 16.4919C92.5766 17.1527 92.3971 18.3932 93.0475 19.2744L94.6567 18.0869ZM94.6938 18.1348L93.1134 19.3604C93.7883 20.2306 95.0396 20.3916 95.9127 19.7204C96.7858 19.0493 96.9521 17.7986 96.2847 16.9227L94.6938 18.1348ZM94.6313 18.0527L96.2222 16.8406C95.5546 15.9644 94.3041 15.793 93.4253 16.4573C92.5465 17.1215 92.3704 18.3714 93.0313 19.2527L94.6313 18.0527ZM90.9038 14.832L89.9296 16.5787C90.8942 17.1167 92.1124 16.7709 92.6504 15.8063C93.1885 14.8417 92.8428 13.6235 91.8782 13.0854L90.9038 14.832ZM90.7183 14.7314L91.6643 12.9693L91.6628 12.9685L90.7183 14.7314ZM90.564 14.6484L89.642 16.4233L89.6442 16.4244L90.564 14.6484ZM90.5151 14.624L91.4282 12.8446C90.4457 12.3405 89.2405 12.728 88.736 13.7103C88.2316 14.6926 88.6187 15.8979 89.6008 16.4028L90.5151 14.624ZM90.4272 14.5801L89.5282 16.3666C90.5145 16.863 91.7166 16.4661 92.2134 15.4799C92.7102 14.4937 92.3138 13.2915 91.3278 12.7943L90.4272 14.5801ZM90.3706 14.5508L91.2621 12.7605L91.2592 12.759L90.3706 14.5508ZM90.1001 14.4209L89.2521 16.2322L89.2552 16.2337L90.1001 14.4209ZM90.0571 14.4004L90.8967 12.5851C89.8944 12.1216 88.7061 12.5581 88.2422 13.5601C87.7783 14.5622 88.2143 15.7507 89.2162 16.215L90.0571 14.4004ZM90.0083 14.3779L89.1767 16.1968C90.181 16.656 91.3674 16.2143 91.8269 15.2102C92.2864 14.2061 91.8452 13.0196 90.8413 12.5597L90.0083 14.3779ZM89.9946 14.3711L90.8253 12.5518L90.8223 12.5504L89.9946 14.3711ZM89.5679 14.1855L90.3261 12.3348C89.3042 11.9162 88.1365 12.4049 87.7175 13.4266C87.2984 14.4483 87.7867 15.6162 88.8082 16.0357L89.5679 14.1855ZM142.641 16.0409C143.669 16.4452 144.83 15.9397 145.235 14.9117C145.639 13.8838 145.133 12.7228 144.106 12.3185L143.374 14.1797L142.641 16.0409ZM143.166 14.1016L143.861 12.2265C143.792 12.2009 143.722 12.1791 143.651 12.1613L143.166 14.1016ZM143.162 14.1006L143.647 12.1603C142.617 11.9028 141.565 12.4952 141.251 13.5096C140.937 14.524 141.471 15.6068 142.466 15.9759L143.162 14.1006ZM142.167 13.7803L142.692 11.8506C141.626 11.5603 140.527 12.1888 140.237 13.2545C139.946 14.3201 140.575 15.4194 141.641 15.7099L142.167 13.7803ZM142.819 13.9795L142.183 15.8757C143.229 16.2266 144.362 15.6636 144.714 14.6177C145.066 13.5718 144.505 12.4383 143.459 12.0848L142.819 13.9795ZM142.761 13.959L143.388 12.0598L143.387 12.0594L142.761 13.959ZM141.758 13.6768L141.299 15.6233C142.374 15.877 143.451 15.2111 143.705 14.1361C143.959 13.0611 143.293 11.984 142.218 11.7302L141.758 13.6768ZM141.705 13.6641L141.252 15.6122L141.254 15.6126L141.705 13.6641ZM141.546 13.6279L141.973 11.674L141.971 11.6736L141.546 13.6279ZM141.509 13.6211L141.928 11.6655C140.848 11.4341 139.785 12.1219 139.554 13.2017C139.322 14.2816 140.01 15.3448 141.09 15.5766L141.509 13.6211ZM95.8882 31.3633L94.0853 30.4976C93.6072 31.4932 94.0267 32.6879 95.0222 33.1661C96.0178 33.6443 97.2125 33.225 97.6909 32.2295L95.8882 31.3633ZM95.9312 31.2744L97.7408 32.126L97.7412 32.1252L95.9312 31.2744ZM96.0425 31.0273L97.8705 31.8387C98.3184 30.8297 97.8639 29.6486 96.8553 29.1999C95.8466 28.7513 94.6652 29.2048 94.2157 30.2131L96.0425 31.0273ZM85.3081 5.25684L85.2487 7.25595C88.2809 7.34602 91.1784 8.11078 93.8395 9.59754L94.8149 7.85156L95.7904 6.10558C92.5419 4.29066 89.0115 3.36596 85.3675 3.25772L85.3081 5.25684ZM94.8149 7.85156L93.8449 9.60056C93.8332 9.59408 93.8241 9.58885 93.819 9.58589C93.8145 9.5833 93.8111 9.58129 93.8138 9.58286C93.8145 9.58326 93.8168 9.58465 93.8193 9.5861C93.822 9.58767 93.8258 9.58989 93.8302 9.59248C93.8391 9.59763 93.8521 9.60508 93.8677 9.61378L94.8403 7.86621L95.813 6.11865C95.8242 6.12491 95.8329 6.12993 95.8376 6.13264C95.8415 6.13492 95.8447 6.1368 95.8415 6.1349C95.84 6.13402 95.8324 6.12956 95.8237 6.12453C95.8144 6.11913 95.801 6.11146 95.785 6.10256L94.8149 7.85156ZM94.8403 7.86621L96.2364 9.29831C97.3185 8.24348 98.7957 7.59494 100.428 7.59473L100.427 5.59473L100.427 3.59473C97.7117 3.59508 95.2437 4.67986 93.4442 6.43411L94.8403 7.86621ZM100.427 5.59473V7.59473H106.373V5.59473V3.59473H100.427V5.59473ZM106.373 5.59473L106.372 7.59473C107.902 7.59487 109.293 8.16658 110.353 9.10903L111.682 7.61426L113.011 6.11948C111.249 4.55355 108.923 3.59497 106.373 3.59473L106.373 5.59473ZM111.682 7.61426L113.011 9.10893C114.071 8.16644 115.464 7.59489 116.996 7.59473L116.996 5.59473L116.995 3.59473C114.446 3.59499 112.117 4.55168 110.353 6.11958L111.682 7.61426ZM116.996 5.59473V7.59473H122.941V5.59473V3.59473H116.996V5.59473ZM122.941 5.59473L122.941 7.59473C124.55 7.59494 126.006 8.22739 127.084 9.25803L128.466 7.8125L129.848 6.36697C128.058 4.65531 125.623 3.59508 122.941 3.59473L122.941 5.59473ZM128.466 7.8125L129.427 9.56645C132.228 8.03176 135.304 7.31651 138.513 7.31641L138.513 5.31641L138.513 3.31641C134.696 3.31652 130.95 4.17124 127.505 6.05855L128.466 7.8125ZM138.513 5.31641L138.486 7.31622L139.136 7.32501L139.163 5.3252L139.19 3.32538L138.54 3.31659L138.513 5.31641ZM139.163 5.3252L139.108 7.32446C141.647 7.39335 144.082 7.90785 146.335 8.92154L147.156 7.09766L147.976 5.27378C145.193 4.02151 142.23 3.40769 139.217 3.32593L139.163 5.3252ZM147.156 7.09766L148.322 8.72235C149.327 8.00072 150.545 7.5949 151.818 7.59473L151.818 5.59473L151.818 3.59473C149.69 3.59502 147.66 4.27384 145.989 5.47296L147.156 7.09766ZM151.818 5.59473V7.59473H158.598V5.59473V3.59473H151.818V5.59473ZM158.598 5.59473L158.562 7.59441L158.781 7.59831L158.817 5.59863L158.853 3.59895L158.634 3.59505L158.598 5.59473ZM158.817 5.59863L158.763 7.5979L158.799 7.59888L158.853 5.59961L158.907 3.60034L158.871 3.59936L158.817 5.59863ZM158.853 5.59961L158.78 7.59829C159.994 7.64236 161.143 8.0537 162.094 8.74712L163.272 7.13086L164.45 5.51459C162.87 4.36275 160.955 3.67459 158.926 3.60093L158.853 5.59961ZM163.272 7.13086L164.45 8.7473C165.458 8.01258 166.689 7.5949 167.984 7.59473L167.984 5.59473L167.984 3.59473C165.822 3.59502 163.771 4.29283 162.094 5.51442L163.272 7.13086ZM167.984 5.59473V7.59473H174.659V5.59473V3.59473H167.984V5.59473ZM174.659 5.59473V7.59473C176.752 7.59473 178.695 8.68622 179.783 10.4747L181.492 9.43457L183.2 8.39448C181.385 5.41404 178.148 3.59473 174.659 3.59473V5.59473ZM181.492 9.43457L179.783 10.4745C180.872 12.2629 180.95 14.4893 179.988 16.3492L181.765 17.2676L183.542 18.1859C185.144 15.0858 185.014 11.3751 183.2 8.39464L181.492 9.43457ZM181.765 17.2676L179.989 16.3491L172.434 30.9614L174.21 31.8799L175.987 32.7984L183.542 18.1861L181.765 17.2676ZM174.21 31.8799H172.21V38H174.21H176.21V31.8799H174.21ZM174.21 38H172.21C172.21 41.3137 169.524 44 166.21 44V46V48C171.733 48 176.21 43.5228 176.21 38H174.21ZM166.21 46V44H160.266V46V48H166.21V46ZM160.266 46L160.266 44C157.65 43.9996 155.419 42.3223 154.601 39.9776L152.712 40.6367L150.824 41.2959C152.186 45.1958 155.895 47.9994 160.266 48L160.266 46ZM152.712 40.6367L151.312 39.2087C150.761 39.7494 150.166 40.2584 149.527 40.7325L150.718 42.3389L151.91 43.9453C152.696 43.362 153.43 42.7337 154.113 42.0647L152.712 40.6367ZM150.718 42.3389L149.054 41.2295L149.052 41.2324L150.716 42.3418L152.38 43.4512L152.382 43.4483L150.718 42.3389ZM150.716 42.3418L149.511 40.7457C149.516 40.7419 149.52 40.7391 149.521 40.7382C149.522 40.7376 149.523 40.7372 149.523 40.7369C149.523 40.7367 149.523 40.7365 149.523 40.7365C149.523 40.7365 149.523 40.7366 149.523 40.7368C149.523 40.737 149.522 40.7372 149.522 40.7375C149.521 40.7382 149.52 40.7391 149.518 40.7402C149.515 40.7425 149.512 40.7451 149.507 40.7486C149.502 40.7518 149.497 40.7557 149.492 40.7597L150.672 42.374L151.853 43.9884C151.858 43.9851 151.862 43.9818 151.867 43.9784C151.871 43.9751 151.876 43.9716 151.881 43.9682C151.885 43.965 151.89 43.961 151.896 43.957C151.9 43.9542 151.91 43.9466 151.922 43.9379L150.716 42.3418ZM150.672 42.374L149.258 40.9598L149.257 40.9608L150.671 42.375L152.086 43.7892L152.087 43.7882L150.672 42.374ZM150.671 42.375L149.492 40.7598C146.467 42.9687 142.972 44.0359 139.26 44.1613L139.328 46.1602L139.395 48.159C143.807 48.01 148.101 46.7283 151.851 43.9902L150.671 42.375ZM139.328 46.1602L139.294 44.1604L138.48 44.1741L138.513 46.1738L138.547 48.1735L139.361 48.1599L139.328 46.1602ZM138.513 46.1738L138.513 44.1738C135.321 44.1737 132.258 43.4759 129.462 41.9735L128.515 43.7354L127.569 45.4972C131.003 47.3421 134.726 48.1737 138.513 48.1738L138.513 46.1738ZM128.515 43.7354L127.121 42.3013C126.084 43.3094 124.689 43.9447 123.145 43.9962L123.211 45.9951L123.278 47.994C125.858 47.9079 128.188 46.8424 129.909 45.1694L128.515 43.7354ZM123.211 45.9951L123.175 43.9954L122.905 44.0003L122.941 46L122.977 47.9997L123.248 47.9948L123.211 45.9951ZM122.941 46V44H116.996V46V48H122.941V46ZM116.996 46L116.996 44C116.635 44 116.279 43.9665 115.93 43.9037L115.576 45.8721L115.221 47.8404C115.794 47.9435 116.387 47.9999 116.995 48L116.996 46ZM115.576 45.8721L115.221 43.9037C114.987 43.9459 114.754 43.9749 114.523 43.9891L114.645 45.9854L114.767 47.9816C115.168 47.9571 115.556 47.9077 115.93 47.8404L115.576 45.8721ZM114.645 45.9854L114.585 43.9863L114.099 44.0009L114.16 46L114.22 47.9991L114.705 47.9844L114.645 45.9854ZM114.16 46V44H100.427V46V48H114.16V46ZM100.427 46L100.428 44C98.7704 43.9998 97.274 43.3298 96.1875 42.2443L94.7739 43.6592L93.3604 45.0741C95.1651 46.8771 97.666 47.9996 100.427 48L100.427 46ZM94.7739 43.6592L93.8024 41.911C91.1514 43.3843 88.2681 44.1443 85.2514 44.2343L85.311 46.2334L85.3707 48.2325C88.998 48.1243 92.5109 47.205 95.7455 45.4073L94.7739 43.6592ZM85.311 46.2334L85.282 44.2336L84.6101 44.2434L84.6392 46.2432L84.6682 48.243L85.3401 48.2332L85.311 46.2334ZM84.6392 46.2432L84.6392 44.2432C81.3732 44.2431 78.2552 43.4722 75.4026 41.8913L74.4331 43.6406L73.4636 45.3899C76.9357 47.3142 80.7253 48.243 84.6391 48.2432L84.6392 46.2432ZM74.4331 43.6406L75.4044 41.8923L75.3692 41.8728L74.3979 43.6211L73.4267 45.3694L73.4618 45.3889L74.4331 43.6406ZM74.3979 43.6211L75.3765 41.8768C72.5783 40.307 70.322 38.1044 68.6628 35.3622L66.9517 36.3975L65.2405 37.4328C67.2512 40.7562 70.0082 43.4516 73.4194 45.3653L74.3979 43.6211ZM66.9517 36.3975L66.3635 34.4859C65.891 34.6313 65.4158 34.7534 64.9395 34.8525L65.3472 36.8105L65.7548 38.7686C66.3528 38.6441 66.9484 38.491 67.5398 38.309L66.9517 36.3975ZM65.3472 36.8105H63.3472V38H65.3472H67.3472V36.8105H65.3472ZM65.3472 38H63.3472C63.3472 41.2092 60.8261 43.8308 57.6578 43.9918L57.7593 45.9893L57.8608 47.9867C63.145 47.7182 67.3472 43.351 67.3472 38H65.3472ZM57.7593 45.9893L57.7072 43.9899L57.2951 44.0007L57.3472 46L57.3993 47.9993L57.8114 47.9886L57.7593 45.9893ZM57.3472 46V44H50.4019V46V48H57.3472V46ZM46.0005 40.0171H48.0005V11.5776H46.0005H44.0005V40.0171H46.0005ZM50.4019 5.59473V7.59473H61.0317V5.59473V3.59473H50.4019V5.59473ZM61.0317 5.59473L61.0317 7.59473C63.6442 7.59477 66.2662 8.04342 68.6521 9.23617L69.5464 7.44727L70.4407 5.65836C67.3595 4.11798 64.087 3.59478 61.0318 3.59473L61.0317 5.59473ZM69.5464 7.44727L68.6519 9.2361C69.5126 9.66649 70.3248 10.1796 71.0745 10.7746L72.3179 9.20801L73.5612 7.64143C72.5863 6.86769 71.5389 6.20747 70.4409 5.65843L69.5464 7.44727ZM72.3179 9.20801L73.5001 10.8212C74.0846 10.3928 74.6979 9.99648 75.3395 9.6346L74.3569 7.89258L73.3744 6.15056C72.594 6.5907 71.8475 7.07315 71.1356 7.59486L72.3179 9.20801ZM74.3569 7.89258L75.3765 9.61316L75.4029 9.59754L74.3833 7.87695L73.3637 6.15637L73.3373 6.172L74.3569 7.89258ZM74.3833 7.87695L75.3719 9.61553L75.4217 9.58721L74.4331 7.84863L73.4445 6.11005L73.3947 6.13837L74.3833 7.87695ZM74.4331 7.84863L75.4026 9.59796C78.2552 8.01705 81.3732 7.24718 84.6392 7.24707L84.6392 5.24707L84.6391 3.24707C80.7261 3.2472 76.9364 4.17471 73.4636 6.09931L74.4331 7.84863ZM84.6392 5.24707L84.61 7.24686L85.2789 7.25662L85.3081 5.25684L85.3373 3.25705L84.6684 3.24728L84.6392 5.24707ZM143.05 37.4414L142.317 35.5805C142.297 35.5884 142.281 35.5952 142.273 35.5986C142.269 35.6003 142.265 35.602 142.263 35.6025C142.261 35.6033 142.262 35.6032 142.263 35.6028C142.264 35.6021 142.274 35.5982 142.287 35.593C142.301 35.5877 142.321 35.5797 142.347 35.5707L143.006 37.459L143.665 39.3473C143.729 39.3252 143.779 39.3043 143.794 39.298C143.799 39.2961 143.803 39.2945 143.804 39.2938C143.807 39.2928 143.806 39.2929 143.806 39.2931C143.805 39.2935 143.796 39.2973 143.783 39.3023L143.05 37.4414ZM143.006 37.459L142.348 35.5706C142.362 35.5655 142.374 35.5617 142.381 35.5596C142.387 35.5574 142.391 35.5563 142.39 35.5566C142.389 35.5568 142.388 35.5572 142.386 35.5579C142.384 35.5583 142.383 35.5587 142.381 35.5592C142.38 35.5597 142.378 35.5603 142.376 35.5609C142.367 35.5634 142.353 35.5676 142.337 35.5725L142.924 37.4844L143.511 39.3963C143.509 39.397 143.509 39.3971 143.514 39.3954C143.517 39.3945 143.53 39.3908 143.541 39.3875C143.564 39.3804 143.611 39.3664 143.665 39.3474L143.006 37.459ZM142.924 37.4844L142.28 35.5909C142.255 35.5995 142.235 35.607 142.221 35.6119C142.215 35.6144 142.209 35.6165 142.205 35.6179C142.202 35.6192 142.198 35.6205 142.198 35.6207C142.196 35.6212 142.198 35.6208 142.199 35.6202C142.201 35.6195 142.205 35.6182 142.209 35.6164C142.218 35.613 142.235 35.607 142.256 35.5999L142.895 37.4951L143.534 39.3903C143.56 39.3815 143.581 39.3738 143.595 39.3686C143.603 39.3659 143.609 39.3637 143.613 39.3621C143.617 39.3605 143.62 39.3592 143.622 39.3588C143.623 39.3581 143.622 39.3584 143.621 39.3588C143.62 39.3593 143.617 39.3605 143.613 39.3621C143.604 39.3652 143.589 39.371 143.568 39.3779L142.924 37.4844ZM142.895 37.4951L143.533 39.3908C143.529 39.392 143.525 39.3931 143.553 39.3845C143.572 39.3785 143.616 39.3646 143.666 39.3472L143.006 37.459L142.347 35.5707C142.36 35.5662 142.367 35.5642 142.349 35.5699C142.343 35.5717 142.328 35.5764 142.315 35.5807C142.3 35.5855 142.28 35.5919 142.257 35.5995L142.895 37.4951ZM143.006 37.459L143.665 39.3473C143.693 39.3375 143.717 39.3288 143.733 39.3226C143.748 39.3167 143.762 39.3114 143.766 39.3097C143.773 39.3068 143.77 39.3081 143.766 39.3097C143.761 39.3116 143.749 39.3163 143.732 39.3222L143.063 37.4375L142.394 35.5528C142.368 35.562 142.346 35.5703 142.331 35.5759C142.318 35.581 142.305 35.586 142.303 35.5869C142.298 35.5889 142.302 35.5873 142.308 35.585C142.315 35.5824 142.329 35.5771 142.347 35.5707L143.006 37.459ZM143.063 37.4375L142.395 35.5523C142.414 35.5456 142.431 35.5399 142.445 35.5353C142.46 35.5307 142.472 35.5269 142.481 35.5241C142.49 35.5213 142.498 35.5192 142.502 35.5179C142.506 35.5168 142.509 35.5159 142.508 35.5162C142.508 35.5162 142.507 35.5165 142.506 35.5169C142.504 35.5173 142.502 35.5179 142.499 35.5187C142.494 35.5202 142.486 35.5226 142.476 35.5256C142.466 35.5287 142.452 35.5327 142.437 35.5376C142.422 35.5425 142.404 35.5484 142.385 35.5554L143.05 37.4414L143.716 39.3274C143.697 39.334 143.68 39.3396 143.666 39.3441C143.652 39.3487 143.64 39.3524 143.631 39.3551C143.622 39.3579 143.615 39.36 143.611 39.3612C143.607 39.3622 143.604 39.3631 143.605 39.3628C143.605 39.3627 143.61 39.3615 143.615 39.3601C143.62 39.3585 143.628 39.356 143.639 39.3529C143.649 39.3498 143.662 39.3457 143.678 39.3408C143.693 39.3358 143.711 39.3298 143.731 39.3227L143.063 37.4375ZM90.9312 36.6445L89.9527 34.9002C89.7144 35.0339 89.4653 35.1592 89.2052 35.2789L90.0415 37.0957L90.8778 38.9125C91.2193 38.7553 91.5649 38.5822 91.9096 38.3889L90.9312 36.6445ZM90.0415 37.0957L90.9076 38.8984L91.3568 38.6826L90.4907 36.8799L89.6246 35.0771L89.1754 35.293L90.0415 37.0957ZM90.4907 36.8799L91.3935 38.6645C91.5705 38.575 91.7427 38.4825 91.9096 38.3889L90.9312 36.6445L89.9527 34.9002C89.8285 34.9699 89.7071 35.0349 89.588 35.0952L90.4907 36.8799ZM82.5103 32.5283L81.9363 34.4442C81.9797 34.4572 82.0176 34.4675 82.0372 34.4728C82.0423 34.4742 82.0475 34.4756 82.0512 34.4766C82.0552 34.4777 82.0581 34.4784 82.0607 34.4791C82.0659 34.4805 82.067 34.4809 82.0662 34.4806L82.6089 32.5557L83.1515 30.6307C83.1343 30.6258 83.119 30.6216 83.1077 30.6186C83.102 30.617 83.0966 30.6156 83.0925 30.6145C83.0879 30.6132 83.0848 30.6124 83.0817 30.6116C83.0684 30.608 83.0734 30.6092 83.0842 30.6124L82.5103 32.5283ZM82.6089 32.5557L83.152 30.6308C83.1049 30.6175 83.0664 30.6062 83.0331 30.5957L82.4341 32.5039L81.8351 34.4121C81.9173 34.4379 81.9954 34.4607 82.0658 34.4805L82.6089 32.5557ZM82.4341 32.5039L81.8236 34.4085L81.8998 34.4329L82.5103 32.5283L83.1207 30.6238L83.0445 30.5993L82.4341 32.5039ZM95.7153 31.71L97.4896 32.6329C97.5011 32.6109 97.5479 32.5225 97.5815 32.4556L95.7944 31.5576L94.0074 30.6596C93.9896 30.695 93.9824 30.7075 93.941 30.787L95.7153 31.71ZM95.7944 31.5576L97.5818 32.455C97.5887 32.4412 97.5956 32.4275 97.6023 32.4141L95.812 31.5225L94.0218 30.6308C94.0168 30.6408 94.0119 30.6506 94.0071 30.6602L95.7944 31.5576ZM95.812 31.5225L97.602 32.4147C97.6118 32.395 97.6202 32.3776 97.6228 32.3721C97.6237 32.3701 97.6241 32.3693 97.6247 32.3682C97.6251 32.3673 97.6252 32.367 97.6252 32.367C97.6252 32.367 97.625 32.3676 97.6245 32.3685C97.6241 32.3694 97.6234 32.3709 97.6225 32.3727L95.8296 31.4863L94.0367 30.6C94.032 30.6095 94.028 30.6177 94.0251 30.6237C94.0225 30.6292 94.0198 30.6348 94.0189 30.6367C94.0175 30.6396 94.0175 30.6396 94.0178 30.6388C94.0183 30.6379 94.0198 30.6347 94.0221 30.6302L95.812 31.5225ZM95.8296 31.4863L94.0365 30.6005C94.0098 30.6544 93.9804 30.7113 93.9408 30.7874L95.7153 31.71L97.4898 32.6326C97.5276 32.5599 97.5752 32.4683 97.6227 32.3722L95.8296 31.4863ZM96.0542 31.001L97.8828 31.811C97.8718 31.8359 97.8626 31.8549 97.858 31.8644C97.8541 31.8724 97.8507 31.8791 97.8542 31.8722C97.8558 31.869 97.8637 31.8532 97.8726 31.835C97.8819 31.8157 97.8956 31.7868 97.9109 31.7518L96.0786 30.9502L94.2463 30.1486C94.2579 30.1221 94.2675 30.1018 94.2728 30.0909C94.2755 30.0853 94.2776 30.0812 94.2785 30.0793C94.2793 30.0778 94.2797 30.0769 94.2787 30.079C94.2781 30.0802 94.2757 30.085 94.2732 30.0899C94.2706 30.0952 94.2667 30.1029 94.2623 30.112C94.2536 30.1299 94.2404 30.1574 94.2256 30.191L96.0542 31.001ZM96.0786 30.9502L97.9252 31.7185L98.0365 31.4509L96.1899 30.6826L94.3434 29.9143L94.2321 30.1819L96.0786 30.9502ZM96.1899 30.6826L94.3372 29.9294C94.3041 30.0107 94.2671 30.0968 94.2242 30.194L96.0542 31.001L97.8842 31.8079C97.9344 31.694 97.9888 31.5683 98.0427 31.4358L96.1899 30.6826ZM149.619 31.0996L151.477 31.8384C151.475 31.8447 151.474 31.8474 151.475 31.8436C151.477 31.838 151.479 31.8346 151.486 31.819C151.495 31.7966 151.518 31.7425 151.542 31.6796L149.672 30.9697L147.803 30.2599C147.81 30.2408 147.815 30.23 147.806 30.2507C147.803 30.2567 147.796 30.2748 147.789 30.2907C147.781 30.3085 147.771 30.3328 147.76 30.3608L149.619 31.0996ZM149.672 30.9697L151.556 31.6412L151.591 31.5426L149.708 30.8711L147.824 30.1996L147.788 30.2982L149.672 30.9697ZM149.708 30.8711L147.832 30.1772C147.813 30.2289 147.796 30.2689 147.757 30.368L149.619 31.0996L151.48 31.8313C151.501 31.7787 151.546 31.6671 151.583 31.565L149.708 30.8711ZM96.1899 30.6826L98.0427 31.4357C98.0372 31.4492 98.033 31.459 98.0315 31.4625C98.0304 31.465 98.0296 31.467 98.0328 31.4595C98.035 31.4546 98.0407 31.4416 98.0471 31.4268C98.0538 31.4113 98.063 31.3896 98.0733 31.3639L96.2163 30.6211L94.3594 29.8783C94.3655 29.863 94.3704 29.8515 94.3726 29.8463C94.3746 29.8417 94.3758 29.8389 94.3735 29.8442C94.3723 29.847 94.3669 29.8592 94.3614 29.8719C94.3554 29.8856 94.3468 29.9057 94.3371 29.9295L96.1899 30.6826ZM96.2163 30.6211L98.0733 31.3637C98.1098 31.2726 98.1434 31.1836 98.169 31.1157L96.2983 30.4082L94.4276 29.7008C94.3995 29.7752 94.3793 29.8284 94.3593 29.8785L96.2163 30.6211ZM96.2983 30.4082L98.169 31.1158C98.172 31.1077 98.1746 31.1013 98.1827 31.0802C98.1893 31.063 98.1998 31.0358 98.211 31.0054L96.3345 30.3135L94.458 29.6216C94.4458 29.6545 94.4598 29.6157 94.4277 29.7006L96.2983 30.4082ZM96.3345 30.3135L94.458 29.6214C94.4239 29.714 94.3847 29.8125 94.3372 29.9294L96.1899 30.6826L98.0427 31.4358C98.0947 31.308 98.1536 31.161 98.2109 31.0056L96.3345 30.3135ZM96.5913 29.5371L94.6727 28.9723C94.6418 29.0773 94.6097 29.1805 94.5763 29.282L96.4761 29.9072L98.3758 30.5325C98.4231 30.3888 98.4677 30.2452 98.5099 30.1019L96.5913 29.5371ZM96.4761 29.9072L98.3757 30.5328C98.4211 30.395 98.4669 30.2505 98.5109 30.1008L96.5923 29.5361L94.6736 28.9715C94.6444 29.0709 94.612 29.1736 94.5764 29.2817L96.4761 29.9072ZM96.5923 29.5361L98.511 30.1004C98.5574 29.9428 98.5999 29.7871 98.6393 29.6342L96.7026 29.1348L94.766 28.6354C94.736 28.7518 94.7053 28.8637 94.6735 28.9719L96.5923 29.5361ZM96.7026 29.1348L94.7751 28.6014L94.6637 29.0038L96.5913 29.5371L98.5189 30.0705L98.6302 29.6681L96.7026 29.1348ZM62.2749 29.1875L62.1011 27.1951C61.9989 27.204 62.0121 27.2037 61.9758 27.2063L62.1196 29.2012L62.2634 31.196C62.3311 31.1911 62.448 31.18 62.4487 31.1799L62.2749 29.1875ZM62.1196 29.2012L62.2634 31.196C62.3111 31.1926 62.3545 31.1887 62.3854 31.1859C62.4219 31.1826 62.4375 31.1811 62.457 31.1794L62.2886 29.1865L62.1201 27.1936C62.0053 27.2033 62.0247 27.2028 61.9758 27.2063L62.1196 29.2012ZM62.2886 29.1865L62.12 27.1936C62.1313 27.1927 62.1403 27.192 62.1453 27.1917C62.1499 27.1914 62.1535 27.1911 62.1518 27.1912C62.1515 27.1913 62.1498 27.1914 62.148 27.1915C62.146 27.1916 62.143 27.1918 62.1395 27.1921C62.1325 27.1926 62.1216 27.1933 62.1083 27.1944L62.2749 29.1875L62.4415 31.1806C62.4305 31.1815 62.4219 31.1821 62.4172 31.1824C62.4148 31.1826 62.4129 31.1827 62.4121 31.1828C62.4114 31.1828 62.4108 31.1828 62.4117 31.1828C62.4122 31.1828 62.4182 31.1824 62.425 31.1819C62.4323 31.1814 62.4436 31.1806 62.4572 31.1794L62.2886 29.1865ZM62.5103 29.165L62.308 27.1753C62.2836 27.1778 62.2627 27.1802 62.2479 27.182C62.2342 27.1837 62.2205 27.1854 62.2163 27.186C62.2095 27.1869 62.2103 27.1867 62.2129 27.1864C62.2161 27.1861 62.2251 27.185 62.2377 27.1838L62.4272 29.1748L62.6167 31.1658C62.6433 31.1633 62.6662 31.1607 62.6832 31.1587C62.6997 31.1567 62.7143 31.1549 62.7214 31.154C62.7259 31.1534 62.7276 31.1532 62.7298 31.1529C62.7316 31.1527 62.7318 31.1527 62.7312 31.1527C62.7301 31.1529 62.7231 31.1537 62.7125 31.1548L62.5103 29.165ZM62.4272 29.1748L62.6165 31.1658C62.7559 31.1526 62.9037 31.1372 63.0552 31.1182L62.8062 29.1338L62.5571 27.1494C62.4592 27.1616 62.3543 27.1727 62.238 27.1838L62.4272 29.1748ZM62.8062 29.1338L62.5571 27.1494C62.4929 27.1574 62.4313 27.1631 62.3129 27.1748L62.5103 29.165L62.7076 31.1553C62.7883 31.1473 62.9242 31.1347 63.0552 31.1182L62.8062 29.1338ZM63.0493 29.0986L62.7598 27.1197C62.7312 27.1239 62.7079 27.1279 62.6932 27.1305C62.6857 27.1318 62.6795 27.133 62.6755 27.1337C62.6717 27.1344 62.6683 27.1351 62.668 27.1351C62.6668 27.1353 62.6686 27.135 62.6708 27.1346C62.6733 27.1341 62.678 27.1333 62.6839 27.1322C62.6955 27.1302 62.7157 27.1267 62.7411 27.1231L63.0269 29.1025L63.3126 31.082C63.3418 31.0778 63.3657 31.0737 63.3811 31.071C63.3889 31.0696 63.3954 31.0684 63.3998 31.0676C63.4039 31.0669 63.4075 31.0662 63.4082 31.0661C63.4097 31.0658 63.4082 31.0661 63.4063 31.0664C63.4042 31.0668 63.3998 31.0676 63.3942 31.0686C63.3833 31.0705 63.3637 31.0739 63.3389 31.0776L63.0493 29.0986ZM63.0269 29.1025L63.309 31.0825C63.3044 31.0832 63.3003 31.0837 63.3276 31.0803C63.3463 31.078 63.3912 31.0725 63.4418 31.0647L63.1382 29.0879L62.8345 27.1111C62.8484 27.1089 62.8561 27.1081 62.8377 27.1104C62.8319 27.1111 62.8168 27.113 62.8031 27.1147C62.788 27.1166 62.7678 27.1193 62.7447 27.1225L63.0269 29.1025ZM63.1382 29.0879L62.8345 27.1111C62.8506 27.1086 62.8628 27.107 62.869 27.1063C62.8748 27.1055 62.8778 27.1052 62.8737 27.1057C62.8714 27.1059 62.8695 27.1061 62.8648 27.1067C62.8608 27.1071 62.8549 27.1077 62.8485 27.1085C62.8357 27.1099 62.8163 27.1121 62.7937 27.115L63.0493 29.0986L63.305 31.0822C63.2972 31.0832 63.2926 31.0837 63.2947 31.0835C63.2956 31.0834 63.2972 31.0832 63.3006 31.0828C63.3033 31.0825 63.3088 31.0819 63.314 31.0814C63.3332 31.0792 63.3831 31.0737 63.4418 31.0647L63.1382 29.0879ZM97.1187 25.7275L99.1187 25.7275C99.1186 25.1659 99.0914 24.6124 99.0362 24.0672L97.0464 24.2686L95.0566 24.47C95.0977 24.8764 95.1186 25.2954 95.1187 25.7276L97.1187 25.7275ZM97.0464 24.2686L95.0564 24.4686C95.0529 24.4334 95.0511 24.4052 95.0502 24.3891C95.0497 24.3809 95.0494 24.3745 95.0492 24.371C95.0491 24.3679 95.049 24.3656 95.0491 24.3673C95.0491 24.3678 95.0493 24.3726 95.0495 24.3779C95.0498 24.3837 95.0502 24.3924 95.0508 24.403C95.0519 24.4236 95.054 24.4564 95.0579 24.4962L97.0483 24.3008L99.0388 24.1054C99.0422 24.1398 99.0439 24.1672 99.0447 24.1825C99.0451 24.1903 99.0454 24.1964 99.0456 24.1995C99.0457 24.2021 99.0458 24.2042 99.0457 24.2021C99.0456 24.2011 99.0454 24.196 99.0452 24.1903C99.0449 24.1841 99.0444 24.175 99.0438 24.1641C99.0426 24.1426 99.0404 24.1091 99.0364 24.0685L97.0464 24.2686ZM97.0483 24.3008L95.0581 24.4978C95.0978 24.8987 95.1186 25.3084 95.1187 25.7277L97.1187 25.7275L99.1187 25.7274C99.1186 25.1753 99.0911 24.6341 99.0386 24.1037L97.0483 24.3008ZM78.1792 26.1328L76.1804 26.2027C76.1812 26.2238 76.1821 26.2411 76.1827 26.2523C76.1831 26.258 76.1833 26.2627 76.1835 26.266C76.1837 26.269 76.1839 26.2717 76.184 26.2722C76.184 26.2735 76.184 26.2724 76.1839 26.2712C76.1838 26.2697 76.1836 26.2666 76.1834 26.2627C76.1829 26.255 76.1822 26.2411 76.1815 26.2234L78.1802 26.1504L80.1788 26.0773C80.1781 26.0568 80.1772 26.04 80.1766 26.0293C80.1762 26.0239 80.176 26.0194 80.1758 26.0164C80.1756 26.0137 80.1754 26.0112 80.1754 26.011C80.1754 26.0101 80.1754 26.0113 80.1755 26.0129C80.1756 26.0146 80.1758 26.0179 80.1761 26.0221C80.1766 26.0304 80.1773 26.0448 80.178 26.0629L78.1792 26.1328ZM78.1802 26.1504L80.1788 26.077C80.1746 25.9616 80.1724 25.8451 80.1724 25.7275H78.1724H76.1724C76.1724 25.8956 76.1755 26.0611 76.1815 26.2238L78.1802 26.1504ZM78.1724 25.7275H76.1724C76.1724 25.8852 76.1748 26.0439 76.1804 26.2031L78.1792 26.1328L80.178 26.0626C80.1742 25.9551 80.1724 25.8435 80.1724 25.7275H78.1724ZM96.6987 22.3193L98.6342 21.8153C98.643 21.849 98.6491 21.8763 98.6526 21.8925C98.6544 21.9008 98.6558 21.9075 98.6566 21.9113C98.6573 21.9148 98.6579 21.9177 98.6577 21.9167C98.6577 21.9166 98.6575 21.9156 98.6572 21.9144C98.657 21.9131 98.6566 21.9111 98.6561 21.9087C98.6551 21.904 98.6535 21.8966 98.6516 21.8874C98.6477 21.8695 98.6411 21.8405 98.6318 21.8051L96.6968 22.3105L94.7617 22.816C94.7528 22.7821 94.7466 22.7545 94.743 22.7381C94.7412 22.7296 94.7398 22.7229 94.739 22.7189C94.7382 22.7153 94.7376 22.7123 94.7378 22.7132C94.7378 22.7132 94.738 22.7142 94.7382 22.7153C94.7385 22.7165 94.7389 22.7185 94.7394 22.7208C94.7403 22.7254 94.7418 22.7327 94.7438 22.7418C94.7476 22.7594 94.7541 22.7882 94.7633 22.8234L96.6987 22.3193ZM96.6968 22.3105L98.6321 21.8061C98.614 21.7367 98.5899 21.6508 98.5818 21.6212L96.6528 22.1494L94.7239 22.6777C94.7451 22.7554 94.7514 22.7765 94.7615 22.815L96.6968 22.3105ZM96.6528 22.1494L98.5808 21.6175C98.5699 21.578 98.5592 21.5402 98.5501 21.5084L96.6265 22.0557L94.7028 22.603C94.7115 22.6335 94.7185 22.6582 94.7249 22.6813L96.6528 22.1494ZM96.6265 22.0557L94.7028 22.6029C94.7255 22.6827 94.7454 22.7549 94.7633 22.8233L96.6987 22.3193L98.6342 21.8153C98.606 21.7071 98.5772 21.6037 98.5502 21.5085L96.6265 22.0557ZM96.5806 21.8984L98.4966 21.3252C98.5032 21.3471 98.5078 21.3642 98.5101 21.3727C98.512 21.3799 98.5135 21.3859 98.5119 21.3794C98.5111 21.3764 98.5074 21.3619 98.503 21.3453C98.4982 21.3277 98.491 21.3016 98.4816 21.2706L96.5679 21.8516L94.6541 22.4325C94.6471 22.4093 94.642 22.391 94.6394 22.3812C94.6381 22.3761 94.6371 22.3724 94.6367 22.3707C94.6363 22.3693 94.6361 22.3685 94.6366 22.3705C94.6369 22.3717 94.638 22.3761 94.6392 22.3806C94.6404 22.3855 94.6423 22.3925 94.6445 22.4008C94.6488 22.4171 94.6556 22.442 94.6645 22.4717L96.5806 21.8984ZM96.5679 21.8516L98.4817 21.2708C98.4689 21.2285 98.4566 21.1912 98.4502 21.1716C98.4461 21.1592 98.4445 21.1542 98.4422 21.1473C98.4404 21.1417 98.4398 21.1398 98.4398 21.1398L96.5317 21.7393L94.6237 22.3387C94.6296 22.3575 94.635 22.3742 94.6393 22.3873C94.6431 22.3992 94.6476 22.4129 94.6497 22.4191C94.6555 22.4369 94.6554 22.4369 94.6541 22.4324L96.5679 21.8516ZM96.5317 21.7393L98.4397 21.1396C98.432 21.1149 98.4248 21.0934 98.4223 21.086C98.4206 21.0806 98.4202 21.0796 98.4199 21.0784C98.4197 21.0779 98.4204 21.08 98.4216 21.0837L96.5161 21.6914L94.6107 22.2991C94.6144 22.3108 94.6177 22.3209 94.6201 22.3283C94.6224 22.3351 94.6247 22.3421 94.6255 22.3447C94.6268 22.3484 94.6269 22.3488 94.6267 22.3482C94.6265 22.3474 94.6254 22.344 94.6238 22.3389L96.5317 21.7393ZM96.5161 21.6914L94.6106 22.2989C94.632 22.3661 94.6492 22.4206 94.6645 22.4716L96.5806 21.8984L98.4967 21.3253C98.4705 21.2377 98.4441 21.1544 98.4216 21.0839L96.5161 21.6914ZM79.2583 21.4092L77.5618 20.3501C77.5465 20.3744 77.5339 20.3955 77.5248 20.4111C77.5159 20.4262 77.5084 20.4394 77.5049 20.4454C77.5 20.454 77.5008 20.4526 77.5011 20.4521C77.5022 20.4502 77.5067 20.4424 77.5134 20.4315L79.2222 21.4707L80.931 22.5099C80.9438 22.4888 80.9544 22.4708 80.9614 22.4586C80.965 22.4524 80.9682 22.447 80.9704 22.4431C80.9721 22.4401 80.975 22.4351 80.9754 22.4344C80.9778 22.4301 80.9762 22.4329 80.9734 22.4377C80.9702 22.4431 80.9638 22.454 80.9549 22.4683L79.2583 21.4092ZM79.2222 21.4707L80.9309 22.51C80.938 22.4983 80.9445 22.4875 80.9495 22.4792C80.9553 22.4696 80.9581 22.4649 80.9619 22.4587C80.9687 22.4474 80.9696 22.4461 80.968 22.4485L79.2769 21.3809L77.5857 20.3132C77.5655 20.3452 77.5481 20.3738 77.5368 20.3926C77.5215 20.418 77.5205 20.4197 77.5134 20.4314L79.2222 21.4707ZM79.2769 21.3809L77.6039 20.2848L77.5854 20.3131L79.2583 21.4092L80.9312 22.5052L80.9498 22.4769L79.2769 21.3809ZM96.4429 21.4658L98.3359 20.8205C98.3379 20.8263 98.3394 20.8308 98.3402 20.8332C98.3409 20.8353 98.3415 20.8371 98.341 20.8358C98.3409 20.8353 98.3398 20.832 98.3385 20.8281C98.3371 20.824 98.335 20.8178 98.3325 20.8103L96.4399 21.457L94.5474 22.1038C94.5453 22.0978 94.5438 22.093 94.5429 22.0904C94.5421 22.088 94.5415 22.0861 94.5418 22.0871C94.5418 22.0872 94.5429 22.0905 94.5441 22.094C94.5454 22.0979 94.5474 22.1039 94.5498 22.1111L96.4429 21.4658ZM96.4399 21.457L98.3326 20.8106C98.306 20.7328 98.2796 20.6585 98.255 20.5904L96.3735 21.2686L94.492 21.9467C94.5126 22.0039 94.5308 22.0551 94.5473 22.1035L96.4399 21.457ZM96.3735 21.2686L98.255 20.5902C98.2459 20.565 98.2375 20.5428 98.2339 20.5332C98.2287 20.5196 98.2293 20.521 98.2299 20.5228L96.3521 21.2109L94.4742 21.8991C94.4784 21.9106 94.4822 21.9208 94.4851 21.9285C94.4877 21.9355 94.4906 21.9431 94.4918 21.9462C94.4954 21.9558 94.4942 21.9529 94.4921 21.947L96.3735 21.2686ZM96.3521 21.2109L94.4741 21.8989C94.5039 21.9802 94.5282 22.0477 94.5498 22.111L96.4429 21.4658L98.336 20.8207C98.2993 20.713 98.2622 20.6109 98.23 20.523L96.3521 21.2109ZM96.2827 21.0264L94.4164 21.7453C94.4261 21.7705 94.435 21.7926 94.4417 21.8091C94.4478 21.8243 94.4545 21.8405 94.4572 21.8471C94.4656 21.8675 94.4625 21.8603 94.4573 21.8466L96.3315 21.1484L98.2057 20.4503C98.1853 20.3955 98.1656 20.3477 98.1573 20.3275C98.1454 20.2985 98.1471 20.3024 98.149 20.3074L96.2827 21.0264ZM96.3315 21.1484L98.2057 20.4503C98.1802 20.3816 98.1398 20.2802 98.134 20.2654L96.27 20.9902L94.406 21.7151C94.4412 21.8057 94.4434 21.8092 94.4573 21.8466L96.3315 21.1484ZM96.27 20.9902L94.4061 21.7155C94.3959 21.6891 94.3884 21.6681 94.3843 21.6563C94.3822 21.6502 94.3806 21.6456 94.3799 21.6432C94.3792 21.6412 94.3787 21.6397 94.3792 21.6414C94.3795 21.6421 94.3809 21.6463 94.3824 21.6508C94.384 21.6556 94.3864 21.6628 94.3894 21.6714C94.3952 21.6882 94.4044 21.7143 94.4165 21.7456L96.2827 21.0264L98.1489 20.3071C98.1587 20.3325 98.1658 20.3526 98.1695 20.3634C98.1714 20.3689 98.1728 20.3731 98.1734 20.3749C98.1739 20.3763 98.1743 20.3775 98.1735 20.3752C98.1731 20.3738 98.1716 20.3694 98.1699 20.3643C98.1681 20.3589 98.1655 20.3512 98.1623 20.3422C98.1561 20.3244 98.1465 20.2973 98.1339 20.265L96.27 20.9902ZM96.2261 20.8818L94.3695 21.6255C94.3811 21.6545 94.3913 21.678 94.3978 21.6928C94.4011 21.7003 94.4039 21.7066 94.4057 21.7106C94.4074 21.7144 94.4089 21.7178 94.4091 21.7181C94.4096 21.7193 94.4088 21.7175 94.4078 21.7153C94.4067 21.7127 94.4046 21.7081 94.4019 21.7021C94.3968 21.6904 94.388 21.67 94.3777 21.6441L96.2358 20.9043L98.094 20.1645C98.0822 20.1348 98.0718 20.1107 98.065 20.0952C98.0616 20.0874 98.0586 20.0808 98.0567 20.0764C98.0548 20.0723 98.0532 20.0687 98.0529 20.068C98.0522 20.0665 98.0529 20.068 98.0537 20.0699C98.0547 20.0721 98.0567 20.0765 98.0592 20.0822C98.064 20.0932 98.0726 20.113 98.0827 20.1382L96.2261 20.8818ZM96.2358 20.9043L98.0887 20.1513L98.0144 19.9687L96.1616 20.7217L94.3088 21.4747L94.383 21.6573L96.2358 20.9043ZM96.1616 20.7217L94.316 21.4922C94.3307 21.5275 94.3386 21.5484 94.3694 21.6253L96.2261 20.8818L98.0828 20.1384C98.0707 20.1084 98.0368 20.0221 98.0073 19.9512L96.1616 20.7217ZM96.1128 20.6094L97.9503 19.8197C97.9573 19.8359 97.9624 19.8487 97.965 19.8551C97.9673 19.8607 97.9691 19.8653 97.9674 19.8609C97.9666 19.859 97.9625 19.8486 97.9578 19.8368C97.9527 19.8242 97.945 19.8055 97.9353 19.7832L96.1001 20.5781L94.2649 21.3731C94.2574 21.3559 94.2519 21.3424 94.2489 21.335C94.2474 21.3312 94.2463 21.3284 94.2458 21.3271C94.2453 21.3259 94.245 21.3252 94.2456 21.3266C94.2458 21.3273 94.2471 21.3304 94.2483 21.3336C94.2497 21.3371 94.2517 21.3421 94.2541 21.348C94.2588 21.3597 94.2661 21.3776 94.2753 21.3991L96.1128 20.6094ZM96.1001 20.5781L94.2649 21.3731C94.2742 21.3946 94.2822 21.4121 94.2874 21.4233C94.29 21.429 94.2922 21.4338 94.2938 21.437C94.2951 21.4399 94.2964 21.4427 94.2967 21.4432C94.2972 21.4442 94.2967 21.4433 94.296 21.4418C94.2953 21.4403 94.2938 21.4371 94.2919 21.433C94.2882 21.425 94.2817 21.4107 94.2739 21.3925L96.1108 20.6016L97.9478 19.8106C97.9382 19.7884 97.93 19.7702 97.9245 19.7583C97.9217 19.7523 97.9193 19.7472 97.9177 19.7437C97.9161 19.7403 97.9147 19.7374 97.9143 19.7365C97.9136 19.735 97.914 19.7359 97.9145 19.7368C97.915 19.7381 97.9164 19.7409 97.9181 19.7447C97.9215 19.752 97.9277 19.7656 97.9353 19.7832L96.1001 20.5781ZM96.1108 20.6016L97.9479 19.8109C97.9363 19.784 97.924 19.756 97.9171 19.7401L96.0845 20.541L94.2518 21.3419C94.2625 21.3664 94.2679 21.3787 94.2738 21.3922L96.1108 20.6016ZM96.0845 20.541L94.252 21.3422C94.2484 21.334 94.2458 21.3279 94.2447 21.3252C94.2437 21.3228 94.2431 21.3215 94.2444 21.3247C94.2451 21.3264 94.2481 21.3334 94.2511 21.3407C94.2544 21.3485 94.2591 21.3598 94.2649 21.3731L96.1001 20.5781L97.9353 19.7832C97.9384 19.7903 97.9406 19.7954 97.9412 19.7971C97.9417 19.7981 97.942 19.7989 97.9402 19.7945C97.9389 19.7914 97.9358 19.7839 97.9322 19.7753C97.9285 19.7664 97.9232 19.7541 97.917 19.7398L96.0845 20.541ZM96.1001 20.5781L97.9353 19.7832C97.9227 19.754 97.911 19.7281 97.9043 19.7132C97.8958 19.6944 97.8941 19.6907 97.892 19.686L96.063 20.4951L94.234 21.3042C94.2442 21.3273 94.255 21.3511 94.259 21.3599C94.2647 21.3727 94.2655 21.3745 94.2649 21.3731L96.1001 20.5781ZM96.063 20.4951L94.2339 21.304C94.2478 21.3355 94.2616 21.3671 94.2752 21.3989L96.1128 20.6094L97.9503 19.8198C97.9312 19.7753 97.9118 19.7308 97.8921 19.6862L96.063 20.4951ZM96.0552 20.4766L94.2275 21.2887C94.2207 21.2734 94.2155 21.2611 94.2124 21.2537C94.2108 21.25 94.2096 21.2471 94.209 21.2456C94.2085 21.2442 94.208 21.2432 94.2084 21.2441C94.2085 21.2444 94.2095 21.2468 94.2106 21.2494C94.2117 21.2522 94.2134 21.2563 94.2155 21.2613C94.2197 21.2712 94.226 21.2862 94.2339 21.3041L96.063 20.4951L97.8921 19.6861C97.8986 19.7009 97.9036 19.7128 97.9065 19.7196C97.9079 19.723 97.909 19.7257 97.9095 19.7269C97.9099 19.7279 97.9103 19.7288 97.9098 19.7276C97.9095 19.7269 97.9085 19.7244 97.9073 19.7215C97.906 19.7184 97.9042 19.714 97.902 19.7087C97.8976 19.6983 97.891 19.6828 97.8829 19.6644L96.0552 20.4766ZM96.063 20.4951L97.8868 19.6744L97.7989 19.4791L95.9751 20.2998L94.1513 21.1205L94.2391 21.3158L96.063 20.4951ZM95.9751 20.2998L94.1609 21.1417C94.1822 21.1874 94.204 21.2359 94.2274 21.2886L96.0552 20.4766L97.8829 19.6646C97.8538 19.599 97.8225 19.5295 97.7893 19.4579L95.9751 20.2998ZM95.9282 20.2021L97.7345 19.3435C97.7361 19.3469 97.7374 19.3495 97.7382 19.3512C97.739 19.353 97.7394 19.354 97.7395 19.3541C97.7395 19.3542 97.7393 19.3537 97.7386 19.3521C97.7377 19.3502 97.7371 19.3488 97.7355 19.3452C97.7311 19.3357 97.7171 19.3046 97.7001 19.2694L95.8989 20.1387L94.0977 21.0079C94.0937 20.9997 94.091 20.9939 94.0902 20.992C94.0895 20.9906 94.0895 20.9905 94.0918 20.9955C94.0933 20.9988 94.0977 21.0087 94.1022 21.0185C94.1071 21.0291 94.1138 21.0438 94.1219 21.0607L95.9282 20.2021ZM95.8989 20.1387L94.0978 21.0081C94.1077 21.0286 94.1169 21.0468 94.1248 21.0621C94.1327 21.0773 94.1397 21.0903 94.1453 21.1004C94.1508 21.1105 94.1553 21.1187 94.1582 21.1238C94.1596 21.1264 94.1609 21.1285 94.1616 21.1299C94.1624 21.1312 94.163 21.1323 94.163 21.1324C94.1636 21.1334 94.1618 21.1302 94.1597 21.1264C94.1573 21.1221 94.1532 21.1149 94.1482 21.1057C94.1432 21.0964 94.1366 21.0843 94.1292 21.0699C94.1217 21.0555 94.113 21.0383 94.1036 21.0186L95.9058 20.1514L97.708 19.2841C97.698 19.2634 97.6887 19.2451 97.6807 19.2296C97.6727 19.2142 97.6656 19.201 97.66 19.1907C97.6544 19.1804 97.6498 19.1721 97.6468 19.1668C97.6441 19.1619 97.6417 19.1577 97.6416 19.1577C97.6409 19.1564 97.6427 19.1595 97.6447 19.1631C97.647 19.1672 97.651 19.1743 97.6559 19.1833C97.6609 19.1924 97.6673 19.2043 97.6747 19.2185C97.682 19.2327 97.6907 19.2498 97.7001 19.2693L95.8989 20.1387ZM95.9058 20.1514L97.7081 19.2845C97.6934 19.2538 97.6799 19.2274 97.6749 19.2174C97.6712 19.2102 97.6706 19.2091 97.6696 19.207C97.669 19.2058 97.6701 19.2079 97.672 19.2119L95.8765 20.0928L94.0809 20.9737C94.0877 20.9874 94.0936 20.9993 94.0979 21.0079C94.1018 21.0156 94.1062 21.0242 94.1075 21.0267C94.1096 21.0308 94.1097 21.0311 94.1092 21.0302C94.1086 21.0289 94.1065 21.0246 94.1034 21.0182L95.9058 20.1514ZM95.8765 20.0928L94.079 20.9697C94.0936 20.9997 94.0843 20.9816 94.1218 21.0606L95.9282 20.2021L97.7346 19.3437C97.7288 19.3315 97.7246 19.3225 97.7132 19.298C97.7036 19.2777 97.6898 19.2482 97.674 19.2159L95.8765 20.0928ZM95.6616 19.6729L93.9004 20.6205C93.9138 20.6455 93.9255 20.6659 93.933 20.679C93.9368 20.6856 93.94 20.6911 93.9422 20.6948C93.9442 20.6983 93.9461 20.7015 93.9464 20.702C93.9472 20.7033 93.9465 20.7021 93.9455 20.7005C93.9445 20.6987 93.9423 20.695 93.9396 20.6903C93.9343 20.681 93.9249 20.6644 93.9135 20.6431L95.6772 19.7002L97.441 18.7572C97.4271 18.7313 97.4152 18.7102 97.4072 18.6964C97.4032 18.6893 97.3997 18.6834 97.3973 18.6793C97.3951 18.6754 97.393 18.672 97.3925 18.671C97.3914 18.6693 97.392 18.6702 97.3927 18.6714C97.3935 18.6728 97.3954 18.6761 97.398 18.6805C97.4028 18.689 97.4119 18.7048 97.4229 18.7253L95.6616 19.6729ZM95.6772 19.7002L97.4411 18.7573C97.4443 18.7635 97.4465 18.7677 97.4469 18.7684C97.447 18.7686 97.447 18.7686 97.4443 18.7634C97.4423 18.7595 97.4381 18.7514 97.4333 18.7421C97.4283 18.7326 97.4216 18.7197 97.4136 18.7049L95.6538 19.6553L93.894 20.6056C93.89 20.5982 93.8872 20.5929 93.8861 20.5908C93.8852 20.5891 93.8849 20.5884 93.8868 20.5921C93.8879 20.5943 93.8918 20.6019 93.8958 20.6095C93.9001 20.6178 93.9062 20.6295 93.9134 20.6431L95.6772 19.7002ZM95.6538 19.6553L97.3951 18.6714L97.2593 18.4312L95.5181 19.415L93.7768 20.3989L93.9126 20.6392L95.6538 19.6553ZM95.5181 19.415L93.7807 20.4057C93.8262 20.4855 93.8651 20.5549 93.9003 20.6204L95.6616 19.6729L97.4229 18.7253C97.365 18.6177 97.3075 18.5157 97.2555 18.4244L95.5181 19.415ZM94.7612 18.2285L96.3705 17.041L96.266 16.8994L94.6567 18.0869L93.0475 19.2744L93.152 19.416L94.7612 18.2285ZM94.6567 18.0869L93.0763 19.3126L93.1134 19.3604L94.6938 18.1348L96.2743 16.9091L96.2372 16.8613L94.6567 18.0869ZM94.6938 18.1348L96.2847 16.9227L96.2222 16.8406L94.6313 18.0527L93.0405 19.2648L93.103 19.3469L94.6938 18.1348ZM94.6313 18.0527L93.0313 19.2527C93.0736 19.3091 93.108 19.3553 93.1392 19.3985L94.7612 18.2285L96.3833 17.0585C96.3292 16.9835 96.2763 16.9127 96.2314 16.8528L94.6313 18.0527ZM90.9038 14.832L91.8782 13.0854C91.7984 13.041 91.7162 12.9972 91.6643 12.9693L90.7183 14.7314L89.7722 16.4935C89.8442 16.5322 89.8861 16.5545 89.9295 16.5786L90.9038 14.832ZM90.7183 14.7314L91.6628 12.9685C91.6623 12.9683 91.546 12.9047 91.4837 12.8725L90.564 14.6484L89.6442 16.4244C89.6856 16.4458 89.6711 16.4394 89.7737 16.4943L90.7183 14.7314ZM90.564 14.6484L91.4859 12.8736C91.4697 12.8652 91.4556 12.8581 91.4452 12.8529C91.4351 12.8479 91.4262 12.8435 91.4221 12.8414C91.4164 12.8386 91.4166 12.8387 91.4169 12.8389C91.4178 12.8394 91.4226 12.8417 91.4295 12.8453L90.5151 14.624L89.6008 16.4028C89.6158 16.4105 89.6287 16.4169 89.6378 16.4215C89.6462 16.4257 89.6546 16.4297 89.6571 16.431C89.6611 16.433 89.6603 16.4326 89.6584 16.4316C89.6561 16.4305 89.6502 16.4275 89.642 16.4233L90.564 14.6484ZM90.5151 14.624L89.6021 16.4035C89.7122 16.4599 89.8213 16.5183 89.9296 16.5787L90.9038 14.832L91.878 13.0854C91.729 13.0022 91.579 12.922 91.4282 12.8446L90.5151 14.624ZM90.4272 14.5801L91.3278 12.7943C91.3307 12.7958 91.333 12.797 91.3345 12.7977C91.336 12.7985 91.3369 12.799 91.337 12.799C91.337 12.799 91.3366 12.7988 91.3352 12.7981C91.3335 12.7972 91.3322 12.7965 91.3291 12.7949C91.3208 12.7905 91.2935 12.7761 91.2621 12.7605L90.3706 14.5508L89.4791 16.3411C89.4719 16.3375 89.4669 16.3349 89.4654 16.3341C89.4642 16.3335 89.4642 16.3335 89.4687 16.3359C89.4717 16.3375 89.4804 16.3421 89.4891 16.3466C89.4985 16.3515 89.5115 16.3582 89.5267 16.3659L90.4272 14.5801ZM90.3706 14.5508L91.2592 12.759C91.1528 12.7063 91.0478 12.656 90.945 12.6081L90.1001 14.4209L89.2552 16.2337C89.3335 16.2702 89.4089 16.3063 89.482 16.3425L90.3706 14.5508ZM90.1001 14.4209L90.9481 12.6096C90.9502 12.6106 90.9519 12.6114 90.953 12.6119C90.954 12.6124 90.9547 12.6127 90.9547 12.6127C90.9547 12.6127 90.9546 12.6126 90.9543 12.6125C90.9541 12.6124 90.9537 12.6122 90.9532 12.612C90.9519 12.6113 90.9509 12.6109 90.9485 12.6097C90.9421 12.6066 90.9216 12.5967 90.8981 12.5858L90.0571 14.4004L89.2162 16.215C89.2108 16.2125 89.2071 16.2108 89.2061 16.2102C89.2052 16.2099 89.2053 16.2099 89.2087 16.2115C89.211 16.2126 89.2175 16.2158 89.224 16.2189C89.2311 16.2223 89.2408 16.2269 89.2521 16.2322L90.1001 14.4209ZM90.0571 14.4004L89.2176 16.2157C89.3146 16.2605 89.4163 16.3103 89.5282 16.3666L90.4272 14.5801L91.3263 12.7936C91.1927 12.7263 91.0483 12.6552 90.8967 12.5851L90.0571 14.4004ZM90.0083 14.3779L90.8413 12.5597C90.8708 12.5732 90.8941 12.5848 90.9076 12.5916C90.9145 12.5951 90.9199 12.5979 90.923 12.5994C90.9256 12.6008 90.9279 12.602 90.9267 12.6014C90.9265 12.6013 90.9231 12.5995 90.919 12.5974C90.9147 12.5951 90.9079 12.5917 90.8997 12.5875C90.8835 12.5794 90.8576 12.5665 90.8253 12.5518L89.9946 14.3711L89.1639 16.1904C89.134 16.1767 89.1103 16.165 89.0965 16.158C89.0894 16.1544 89.0837 16.1515 89.0805 16.1499C89.0776 16.1484 89.0753 16.1471 89.0762 16.1476C89.0763 16.1477 89.0773 16.1482 89.0783 16.1487C89.0795 16.1493 89.0813 16.1502 89.0834 16.1513C89.0875 16.1535 89.0941 16.1569 89.1021 16.1609C89.1179 16.1689 89.1435 16.1816 89.1753 16.1962L90.0083 14.3779ZM89.9946 14.3711L90.8223 12.5504C90.6674 12.48 90.5008 12.4064 90.3261 12.3348L89.5679 14.1855L88.8097 16.0363C88.9218 16.0822 89.0391 16.1337 89.1669 16.1918L89.9946 14.3711ZM89.5679 14.1855L88.8082 16.0357C88.9234 16.083 89.0442 16.1363 89.1767 16.1968L90.0083 14.3779L90.8399 12.559C90.6807 12.4862 90.5084 12.4097 90.3275 12.3354L89.5679 14.1855ZM143.374 14.1797L144.106 12.3185C144.013 12.282 143.912 12.2453 143.861 12.2265L143.166 14.1016L142.47 15.9767C142.558 16.0094 142.597 16.0233 142.641 16.0409L143.374 14.1797ZM143.166 14.1016L143.651 12.1613L143.647 12.1603L143.162 14.1006L142.677 16.0409L142.68 16.0418L143.166 14.1016ZM143.162 14.1006L142.466 15.9759C142.57 16.0142 142.596 16.0229 142.641 16.0409L143.374 14.1797L144.106 12.3185C144.011 12.2814 143.895 12.2395 143.857 12.2253L143.162 14.1006ZM142.167 13.7803L141.641 15.7099C141.818 15.7584 141.999 15.8139 142.183 15.8757L142.819 13.9795L143.455 12.0833C143.21 12.0013 142.956 11.9225 142.693 11.8507L142.167 13.7803ZM142.819 13.9795L143.459 12.0848C143.472 12.0889 143.48 12.0921 143.483 12.0931C143.485 12.0937 143.486 12.0943 143.479 12.0916C143.474 12.0898 143.462 12.0853 143.448 12.0802C143.433 12.0749 143.412 12.0678 143.388 12.0598L142.761 13.959L142.134 15.8582C142.12 15.8534 142.109 15.8496 142.104 15.8477C142.099 15.8461 142.096 15.8451 142.101 15.8468C142.103 15.8476 142.114 15.8517 142.126 15.8558C142.138 15.8603 142.157 15.8668 142.178 15.8741L142.819 13.9795ZM142.761 13.959L143.387 12.0594C143.158 11.9839 142.926 11.9143 142.692 11.8506L142.167 13.7803L141.641 15.71C141.809 15.7557 141.973 15.8052 142.135 15.8585L142.761 13.959ZM141.758 13.6768L142.218 11.7302C142.216 11.7298 142.177 11.7206 142.155 11.7155L141.705 13.6641L141.254 15.6126C141.268 15.6158 141.265 15.6153 141.299 15.6233L141.758 13.6768ZM141.705 13.6641L142.157 11.7159C142.111 11.7052 142.042 11.6891 141.973 11.674L141.546 13.6279L141.12 15.5819C141.156 15.5899 141.193 15.5985 141.252 15.6122L141.705 13.6641ZM141.546 13.6279L141.971 11.6736C141.939 11.6665 141.911 11.6614 141.893 11.6581C141.884 11.6565 141.877 11.6551 141.871 11.6542C141.866 11.6533 141.862 11.6525 141.86 11.6523C141.858 11.6519 141.859 11.6521 141.86 11.6524C141.862 11.6527 141.866 11.6534 141.872 11.6544C141.883 11.6563 141.903 11.66 141.928 11.6655L141.509 13.6211L141.09 15.5767C141.122 15.5835 141.148 15.5884 141.165 15.5914C141.174 15.593 141.181 15.5942 141.186 15.5951C141.19 15.5958 141.195 15.5966 141.195 15.5967C141.197 15.597 141.196 15.5967 141.194 15.5964C141.191 15.596 141.187 15.5952 141.181 15.5941C141.169 15.592 141.148 15.588 141.121 15.5822L141.546 13.6279ZM141.509 13.6211L141.09 15.5766C141.167 15.5932 141.235 15.6083 141.299 15.6233L141.758 13.6768L142.218 11.7302C142.116 11.7063 142.018 11.6848 141.929 11.6656L141.509 13.6211ZM95.8882 31.3633L97.6909 32.2295C97.6947 32.2214 97.6979 32.215 97.7075 32.1953C97.7154 32.1791 97.7276 32.154 97.7408 32.126L95.9312 31.2744L94.1215 30.4228C94.1076 30.4524 94.1221 30.4209 94.0855 30.497L95.8882 31.3633ZM95.9312 31.2744L97.7412 32.1252C97.791 32.0193 97.8412 31.9045 97.8692 31.8416L96.0425 31.0273L94.2157 30.2131C94.1703 30.3151 94.1482 30.3659 94.1211 30.4236L95.9312 31.2744ZM96.0425 31.0273L94.2144 30.216C94.1688 30.3189 94.1267 30.4112 94.0853 30.4976L95.8882 31.3633L97.6911 32.229C97.7564 32.093 97.8163 31.9609 97.8705 31.8387L96.0425 31.0273ZM46.0005 11.5776H48.0005C48.0005 10.4257 48.3023 9.32908 48.786 8.58568C49.238 7.89109 49.7648 7.59481 50.4021 7.59473L50.4019 5.59473L50.4016 3.59473C48.1283 3.59504 46.4544 4.83491 45.4334 6.40403C44.4441 7.92433 44.0005 9.819 44.0005 11.5776H46.0005ZM50.4019 46L50.4021 44C49.7648 43.9999 49.238 43.7036 48.786 43.009C48.3023 42.2656 48.0005 41.1691 48.0005 40.0171H46.0005H44.0005C44.0005 41.7757 44.4441 43.6704 45.4334 45.1907C46.4544 46.7598 48.1283 47.9997 50.4016 48L50.4019 46Z" fill="#D46060" mask="url(#path-1-outside-1_75_1484)"/>
<path d="M70.1226 21.4514C70.1226 22.8652 69.7981 24.1632 69.1492 25.3452C68.5002 26.5041 67.5036 27.4428 66.1593 28.1612C64.815 28.8797 63.1463 29.239 61.153 29.239H57.4678V38H51.5229V13.5943H61.153C63.0999 13.5943 64.7455 13.9304 66.0898 14.6025C67.4341 15.2747 68.4423 16.2018 69.1144 17.3838C69.7866 18.5659 70.1226 19.9217 70.1226 21.4514ZM60.7011 24.5108C61.8368 24.5108 62.6827 24.2443 63.239 23.7112C63.7952 23.1781 64.0734 22.4249 64.0734 21.4514C64.0734 20.478 63.7952 19.7247 63.239 19.1916C62.6827 18.6586 61.8368 18.392 60.7011 18.392H57.4678V24.5108H60.7011ZM84.7599 38.2434C82.4653 38.2434 80.3562 37.7103 78.4325 36.6441C76.532 35.578 75.0138 34.0946 73.8782 32.1941C72.7657 30.2704 72.2094 28.1149 72.2094 25.7276C72.2094 23.3404 72.7657 21.1965 73.8782 19.2959C75.0138 17.3954 76.532 15.9121 78.4325 14.8459C80.3562 13.7798 82.4653 13.2467 84.7599 13.2467C87.0544 13.2467 89.152 13.7798 91.0525 14.8459C92.9762 15.9121 94.4828 17.3954 95.5721 19.2959C96.6846 21.1965 97.2409 23.3404 97.2409 25.7276C97.2409 28.1149 96.6846 30.2704 95.5721 32.1941C94.4596 34.0946 92.9531 35.578 91.0525 36.6441C89.152 37.7103 87.0544 38.2434 84.7599 38.2434ZM84.7599 32.8199C86.7068 32.8199 88.2597 32.1709 89.4185 30.873C90.6006 29.5751 91.1916 27.8599 91.1916 25.7276C91.1916 23.5721 90.6006 21.857 89.4185 20.5823C88.2597 19.2844 86.7068 18.6354 84.7599 18.6354C82.7898 18.6354 81.2138 19.2728 80.0317 20.5475C78.8729 21.8223 78.2934 23.549 78.2934 25.7276C78.2934 27.8831 78.8729 29.6098 80.0317 30.9078C81.2138 32.1825 82.7898 32.8199 84.7599 32.8199ZM106.493 33.4109H114.281V38H100.548V13.5943H106.493V33.4109ZM123.061 13.5943V38H117.116V13.5943H123.061ZM126.361 25.7624C126.361 23.352 126.883 21.2081 127.926 19.3307C128.969 17.4302 130.417 15.9584 132.272 14.9154C134.149 13.8493 136.27 13.3162 138.634 13.3162C141.531 13.3162 144.011 14.0811 146.074 15.6108C148.136 17.1405 149.515 19.2264 150.211 21.8686H143.675C143.188 20.8488 142.493 20.0724 141.589 19.5393C140.708 19.0062 139.7 18.7397 138.564 18.7397C136.733 18.7397 135.25 19.3771 134.114 20.6518C132.978 21.9266 132.411 23.6301 132.411 25.7624C132.411 27.8947 132.978 29.5982 134.114 30.873C135.25 32.1477 136.733 32.7851 138.564 32.7851C139.7 32.7851 140.708 32.5186 141.589 31.9855C142.493 31.4524 143.188 30.676 143.675 29.6562H150.211C149.515 32.2984 148.136 34.3843 146.074 35.914C144.011 37.4206 141.531 38.1738 138.634 38.1738C136.27 38.1738 134.149 37.6523 132.272 36.6094C130.417 35.5432 128.969 34.0715 127.926 32.1941C126.883 30.3167 126.361 28.1728 126.361 25.7624ZM174.781 13.5943L166.332 29.9343V38H160.387V29.9343L151.939 13.5943H158.684L163.412 23.8155L168.105 13.5943H174.781Z" fill="#F8E9D6"/>
<circle cx="139.171" cy="27.6314" r="3.63138" fill="#75B7C2"/>
<circle cx="84.1714" cy="27.6314" r="3.63138" fill="#75B7C2"/>
<path d="M218.999 25.3703C218.74 25.3703 218.507 25.2094 218.418 24.9636L215.342 16.653L207.032 13.5774C206.786 13.488 206.625 13.2555 206.625 12.9962C206.625 12.7369 206.786 12.5045 207.032 12.4151L215.342 9.3394L218.418 1.02889C218.507 0.783021 218.74 0.62207 218.999 0.62207C219.258 0.62207 219.491 0.783021 219.58 1.02889L222.656 9.3394L230.966 12.4151C231.212 12.5045 231.373 12.7369 231.373 12.9962C231.373 13.2555 231.212 13.488 230.966 13.5774L222.656 16.653L219.58 24.9636C219.491 25.2094 219.258 25.3703 218.999 25.3703Z" fill="#F8E9D6"/>
<path d="M219 1.24279L222.174 9.82156L230.753 12.9956L222.174 16.1695L219 24.7483L215.826 16.1695L207.247 12.9956L215.826 9.82156L219 1.24279ZM219 0C218.481 0 218.016 0.321901 217.833 0.813648L214.856 8.85594L206.814 11.8333C206.326 12.0121 206 12.477 206 13C206 13.5231 206.322 13.9835 206.814 14.1668L214.856 17.1441L217.833 25.1864C218.012 25.6737 218.477 26 219 26C219.523 26 219.983 25.6782 220.167 25.1864L223.144 17.1441L231.186 14.1668C231.674 13.988 232 13.5231 232 13C232 12.477 231.678 12.0165 231.186 11.8333L223.144 8.85594L220.167 0.813648C219.988 0.326371 219.523 0 219 0Z" fill="#3E9DE5"/>
<path d="M11.5 46.4435C11.2707 46.4435 11.0651 46.3011 10.986 46.0836L8.26519 38.732L0.913594 36.0113C0.69609 35.9322 0.553711 35.7265 0.553711 35.4972C0.553711 35.2678 0.69609 35.0621 0.913594 34.983L8.26519 32.2623L10.986 24.9107C11.0651 24.6932 11.2707 24.5508 11.5 24.5508C11.7294 24.5508 11.9351 24.6932 12.0142 24.9107L14.7349 32.2623L22.0865 34.983C22.304 35.0621 22.4464 35.2678 22.4464 35.4972C22.4464 35.7265 22.304 35.9322 22.0865 36.0113L14.7349 38.732L12.0142 46.0836C11.9351 46.3011 11.7294 46.4435 11.5 46.4435Z" fill="#F8E9D6"/>
<path d="M11.5 25.0994L14.3078 32.6883L21.8967 35.4961L14.3078 38.3038L11.5 45.8927L8.69222 38.3038L1.10335 35.4961L8.69222 32.6883L11.5 25.0994ZM11.5 24C11.0412 24 10.63 24.2848 10.4678 24.7198L7.8341 31.8341L0.719717 34.4679C0.288665 34.6261 0 35.0373 0 35.5C0 35.9627 0.28471 36.37 0.719717 36.5322L7.8341 39.166L10.4678 46.2803C10.626 46.7113 11.0373 47 11.5 47C11.9627 47 12.37 46.7153 12.5321 46.2803L15.1659 39.166L22.2802 36.5322C22.7113 36.374 23 35.9627 23 35.5C23 35.0373 22.7152 34.63 22.2802 34.4679L15.1659 31.8341L12.5321 24.7198C12.3739 24.2887 11.9627 24 11.5 24Z" fill="#3E9DE5"/>
</svg>
