<svg preserveAspectRatio="none" width="100%" height="100%" overflow="visible" style="display: block;" viewBox="0 0 24 24" fill="none" xmlns="http://www.w3.org/2000/svg">
<g id="Icon">
<path id="Vector" d="M16 20V4C16 3.46957 15.7892 2.96086 15.4142 2.58578C15.0391 2.21071 14.5304 2 14 2H10C9.46957 2 8.96086 2.21071 8.58578 2.58578C8.21071 2.96086 8 3.46957 8 4V20" stroke="var(--stroke-0, #FDFBF7)" stroke-width="1.2" stroke-linecap="round" stroke-linejoin="round"/>
<path id="Vector_2" d="M20 6H4C2.89543 6 2 6.89543 2 8V18C2 19.1046 2.89543 20 4 20H20C21.1045 20 22 19.1046 22 18V8C22 6.89543 21.1045 6 20 6Z" stroke="var(--stroke-0, #FDFBF7)" stroke-width="1.2" stroke-linecap="round" stroke-linejoin="round"/>
</g>
</svg>
