<svg width="12" height="10" viewBox="0 0 12 10" fill="none" xmlns="http://www.w3.org/2000/svg">
<path d="M4.83658 6.4727C4.96523 6.31468 5.07302 6.18542 5.17733 6.05253C6.61687 4.23527 8.05988 2.41798 9.49594 0.597125C9.77411 0.245165 10.1149 0.0153007 10.5565 0.000934931C11.1093 -0.0170222 11.5474 0.223614 11.8152 0.730006C12.0864 1.23999 12.0586 1.76073 11.7352 2.24199C11.5648 2.49698 11.3632 2.72684 11.1719 2.96746C9.47856 5.10436 7.78519 7.24485 6.0953 9.38175C5.9284 9.59006 5.74758 9.78041 5.5007 9.88097C4.93393 10.1072 4.41932 10.0139 3.97773 9.57571C3.32055 8.92566 2.67032 8.27203 2.0201 7.61839C1.4881 7.08686 0.949144 6.55889 0.424096 6.02018C0.0589971 5.65026 -0.0766133 5.19774 0.0416093 4.67339C0.274577 3.64265 1.47071 3.22964 2.25306 3.91561C2.49298 4.1275 2.71205 4.36454 2.94154 4.5908C3.49788 5.14747 4.05422 5.70415 4.61056 6.26082C4.67662 6.32547 4.7427 6.38651 4.83658 6.4763V6.4727Z" fill="#59A02B"/>
</svg>
