<svg width="28" height="28" viewBox="0 0 28 28" fill="none" xmlns="http://www.w3.org/2000/svg">
<path d="M13.8484 0.000781355C6.15311 0.0819483 -0.0124578 6.3599 2.94086e-05 13.9927C-0.0155796 21.6567 6.18433 27.9222 13.8671 27.994C21.6716 28.0658 28.0651 21.7317 27.9995 13.8772C27.9371 6.17259 21.631 -0.0803856 13.8484 0.000781355ZM13.9857 25.7463C7.56416 25.7401 2.24773 20.5173 2.2446 14.0052C2.2446 7.41819 7.65469 2.17668 14.1324 2.24849C20.5165 2.31716 25.7674 7.5493 25.7549 14.0052C25.7643 20.4736 20.4666 25.7557 13.9888 25.7494L13.9857 25.7463Z" fill="#F8E9D6"/>
<path d="M18.2871 19.5C18.5852 19.5 18.8711 19.3816 19.082 19.1709C19.2931 18.96 19.412 18.6734 19.4121 18.375C19.4122 18.0767 19.2939 17.7901 19.083 17.5791L15.5469 14.0439L19.083 10.5088C19.2941 10.2977 19.4121 10.0114 19.4121 9.71289C19.4121 9.41441 19.2941 9.12805 19.083 8.91699C18.8719 8.70593 18.5856 8.5879 18.2871 8.58789C17.9886 8.58789 17.7023 8.70594 17.4912 8.91699L13.9561 12.4531L10.4209 8.91699C10.2099 8.70611 9.92333 8.58785 9.625 8.58789C9.32659 8.588 9.04004 8.70689 8.8291 8.91797C8.61844 9.12893 8.50001 9.41476 8.5 9.71289C8.50011 10.0113 8.61899 10.2979 8.83008 10.5088L12.3652 14.0439L8.82715 17.582L9.00684 17.7559L8.82715 17.583C8.62224 17.7952 8.50818 18.0791 8.51074 18.374C8.51335 18.6689 8.63228 18.9506 8.84082 19.1592C9.04936 19.3677 9.33107 19.4867 9.62598 19.4893C9.88409 19.4915 10.1344 19.4051 10.335 19.2461L10.417 19.1729L10.4209 19.1699L13.9561 15.6348L17.4912 19.1699L17.5732 19.2451C17.7734 19.4093 18.0259 19.4999 18.2871 19.5Z" fill="#F8E9D6" stroke="#F8E9D6" stroke-width="0.5"/>
</svg>
