<svg width="14" height="14" viewBox="0 0 14 14" fill="none" xmlns="http://www.w3.org/2000/svg">
<path d="M12.8419 10.5982L8.06221 2.32129C7.47842 1.30957 6.52276 1.30957 5.9376 2.32129L1.15928 10.5982C0.574126 11.6113 1.05264 12.4371 2.22022 12.4371H11.7796C12.9472 12.4371 13.4257 11.6113 12.8419 10.5982ZM7.5919 10.6092C7.46475 10.7336 7.31846 10.8088 7.15577 10.8375C7.10381 10.8402 7.05323 10.8416 6.99991 10.8416C6.94659 10.8416 6.896 10.8402 6.84405 10.8375C6.67999 10.8088 6.53506 10.7322 6.40791 10.6092C6.24249 10.4465 6.16045 10.2523 6.16045 10.0213C6.16045 9.79297 6.24249 9.59473 6.40791 9.4293C6.57334 9.26387 6.77159 9.18047 6.99991 9.18047C7.22823 9.18047 7.42647 9.26387 7.5919 9.4293C7.75733 9.59473 7.83936 9.79297 7.83936 10.0213C7.84073 10.251 7.7587 10.4479 7.5919 10.6092ZM7.40186 8.67734H6.61299C6.51729 7.50977 6.16182 5.90469 6.16182 5.68594C6.16182 5.43574 6.23975 5.2252 6.39698 5.05566C6.55557 4.88477 6.75518 4.79863 7.00127 4.79863C7.246 4.79863 7.44698 4.8834 7.60557 5.05156C7.7628 5.22109 7.84073 5.43164 7.84073 5.68594C7.84073 5.90469 7.5126 7.50977 7.40186 8.67734Z" fill="#ED5345"/>
</svg>
