<svg width="696" height="249" viewBox="0 0 696 249" fill="none" xmlns="http://www.w3.org/2000/svg">
<path d="M690.19 37.02C685.81 31.82 679.33 29.39 671.95 30.17C670.4 30.33 668.79 30.65 667.14 31.09C656.12 34.07 654.55 43.84 646.52 49.29C639.04 54.37 624.26 53.37 615.2 56.16C602.52 60.07 590.87 66.69 578.97 72.55C530.53 96.42 476.18 108.19 422.2 106.49C406.52 106 384.55 104.3 373.01 91.99C367.46 86.07 366.44 81.18 358.06 77.87C350.27 74.8 341.47 74.25 333.22 75.13C329.85 75.49 326.39 76.12 322.93 77C312.03 79.78 302.6 84.31 294.67 90.45C297.4 85.8 298.74 80.28 298.13 74.52C297.48 68.45 294.78 63.11 290.81 59.06C295.08 54.71 297.42 48.11 296.65 40.86C295.92 33.97 292.52 27.89 287.09 23.72C283 20.58 275.78 17.1 264.55 18.29C258.97 18.88 253.56 20.54 248.47 22.89C243.91 24.99 239.15 29.51 234.18 30.39C231.36 30.89 228.43 29.85 226.09 28.19C223.75 26.53 221.9 24.29 220.07 22.08C217.69 19.19 214.53 13.15 210.94 11.82C206.77 10.27 199.32 13.3 195.55 14.95C183.94 20.03 176.4 27.53 172.02 33.14C165.23 32.91 154.54 32.9 142.35 34.2C115.82 37.03 94.6399 44.56 79.3999 56.58C56.0099 75.03 52.2499 100.31 58.6399 116C64.1999 129.63 76.9799 137.11 91.9999 135.51C97.5699 134.92 103.39 133.09 109.29 130.08C112.67 128.36 115.1 125.21 115.9 121.51C116.61 118.27 116.01 114.91 114.27 112.13C113.97 110.78 114.26 106.44 118.78 99.32C123.84 91.36 136.41 83.9 149.39 78.63C145.93 85.82 141.73 93.95 136.97 102.1C120.66 130.03 104.16 146.81 91.6899 148.14C89.2699 148.4 81.8899 149.18 71.6899 136.26C68.9599 132.8 64.6799 131.07 60.4299 131.52C59.4699 131.62 58.5099 131.84 57.5699 132.17C55.9299 132.75 17.2799 146.72 11.3299 181.53C8.71994 196.81 13.1899 212.27 23.6099 223.95C34.2399 235.86 49.4499 242.18 65.3599 241.3C67.0599 241.2 68.8399 241.06 70.6999 240.86C72.8199 240.63 75.0099 240.34 77.2199 239.98C111.91 234.36 143.98 208.07 162.99 169.67C166.54 162.5 170.6 153.54 174.75 143.97C171 167.23 168.96 197.17 179.92 209.95C184.47 215.25 190.79 217.77 197.7 217.03C205.41 216.21 211.22 212.44 215.84 206.59C221.93 212.46 230.52 215.42 240.34 214.38C244.9 213.89 249.56 212.58 254.18 210.47C263.69 206.14 271.2 197.86 277.22 191.21C277.37 191.05 277.52 190.88 277.67 190.71C285.36 200.12 299.09 208.11 321.54 205.72C342.31 203.51 357.06 193.34 366.56 183.86C373.17 191.89 383.18 198.64 397.51 199.21C402.12 199.39 406.61 199.25 410.88 198.8C424.12 197.39 435.68 192.88 445.52 185.39C446 186.15 446.5 186.91 447.07 187.62C452.77 194.76 462.52 198.34 473.15 197.21C478.42 196.65 483.79 194.92 488.65 192.22C490.62 191.13 492.39 190.03 494.1 188.97C499.12 185.86 502.75 183.61 509.12 182.93C512.92 182.52 517.36 182.7 522.68 183.46C536.8 185.5 545.3 188.42 549.16 190C547.34 201.42 546.37 221.51 558.11 235.41C564.21 242.64 576.11 250.76 598.1 248.41L599 248.31C659.41 241.2 672.09 171.41 678.9 133.91C679.97 128 680.9 122.9 681.8 119.28C682.89 114.89 684.38 109.63 685.96 104.06C695.2 71.53 700.49 49.3 690.15 37.02H690.19Z" fill="#EAAA63"/>
<path d="M679.69 25.63C675.31 20.43 668.83 18 661.45 18.78C659.9 18.94 658.29 19.26 656.64 19.7C651.38 21.13 646.54 24.36 642.02 29.48C633.85 31.53 626.18 31.37 620.15 30.55C618.01 29.74 616.08 29.31 614.8 29.07C613.5 28.7 610.85 28 607.33 27.34H607.32C601 26.14 591.84 25.03 582.33 26.05C577.43 26.57 572.86 27.63 568.74 29.19C559.63 32.64 552.46 39.54 548.54 48.63C547.71 50.56 547.09 52.56 546.6 54.58C544.83 54.04 543.15 53.7 541.65 53.64C540.83 53.61 540 53.64 539.19 53.72C533.26 54.35 529.18 57.89 525.9 60.74C521.47 64.59 516.44 68.95 504.52 70.22C499.35 70.77 495.48 70.92 492.64 70.89C492.43 68.62 491.86 66.26 490.77 63.92C488.07 58.18 482.81 54.14 475.94 52.54C472.7 51.79 469.44 51.58 466.24 51.93C458.78 52.73 452.11 56.4 447.48 62.29C447.28 62.55 447.11 62.82 446.92 63.08C440.75 60.07 433.48 58.26 425.1 57.74C420.46 57.45 415.87 57.54 411.46 58.02C391.67 60.13 376.64 69.49 365.87 81.68C365.38 80.8 364.84 79.94 364.25 79.09C356.23 67.58 340.7 61.85 322.7 63.77C319.33 64.13 315.87 64.76 312.41 65.64C301.51 68.42 292.08 72.95 284.15 79.09C286.88 74.44 288.22 68.92 287.61 63.16C286.96 57.09 284.26 51.75 280.29 47.7C284.56 43.35 286.9 36.75 286.12 29.5C285.39 22.61 281.99 16.53 276.56 12.36C272.47 9.21998 265.25 5.73999 254.02 6.92999C243.76 8.01999 234.06 12.67 225.51 18.95C225.45 18.51 225.37 18.07 225.27 17.63C223.14 8.15 211.45 -1.09 196.26 0.529995C192.54 0.929995 188.76 1.94998 185.03 3.57998C173.42 8.65998 165.88 16.16 161.5 21.77C154.71 21.54 144.02 21.53 131.83 22.83C105.3 25.66 84.1199 33.19 68.8799 45.21C45.4899 63.66 41.7299 88.94 48.1199 104.63C50.1899 109.71 53.2699 113.93 57.0799 117.15L47.0699 120.79C45.4199 121.37 6.77993 135.34 0.829935 170.15C-1.78006 185.43 2.6899 200.89 13.1099 212.57C23.7399 224.48 38.9499 230.8 54.8599 229.92C56.5599 229.82 58.3399 229.68 60.1999 229.48C62.3199 229.25 64.5099 228.96 66.7199 228.6C101.41 222.98 133.48 196.69 152.49 158.29C156.04 151.12 160.1 142.16 164.25 132.59C160.5 155.85 158.46 185.79 169.42 198.57C173.97 203.87 180.29 206.39 187.2 205.65C194.91 204.83 200.72 201.06 205.34 195.21C211.43 201.08 220.02 204.04 229.84 203C234.4 202.51 239.06 201.2 243.68 199.09C253.19 194.76 260.7 186.48 266.72 179.83C266.87 179.67 267.02 179.5 267.17 179.33C274.86 188.74 288.59 196.73 311.04 194.34C331.81 192.13 346.56 181.96 356.06 172.48C362.67 180.51 372.68 187.26 387.01 187.83C391.62 188.01 396.11 187.87 400.38 187.42C413.62 186.01 425.18 181.5 435.02 174C435.5 174.76 436 175.52 436.57 176.23C442.27 183.37 452.02 186.95 462.65 185.82C467.92 185.26 473.29 183.53 478.16 180.83C480.13 179.74 481.9 178.64 483.61 177.58C488.63 174.47 492.26 172.22 498.63 171.54C502.43 171.13 506.87 171.31 512.19 172.07C526.31 174.11 534.81 177.03 538.63 178.59C538.64 178.59 538.66 178.59 538.68 178.61C536.86 190.03 535.89 210.12 547.63 224.02C553.73 231.25 565.63 239.37 587.62 237.02L588.52 236.92C648.93 229.81 661.61 160.02 668.42 122.52C669.49 116.61 670.42 111.51 671.32 107.89C672.41 103.5 673.9 98.24 675.48 92.67C684.72 60.14 690.01 37.91 679.67 25.63H679.69Z" fill="#060403"/>
<path d="M50.3398 133.06C42.6398 136.11 -7.30022 158.23 21.7798 208.3C21.8198 208.36 21.8597 208.43 21.9097 208.48C22.8397 209.62 33.1497 221.22 64.7397 216.1C97.9497 210.72 125.8 183.79 141.21 152.66C154.52 125.79 175.5 72.25 181 58.09C181.49 56.83 183.29 56.89 183.69 58.18C185.84 65.05 189.22 81.54 182.87 105.52C174.33 137.76 166.76 195.1 185.91 193.06C206.86 190.83 208.09 137.54 224.77 95.22C241.45 52.9 258.44 39.41 267.44 40.3C276.44 41.18 278.17 17.04 255.39 19.47C232.61 21.9 210.37 49.46 204.84 63.87C203.73 66.75 202.78 69.34 201.96 71.63C201.41 73.18 199.12 72.71 199.2 71.07C199.48 65 199.25 57.97 197.52 52.13L193.78 39.48C193.64 39.01 193.75 38.51 194.07 38.14C196.39 35.49 206.03 24.74 211.86 22.71C216.55 21.08 206.85 7.83001 190.12 15.14C176.64 21.03 170.1 31.13 168.45 33.99C168.18 34.47 167.66 34.74 167.12 34.69C159.6 34.11 107.2 31.07 76.7498 55.1C44.2998 80.7 56.9097 124.54 91.7197 108.08C92.4297 107.75 92.6998 106.89 92.3698 106.19C90.9898 103.26 88.8098 95.03 97.6498 81.13C108.48 64.1 139.5 51.67 158.83 48.05C159.93 47.84 160.83 48.94 160.41 49.98C152.81 68.85 100.19 192.85 51.9697 133.49C51.5797 133.01 50.9198 132.82 50.3398 133.05V133.06Z" fill="#F8E9D6"/>
<path d="M261.69 79.37C269.123 79.37 275.15 73.3438 275.15 65.91C275.15 58.4763 269.123 52.45 261.69 52.45C254.256 52.45 248.229 58.4763 248.229 65.91C248.229 73.3438 254.256 79.37 261.69 79.37Z" fill="#F8E9D6"/>
<path d="M456.65 105.47C456.65 105.47 462.57 72.71 424.34 70.33C386.11 67.96 364.43 96.09 358.45 124.05C358.44 124.1 358.43 124.14 358.43 124.19C358.31 125.21 356.61 137.94 344.8 145.39C332.5 153.15 317.94 157.01 311.34 140.43C304.74 123.86 324.06 95.54 334.06 98.62C339.59 100.32 337.11 105.41 333.79 109.62C331.14 112.97 333.78 117.85 338.04 117.53C343.5 117.12 350.01 114.37 354.57 105.19C363.86 86.46 344.57 70.47 315.56 77.86C286.63 85.23 271.1 106.46 267.73 138.62C267.71 138.79 267.67 138.95 267.59 139.1C266.5 141.29 257.71 158.4 250.6 156.36C242.99 154.18 266.55 102.83 268.7 94.99C269.6 91.72 266.88 89.44 263.4 87.89C255.49 84.38 246.15 85.41 239.28 90.67C236.93 92.48 234.75 94.82 233.3 97.83C228.2 108.4 207 158 208.7 173.94C210.4 189.89 223.99 194.17 238.49 187.56C252.21 181.32 262.83 161.38 270.5 160.5C271.2 160.42 271.84 160.88 272.03 161.56C273.28 166.19 280.17 184.91 309.76 181.75C337 178.85 351.94 159.24 356.66 151.83C357.31 150.82 358.83 151.02 359.21 152.16C361.47 158.96 368.67 174.42 387.58 175.17C419.68 176.44 437.94 160.04 449.03 134.73C454.27 122.76 456.64 105.58 456.66 105.46L456.65 105.47ZM422.2 120.71C415.56 135.69 404.96 145.51 398.53 142.65C392.09 139.8 392.25 125.35 398.9 110.38C405.54 95.41 416.13 85.59 422.57 88.45C429 91.31 428.84 105.75 422.2 120.72V120.71Z" fill="#F8E9D6"/>
<path d="M541.16 66.25C534.92 65.99 530.49 80.14 505.89 82.77C487.74 84.71 481.42 82.37 479.36 81.01C478.79 80.63 478.56 79.91 478.82 79.28C480 76.36 482.86 67.1 473.12 64.84C461.89 62.24 453.19 71.35 454.43 80.78C454.8 83.62 457.87 87.74 459.85 89.93C469.43 100.49 485.72 100.08 491.56 100.28C499.09 100.54 504.31 100.13 507.39 99.73C508.63 99.57 509.45 100.97 508.72 101.98L484.05 136C483.78 136.37 483.35 136.59 482.9 136.59C478.17 136.57 451.48 137.31 445.13 155.91C439.87 171.34 457.02 178.14 472.1 169.77C482.64 163.93 489.56 156.03 514.05 159.56C533.65 162.39 543.82 166.86 547.1 168.54C547.81 168.9 548.67 168.61 549.02 167.9C550.57 164.72 553.66 156.21 547.21 148.25C540.92 140.49 523.37 137.42 515.74 136.42C514.46 136.25 514.04 134.62 515.07 133.86C525.87 125.94 562.8 98.49 566.3 90.85C570.41 81.89 547.42 66.52 541.17 66.26L541.16 66.25Z" fill="#F8E9D6"/>
<path d="M611.81 41.37C610.09 40.86 569.37 29.05 557.8 55.34C557.73 55.5 557.69 55.67 557.68 55.84C557.52 58.54 556.63 81.21 572.46 80.54C573.57 80.49 574.19 79.23 573.56 78.3C570.82 74.25 568.02 64.96 596.72 61.79C597.99 61.65 598.8 63.11 598 64.1C591.57 72.02 573.36 97.08 568.82 131.77C563.79 170.24 602.95 165.03 615.01 159C616.09 158.46 617.31 159.46 617.01 160.63C614.92 168.66 607.63 188.12 585.92 189.18C565.27 190.2 557.28 182.29 554.32 177.33C553.66 176.22 551.96 176.53 551.71 177.8C549.18 190.91 545.23 229.27 587.07 224.34C647.07 217.27 652.39 131.88 659.08 104.83C665.77 77.79 685.66 24.91 659.96 31.88C636.76 38.17 622.57 121.16 621.15 134.05C620.9 136.32 619.95 138.5 618.25 140.03C616.01 142.06 611.7 143.97 606.76 138.97C596.19 128.25 616.35 73.76 617.8 62.85C619.25 51.96 625.85 43.94 611.94 41.38C611.9 41.38 611.86 41.36 611.81 41.35V41.37Z" fill="#F8E9D6"/>
</svg>
