<svg width="54" height="47" viewBox="0 0 54 47" fill="none" xmlns="http://www.w3.org/2000/svg">
<g clip-path="url(#clip0_75_372)">
<path d="M45.5039 9.29047C45.0618 9.99528 44.6156 10.6917 44.1777 11.4007C42.5637 13.9989 40.9289 16.5888 39.3483 19.2078C38.5476 20.534 37.9137 21.9478 37.5383 23.4617C37.2589 24.5877 37.2964 25.6971 37.6176 26.8022C37.7552 27.2818 37.8511 27.774 38.0304 28.241C38.3599 29.1002 38.9813 29.7507 39.6819 30.3221C40.9956 31.3981 42.5137 32.0779 44.111 32.6117C46.1753 33.2998 48.3106 33.6543 50.4668 33.8753C51.5052 33.9796 52.5395 34.0964 53.5779 34.2423C53.0274 34.3466 52.4769 34.4467 51.9264 34.5551C50.2874 34.8721 48.6317 35.1265 47.0386 35.6353C45.3871 36.1607 43.8482 36.8989 42.5554 38.0875C41.225 39.3094 40.3325 40.8192 39.7362 42.4999C39.3316 43.6426 39.0272 44.8186 38.681 45.978C38.6602 46.0531 38.6435 46.1323 38.5809 46.199C38.606 46.0489 38.6268 45.8946 38.6518 45.7445C38.9146 44.093 39.2816 42.4665 39.9363 40.9192C40.9456 38.5337 42.5971 36.7363 44.8992 35.5477C45.4664 35.2558 46.0586 35.018 46.6424 34.7553C46.7092 34.7261 46.7717 34.6927 46.8843 34.6385C46.3714 34.5426 45.9126 34.4675 45.4539 34.3758C43.4729 33.9713 41.5628 33.354 39.8154 32.3156C38.5434 31.5607 37.4216 30.6349 36.6875 29.3212C36.233 28.5079 36.0328 27.5988 35.7951 26.7105C35.2654 24.742 35.67 22.8611 36.3748 21.0178C36.4957 20.7008 36.625 20.3881 36.7626 20.0419C36.6333 20.0878 36.5249 20.1212 36.4248 20.1629C35.0652 20.7509 33.6598 20.8009 32.2543 20.4339C30.1941 19.8918 28.2966 19.0118 26.7744 17.4687C25.4982 16.1717 24.7016 14.5953 24.2596 12.8437C24.0761 12.1139 23.9843 11.3632 23.8467 10.6208C23.8384 10.5708 23.8217 10.5249 23.7549 10.4499C23.5881 10.771 23.4338 11.1004 23.2587 11.4174C22.5455 12.7061 21.7114 13.903 20.552 14.833C19.2342 15.8881 17.7745 16.6847 16.1022 17.0142C14.3589 17.3561 12.7366 16.9808 11.2352 16.0591C9.80475 15.1792 8.6829 13.9781 7.72787 12.6102C7.6945 12.5643 7.66114 12.5184 7.61109 12.4517C7.5819 13.0147 7.57773 13.5527 7.52768 14.0865C7.3692 15.7589 6.9605 17.3603 6.1139 18.8241C5.45496 19.9585 4.59168 20.8885 3.39476 21.4807C2.31461 22.0104 1.17607 22.1188 0 21.9603C0.170989 21.9603 0.341978 21.9645 0.508796 21.9603C0.683956 21.952 0.854945 21.9395 1.0301 21.9228C2.94435 21.7351 4.37898 20.7717 5.37572 19.1578C6.42668 17.4646 6.78951 15.5754 6.82288 13.6111C6.84373 12.3933 6.68108 11.1964 6.38081 10.0161C6.21816 9.37388 6.08887 8.71911 5.97627 8.05601C6.31408 8.594 6.65606 9.12782 6.98969 9.66581C7.8363 11.0337 8.73295 12.3683 9.90902 13.486C10.9516 14.4827 12.1194 15.2709 13.5582 15.5795C14.9386 15.8756 16.2064 15.5545 17.4576 14.9498C19.6846 13.8738 21.0567 12.0388 22.0743 9.88267C22.8541 8.227 23.1044 7.64313 23.8675 5.97912C23.8884 5.93325 24.4014 4.80305 24.4306 4.73632C25.2188 3.12652 26.7035 0.0195312 26.7035 0.0195312C26.5825 0.766044 25.9278 6.82155 25.8443 7.54721C25.6066 9.51567 25.7651 11.4466 26.4908 13.3025C27.1455 14.9748 28.1298 16.4011 29.7896 17.2394C30.5611 17.6272 31.3452 17.9942 32.1543 18.2903C33.9809 18.9618 35.6866 18.6698 37.1672 17.4187C38.1722 16.5721 39.1231 15.6504 40.0573 14.7246C41.8422 12.9563 43.6022 11.1588 45.3746 9.37388C45.4038 9.34468 45.433 9.31966 45.4622 9.29464C45.4747 9.30298 45.4914 9.30715 45.5039 9.31549V9.29047Z" fill="#F8E9D6"/>
</g>
<defs>
<clipPath id="clip0_75_372">
<rect width="53.5737" height="46.2004" fill="white"/>
</clipPath>
</defs>
</svg>
