<svg width="98" height="24" viewBox="0 0 98 24" fill="none" xmlns="http://www.w3.org/2000/svg">
<path d="M96 13.5C96.8284 13.5 97.5 12.8284 97.5 12C97.5 11.1716 96.8284 10.5 96 10.5V12V13.5ZM0.93934 10.9393C0.353553 11.5251 0.353553 12.4749 0.93934 13.0607L10.4853 22.6066C11.0711 23.1924 12.0208 23.1924 12.6066 22.6066C13.1924 22.0208 13.1924 21.0711 12.6066 20.4853L4.12132 12L12.6066 3.51472C13.1924 2.92893 13.1924 1.97919 12.6066 1.3934C12.0208 0.807611 11.0711 0.807611 10.4853 1.3934L0.93934 10.9393ZM96 12V10.5H2V12V13.5H96V12Z" fill="#F8E9D6"/>
</svg>
