<svg width="265" height="494" viewBox="0 0 265 494" fill="none" xmlns="http://www.w3.org/2000/svg">
<path d="M220.837 8.53906H43.7168C23.8867 8.53906 7.81128 24.6258 7.81128 44.4697V453.362C7.81128 473.206 23.8867 489.292 43.7168 489.292H220.837C240.667 489.292 256.743 473.206 256.743 453.362V44.4697C256.743 24.6258 240.667 8.53906 220.837 8.53906Z" fill="#F8E9D6"/>
<path d="M120.601 236.459H90.8543C87.7639 236.459 85.252 233.95 85.252 230.852V201.085C85.252 197.992 87.7584 195.479 90.8543 195.479C93.9501 195.479 96.4566 197.987 96.4566 201.085V225.246H120.601C123.691 225.246 126.203 227.754 126.203 230.852C126.203 233.95 123.697 236.459 120.601 236.459Z" fill="#FFC050"/>
<path d="M120.601 185.584H90.8543C87.7639 185.584 85.252 183.075 85.252 179.977V150.21C85.252 147.117 87.7584 144.604 90.8543 144.604H120.601C123.691 144.604 126.203 147.112 126.203 150.21V179.977C126.203 183.07 123.697 185.584 120.601 185.584ZM96.4566 174.377H115.004V155.816H96.4566V174.377Z" fill="#FFC050"/>
<path d="M174.145 236.459H144.398C141.308 236.459 138.796 233.95 138.796 230.852V201.085C138.796 197.992 141.302 195.479 144.398 195.479H174.145C177.235 195.479 179.747 197.987 179.747 201.085V230.852C179.747 233.945 177.241 236.459 174.145 236.459ZM150.001 225.252H168.548V206.691H150.001V225.252Z" fill="#FFC050"/>
<path d="M174.145 185.584C171.055 185.584 168.543 183.075 168.543 179.977V150.21C168.543 147.117 171.049 144.604 174.145 144.604C177.241 144.604 179.748 147.112 179.748 150.21V179.977C179.748 183.07 177.241 185.584 174.145 185.584Z" fill="#FFC050"/>
<path d="M150.309 165.01C155.259 165.01 159.272 160.995 159.272 156.041C159.272 151.088 155.259 147.072 150.309 147.072C145.359 147.072 141.347 151.088 141.347 156.041C141.347 160.995 145.359 165.01 150.309 165.01Z" fill="#FFC050"/>
<path d="M150.309 188.621C155.259 188.621 159.272 184.606 159.272 179.652C159.272 174.699 155.259 170.684 150.309 170.684C145.359 170.684 141.347 174.699 141.347 179.652C141.347 184.606 145.359 188.621 150.309 188.621Z" fill="#FFC050"/>
<path d="M117.935 213.422C122.885 213.422 126.898 209.407 126.898 204.453C126.898 199.5 122.885 195.484 117.935 195.484C112.985 195.484 108.973 199.5 108.973 204.453C108.973 209.407 112.985 213.422 117.935 213.422Z" fill="#FFC050"/>
<path d="M210.012 155.817C206.922 155.817 204.41 153.309 204.41 150.211V131.766C204.41 123.624 197.789 116.998 189.652 116.998H175.176C172.085 116.998 169.573 114.489 169.573 111.391C169.573 108.293 172.08 105.785 175.176 105.785H189.652C203.964 105.785 215.609 117.439 215.609 131.76V150.205C215.609 153.298 213.103 155.811 210.007 155.811L210.012 155.817Z" fill="#020000"/>
<path d="M54.9871 159.163C51.8967 159.163 49.3848 156.655 49.3848 153.557V131.766C49.3848 117.445 61.0301 105.791 75.3416 105.791H90.0112C93.1016 105.791 95.6135 108.299 95.6135 111.397C95.6135 114.495 93.1071 117.004 90.0112 117.004H75.3416C67.2053 117.004 60.5839 123.63 60.5839 131.772V153.563C60.5839 156.655 58.0774 159.169 54.9816 159.169L54.9871 159.163Z" fill="#020000"/>
<path d="M95.7185 272.136H75.3475C61.0359 272.136 49.3906 260.483 49.3906 246.161V229.927C49.3906 226.834 51.8971 224.32 54.9929 224.32C58.0888 224.32 60.5953 226.829 60.5953 229.927V246.161C60.5953 254.303 67.2167 260.929 75.353 260.929H95.724C98.8144 260.929 101.326 263.437 101.326 266.535C101.326 269.633 98.8199 272.142 95.724 272.142L95.7185 272.136Z" fill="#020000"/>
<path d="M189.652 272.138H171.634C168.543 272.138 166.031 269.629 166.031 266.531C166.031 263.433 168.538 260.925 171.634 260.925H189.652C197.789 260.925 204.41 254.299 204.41 246.157V230.513C204.41 227.42 206.917 224.906 210.012 224.906C213.108 224.906 215.615 227.414 215.615 230.513V246.157C215.615 260.479 203.969 272.132 189.658 272.132L189.652 272.138Z" fill="#020000"/>
</svg>
