<svg preserveAspectRatio="none" width="100%" height="100%" overflow="visible" style="display: block;" viewBox="0 0 20 20" fill="none" xmlns="http://www.w3.org/2000/svg">
<g id="Icon">
<path id="Vector" d="M5.83333 2.5H3.33333C2.8731 2.5 2.5 2.8731 2.5 3.33333V5.83333C2.5 6.29357 2.8731 6.66667 3.33333 6.66667H5.83333C6.29357 6.66667 6.66667 6.29357 6.66667 5.83333V3.33333C6.66667 2.8731 6.29357 2.5 5.83333 2.5Z" stroke="var(--stroke-0, white)" stroke-width="1.66667" stroke-linecap="round" stroke-linejoin="round"/>
<path id="Vector_2" d="M16.6654 2.5H14.1654C13.7051 2.5 13.332 2.8731 13.332 3.33333V5.83333C13.332 6.29357 13.7051 6.66667 14.1654 6.66667H16.6654C17.1256 6.66667 17.4987 6.29357 17.4987 5.83333V3.33333C17.4987 2.8731 17.1256 2.5 16.6654 2.5Z" stroke="var(--stroke-0, white)" stroke-width="1.66667" stroke-linecap="round" stroke-linejoin="round"/>
<path id="Vector_3" d="M5.83333 13.332H3.33333C2.8731 13.332 2.5 13.7051 2.5 14.1654V16.6654C2.5 17.1256 2.8731 17.4987 3.33333 17.4987H5.83333C6.29357 17.4987 6.66667 17.1256 6.66667 16.6654V14.1654C6.66667 13.7051 6.29357 13.332 5.83333 13.332Z" stroke="var(--stroke-0, white)" stroke-width="1.66667" stroke-linecap="round" stroke-linejoin="round"/>
<path id="Vector_4" d="M17.4987 13.332H14.9987C14.5567 13.332 14.1327 13.5076 13.8202 13.8202C13.5076 14.1327 13.332 14.5567 13.332 14.9987V17.4987" stroke="var(--stroke-0, white)" stroke-width="1.66667" stroke-linecap="round" stroke-linejoin="round"/>
<path id="Vector_5" d="M17.5 17.5V17.5083" stroke="var(--stroke-0, white)" stroke-width="1.66667" stroke-linecap="round" stroke-linejoin="round"/>
<path id="Vector_6" d="M9.9987 5.83203V8.33203C9.9987 8.77406 9.8231 9.19798 9.51054 9.51054C9.19798 9.8231 8.77406 9.9987 8.33203 9.9987H5.83203" stroke="var(--stroke-0, white)" stroke-width="1.66667" stroke-linecap="round" stroke-linejoin="round"/>
<path id="Vector_7" d="M2.5 10H2.50833" stroke="var(--stroke-0, white)" stroke-width="1.66667" stroke-linecap="round" stroke-linejoin="round"/>
<path id="Vector_8" d="M10 2.5H10.0083" stroke="var(--stroke-0, white)" stroke-width="1.66667" stroke-linecap="round" stroke-linejoin="round"/>
<path id="Vector_9" d="M10 13.332V13.3404" stroke="var(--stroke-0, white)" stroke-width="1.66667" stroke-linecap="round" stroke-linejoin="round"/>
<path id="Vector_10" d="M13.332 10H14.1654" stroke="var(--stroke-0, white)" stroke-width="1.66667" stroke-linecap="round" stroke-linejoin="round"/>
<path id="Vector_11" d="M17.5 10V10.0083" stroke="var(--stroke-0, white)" stroke-width="1.66667" stroke-linecap="round" stroke-linejoin="round"/>
<path id="Vector_12" d="M10 17.5013V16.668" stroke="var(--stroke-0, white)" stroke-width="1.66667" stroke-linecap="round" stroke-linejoin="round"/>
</g>
</svg>
