<svg width="33" height="32" viewBox="0 0 33 32" fill="none" xmlns="http://www.w3.org/2000/svg">
<rect x="0.400391" width="32" height="32" rx="16" fill="#FFA748"/>
<path d="M24.4019 19.9361V22.3361C24.4029 22.5589 24.3572 22.7794 24.268 22.9836C24.1787 23.1877 24.0478 23.3709 23.8836 23.5216C23.7194 23.6722 23.5256 23.7869 23.3145 23.8582C23.1035 23.9296 22.8798 23.9561 22.6579 23.9361C20.1962 23.6686 17.8315 22.8274 15.7539 21.4801C13.821 20.2518 12.1822 18.613 10.9539 16.6801C9.60193 14.593 8.76054 12.2169 8.49795 9.74408C8.47796 9.52285 8.50425 9.29989 8.57515 9.08938C8.64605 8.87887 8.76001 8.68543 8.90976 8.52137C9.05952 8.35732 9.24179 8.22625 9.44498 8.1365C9.64817 8.04675 9.86782 8.00029 10.0899 8.00008H12.4899C12.8782 7.99626 13.2546 8.13374 13.549 8.3869C13.8433 8.64007 14.0356 8.99163 14.0899 9.37608C14.1912 10.1441 14.3791 10.8983 14.6499 11.6241C14.7576 11.9104 14.7809 12.2216 14.7171 12.5208C14.6533 12.82 14.505 13.0946 14.2899 13.3121L13.2739 14.3281C14.4128 16.3309 16.0711 17.9892 18.0739 19.1281L19.0899 18.1121C19.3075 17.897 19.5821 17.7488 19.8812 17.685C20.1804 17.6211 20.4916 17.6444 20.7779 17.7521C21.5038 18.0229 22.2579 18.2108 23.0259 18.3121C23.4146 18.3669 23.7695 18.5626 24.0232 18.8621C24.2769 19.1615 24.4117 19.5437 24.4019 19.9361Z" stroke="white" stroke-width="1.6" stroke-linecap="round" stroke-linejoin="round"/>
</svg>
